<svg width="528" height="528" fill="none" xmlns="http://www.w3.org/2000/svg"><circle cx="264" cy="264" r="214" fill="url(#paint0_linear_46_11228)" fill-opacity=".06"/><circle cx="264" cy="264" r="214.5" stroke="url(#paint1_linear_46_11228)" stroke-opacity=".15"/><g filter="url(#filter0_d_46_11228)" shape-rendering="crispEdges"><circle cx="264" cy="264" r="162.248" fill="url(#paint2_linear_46_11228)" fill-opacity=".05"/><circle cx="264" cy="264" r="162.748" stroke="url(#paint3_linear_46_11228)" stroke-opacity=".15"/></g><g filter="url(#filter1_d_46_11228)" shape-rendering="crispEdges"><circle cx="264.001" cy="264" r="110.497" fill="url(#paint4_linear_46_11228)" fill-opacity=".04"/><circle cx="264.001" cy="264" r="110.997" stroke="url(#paint5_linear_46_11228)" stroke-opacity=".15"/></g><g filter="url(#filter2_d_46_11228)" shape-rendering="crispEdges"><circle cx="264" cy="264" r="61.542" fill="url(#paint6_linear_46_11228)" fill-opacity=".05"/><circle cx="264" cy="264" r="62.042" stroke="url(#paint7_linear_46_11228)" stroke-opacity=".15"/></g><path fill-rule="evenodd" clip-rule="evenodd" d="M276.708 247.459H251.41c-9.135 0-16.541 7.406-16.541 16.541 0 9.135 7.406 16.541 16.541 16.541h25.298c9.136 0 16.542-7.406 16.542-16.541 0-9.135-7.406-16.541-16.542-16.541zm-25.298-5.838c-12.359 0-22.379 10.019-22.379 22.379 0 12.36 10.02 22.379 22.379 22.379h25.298c12.36 0 22.38-10.019 22.38-22.379 0-12.36-10.02-22.379-22.38-22.379H251.41z" fill="url(#paint8_linear_46_11228)"/><path d="M259.194 264a3.892 3.892 0 11-7.784 0 3.892 3.892 0 017.784 0z" fill="url(#paint9_linear_46_11228)"/><path d="M276.717 264a3.893 3.893 0 11-7.785-.001 3.893 3.893 0 017.785.001z" fill="url(#paint10_linear_46_11228)"/><defs><linearGradient id="paint0_linear_46_11228" x1="264" y1="50" x2="264" y2="478" gradientUnits="userSpaceOnUse"><stop stop-color="#fff" stop-opacity=".48"/><stop offset=".5" stop-color="#fff"/><stop offset="1" stop-color="#fff" stop-opacity="0"/></linearGradient><linearGradient id="paint1_linear_46_11228" x1="264" y1="50" x2="264" y2="478" gradientUnits="userSpaceOnUse"><stop stop-color="#fff" stop-opacity=".4"/><stop offset=".505" stop-color="#fff"/><stop offset="1" stop-color="#fff" stop-opacity="0"/></linearGradient><linearGradient id="paint2_linear_46_11228" x1="264" y1="101.752" x2="264" y2="426.248" gradientUnits="userSpaceOnUse"><stop stop-color="#fff" stop-opacity=".48"/><stop offset=".5" stop-color="#fff"/><stop offset="1" stop-color="#fff" stop-opacity="0"/></linearGradient><linearGradient id="paint3_linear_46_11228" x1="264" y1="101.752" x2="264" y2="426.248" gradientUnits="userSpaceOnUse"><stop stop-color="#fff" stop-opacity=".4"/><stop offset=".505" stop-color="#fff"/><stop offset="1" stop-color="#fff" stop-opacity="0"/></linearGradient><linearGradient id="paint4_linear_46_11228" x1="264.001" y1="153.503" x2="264.001" y2="374.497" gradientUnits="userSpaceOnUse"><stop stop-color="#fff" stop-opacity=".48"/><stop offset=".5" stop-color="#fff"/><stop offset="1" stop-color="#fff" stop-opacity="0"/></linearGradient><linearGradient id="paint5_linear_46_11228" x1="264.001" y1="153.503" x2="264.001" y2="374.497" gradientUnits="userSpaceOnUse"><stop stop-color="#fff" stop-opacity=".4"/><stop offset=".505" stop-color="#fff"/><stop offset="1" stop-color="#fff" stop-opacity="0"/></linearGradient><linearGradient id="paint6_linear_46_11228" x1="264" y1="202.458" x2="264" y2="325.542" gradientUnits="userSpaceOnUse"><stop stop-color="#fff" stop-opacity=".48"/><stop offset=".5" stop-color="#fff"/><stop offset="1" stop-color="#fff" stop-opacity="0"/></linearGradient><linearGradient id="paint7_linear_46_11228" x1="264" y1="202.458" x2="264" y2="325.542" gradientUnits="userSpaceOnUse"><stop stop-color="#fff" stop-opacity=".4"/><stop offset=".505" stop-color="#fff"/><stop offset="1" stop-color="#fff" stop-opacity="0"/></linearGradient><linearGradient id="paint8_linear_46_11228" x1="296.169" y1="245.026" x2="229.031" y2="281.028" gradientUnits="userSpaceOnUse"><stop stop-color="#701EFC"/><stop offset="1" stop-color="#CBB3F3"/></linearGradient><linearGradient id="paint9_linear_46_11228" x1="259.722" y1="260.803" x2="250.419" y2="263.372" gradientUnits="userSpaceOnUse"><stop stop-color="#ECE0FF"/><stop offset="1" stop-color="#7C3AED"/></linearGradient><linearGradient id="paint10_linear_46_11228" x1="276.351" y1="266.557" x2="271.39" y2="259.528" gradientUnits="userSpaceOnUse"><stop stop-color="#7C3AED"/><stop offset="1" stop-color="#ECE0FF"/></linearGradient><filter id="filter0_d_46_11228" x=".752" y=".752" width="526.497" height="526.497" filterUnits="userSpaceOnUse" color-interpolation-filters="sRGB"><feFlood flood-opacity="0" result="BackgroundImageFix"/><feColorMatrix in="SourceAlpha" values="0 0 0 0 0 0 0 0 0 0 0 0 0 0 0 0 0 0 127 0" result="hardAlpha"/><feOffset/><feGaussianBlur stdDeviation="50"/><feComposite in2="hardAlpha" operator="out"/><feColorMatrix values="0 0 0 0 0 0 0 0 0 0 0 0 0 0 0 0 0 0 0.1 0"/><feBlend in2="BackgroundImageFix" result="effect1_dropShadow_46_11228"/><feBlend in="SourceGraphic" in2="effect1_dropShadow_46_11228" result="shape"/></filter><filter id="filter1_d_46_11228" x="52.504" y="52.503" width="422.993" height="422.994" filterUnits="userSpaceOnUse" color-interpolation-filters="sRGB"><feFlood flood-opacity="0" result="BackgroundImageFix"/><feColorMatrix in="SourceAlpha" values="0 0 0 0 0 0 0 0 0 0 0 0 0 0 0 0 0 0 127 0" result="hardAlpha"/><feOffset/><feGaussianBlur stdDeviation="50"/><feComposite in2="hardAlpha" operator="out"/><feColorMatrix values="0 0 0 0 0 0 0 0 0 0 0 0 0 0 0 0 0 0 0.08 0"/><feBlend in2="BackgroundImageFix" result="effect1_dropShadow_46_11228"/><feBlend in="SourceGraphic" in2="effect1_dropShadow_46_11228" result="shape"/></filter><filter id="filter2_d_46_11228" x="151.457" y="151.458" width="225.085" height="225.085" filterUnits="userSpaceOnUse" color-interpolation-filters="sRGB"><feFlood flood-opacity="0" result="BackgroundImageFix"/><feColorMatrix in="SourceAlpha" values="0 0 0 0 0 0 0 0 0 0 0 0 0 0 0 0 0 0 127 0" result="hardAlpha"/><feOffset/><feGaussianBlur stdDeviation="25"/><feComposite in2="hardAlpha" operator="out"/><feColorMatrix values="0 0 0 0 0 0 0 0 0 0 0 0 0 0 0 0 0 0 0.12 0"/><feBlend in2="BackgroundImageFix" result="effect1_dropShadow_46_11228"/><feBlend in="SourceGraphic" in2="effect1_dropShadow_46_11228" result="shape"/></filter></defs></svg>