<svg xmlns="http://www.w3.org/2000/svg" viewBox="0 0 256 256" width="50" height="50"><path d="M128 23.04c-50.156 0-97.567 38.328-107.94 87.26-.03.148.01.292-.01.44C7.998 118.958-.22 135.081-.22 153.6c0 26.819 17.224 48.64 38.4 48.64 1.68 0 3.248-.823 4.2-2.2a5.147 5.147 0 00.59-4.72c-.077-.195-7.36-19.99-7.36-44.28 0-25.57 6.933-38.286 7.02-38.44a5.117 5.117 0 00-.03-5.09 5.09 5.09 0 00-4.42-2.55c-2.16 0-4.272.28-6.34.72 12.124-41.098 52.998-72.4 96.16-72.4 40.919 0 80.326 28.386 94.37 66.95-1.526-.235-3.073-.39-4.65-.39a5.11 5.11 0 00-4.41 2.54 5.136 5.136 0 00-.04 5.1c.072.123 7.01 12.84 7.01 38.44 0 20.173-5.01 37.21-6.75 42.53-5.873 4.782-14.795 11.406-25.23 17.14-3.896-4.347-9.922-6.558-16.01-5.15l-9.13 2.1c-4.316.988-7.98 3.602-10.33 7.36a16.457 16.457 0 00-2.1 12.5c1.761 7.66 8.603 12.86 16.15 12.86 1.224 0 2.46-.133 3.71-.42l9.14-2.11a16.408 16.408 0 0010.32-7.35c1.966-3.139 2.738-6.765 2.38-10.39 10.982-5.95 20.41-12.845 26.78-17.97 20.48-.998 36.91-22.356 36.91-48.54 0-19.267-8.904-35.895-21.76-43.77-.02-.384.023-.766-.09-1.15C220.943 56.901 176.246 23.04 128 23.04zM61.44 97.28a5.115 5.115 0 00-5.12 5.12v61.44a5.115 5.115 0 005.12 5.12h82.15c-2.58 5.412-6.663 12.71-9.74 17.84a5.128 5.128 0 00.16 5.52 5.104 5.104 0 005.07 2.17c31.677-5.279 57.59-25.78 58.68-26.65a5.126 5.126 0 001.92-4V102.4a5.115 5.115 0 00-5.12-5.12zm5.12 10.24h122.88v53.77c-5.366 3.917-21.392 14.806-40.95 20.54 3.287-6.036 6.792-13.1 7.57-16.98a5.127 5.127 0 00-5.02-6.13H66.56zm159.34 4.21c11.556 4.792 19.98 19.455 19.98 36.75 0 17.695-8.825 32.631-20.79 37.06 2.345-8.566 5.43-22.995 5.43-39.62 0-15.642-2.393-27.001-4.62-34.19zM30 116.85c-2.232 7.183-4.62 18.548-4.62 34.19 0 16.625 3.085 31.054 5.43 39.62-11.965-4.429-20.79-19.365-20.79-37.06 0-17.295 8.424-31.958 19.98-36.75zm64.72.91c-7.178 0-12.8 6.743-12.8 15.36 0 8.617 5.622 15.36 12.8 15.36 7.178 0 12.8-6.743 12.8-15.36 0-8.617-5.622-15.36-12.8-15.36zm66.56 0c-7.178 0-12.8 6.743-12.8 15.36 0 8.617 5.622 15.36 12.8 15.36 7.178 0 12.8-6.743 12.8-15.36 0-8.617-5.622-15.36-12.8-15.36zM94.72 128c.906 0 2.56 1.946 2.56 5.12 0 3.174-1.654 5.12-2.56 5.12-.906 0-2.56-1.946-2.56-5.12 0-3.174 1.654-5.12 2.56-5.12zm66.56 0c.906 0 2.56 1.946 2.56 5.12 0 3.174-1.654 5.12-2.56 5.12-.906 0-2.56-1.946-2.56-5.12 0-3.174 1.654-5.12 2.56-5.12zm14.73 82.25a6.29 6.29 0 013.35.97 6.28 6.28 0 012.8 3.95 6.29 6.29 0 01-.79 4.78 6.286 6.286 0 01-3.94 2.81h-.01l-9.13 2.1c-3.384.788-6.802-1.35-7.58-4.75a6.302 6.302 0 01.8-4.78 6.286 6.286 0 013.94-2.81l9.13-2.1a6.53 6.53 0 011.43-.17z" fill="#fff" font-family="none" font-weight="none" font-size="none" text-anchor="none"/></svg>