<svg width="87" height="19" fill="none" xmlns="http://www.w3.org/2000/svg"><g clip-path="url(#clip0_69_11464)"><path d="M7.284 13.31c1.376 2.275 3.902 3.801 6.712 3.801 4.153 0 6.44-3.612 6.44-3.612l.294.963c-1.923 2.52-5.358 4.038-9.2 4.038-4.425 0-8.24-2.127-9.996-5.195A7.623 7.623 0 01.504 9.5c0-4.97 4.936-9 11.025-9 4.303 0 7.767 1.858 9.586 4.55l-7.22 4.357 4.12-6.377c-1.178-.747-2.624-1.447-4.12-1.447-4.227 0-7.708 3.555-7.708 7.815 0 1.428.402 2.769 1.096 3.911v.001zm19.33-.003a2.972 2.972 0 00-.032.439c0 1.617 1.3 2.928 2.905 2.928 1.605 0 2.905-1.31 2.905-2.928a2.91 2.91 0 00-2.905-2.928 2.913 2.913 0 00-2.873 2.489zm10.78-.002l1.445 4.902h-5.066l-.995-3.356c-.667 1.934-2.918 3.356-5.592 3.356-3.2 0-5.792-2.036-5.792-4.548 0-.118.006-.235.017-.354.228-2.345 2.726-4.195 5.775-4.195 1.73 0 3.284.596 4.346 1.54l-1.38-4.648h-5.813s.967-.585 5.256-2.158c4.29-1.573 5.648 2.158 5.648 2.158l2.15 7.303zm16.195 0v4.902h-5.212V7.437a1.43 1.43 0 00-1.423-1.435c-.587 0-1.114.362-1.327.914v11.291H40.51V6.002h-2.983s4.15-2.534 5.59-2.534c1.363 0 2.373 1.056 2.499 2.4 2.007-1.09 3.997-2.4 5.366-2.4a2.617 2.617 0 012.606 2.553v7.284zm8.029 0l.725 2.416a1.891 1.891 0 002.683 1.692 1.925 1.925 0 001.117-1.984l-.616-2.124-2.166-7.459a1.924 1.924 0 00-1.906-1.717c-.978 0-1.91.92-2.028 1.872l2.19 7.304zm8.294.001c-.987 3.017-3.806 5.194-7.13 5.194-3.323 0-6.142-2.177-7.13-5.195a7.603 7.603 0 01-.376-2.37c0-4.178 3.36-7.565 7.506-7.565 4.146 0 7.506 3.387 7.506 7.565 0 .828-.132 1.625-.376 2.371zm8.63 0v4.901h-5.116V6.002h-2.86s4.027-2.534 5.466-2.534c1.364 0 2.373 1.056 2.5 2.4 2.007-1.09 3.997-2.4 5.366-2.4a2.616 2.616 0 012.606 2.552v12.186h-5.212V7.437a1.43 1.43 0 00-1.424-1.435c-.587 0-1.113.362-1.327.914v6.39z" fill="#CBD5E1"/></g><defs><clipPath id="clip0_69_11464"><path fill="#fff" transform="translate(.504 .5)" d="M0 0h86v18H0z"/></clipPath></defs></svg>