<svg width="93" height="29" fill="none" xmlns="http://www.w3.org/2000/svg"><g clip-path="url(#clip0_69_11449)"><path d="M57.577 22.397C52.25 26.38 44.505 28.5 37.82 28.5c-9.36 0-17.754-3.492-24.145-9.3-.485-.458-.065-1.078.548-.719 6.876 4.047 15.366 6.462 24.146 6.462 5.908 0 12.428-1.24 18.433-3.818.903-.36 1.646.62.774 1.272zm2.228-2.577c-.678-.88-4.52-.424-6.23-.195-.517.065-.614-.392-.13-.718 3.067-2.187 8.07-1.534 8.652-.816.58.718-.162 5.809-3.035 8.224-.452.358-.871.163-.678-.327.646-1.632 2.1-5.254 1.42-6.168zM53.67 3.568V1.446c0-.326.226-.522.517-.522h9.36c.29 0 .55.229.55.522v1.795c0 .294-.258.686-.71 1.338l-4.842 6.984c1.807-.033 3.712.228 5.326 1.142.355.196.452.522.484.816v2.252c0 .326-.323.685-.678.49-2.873-1.535-6.714-1.698-9.878.032-.322.163-.677-.163-.677-.49v-2.153c0-.327 0-.914.355-1.436l5.616-8.126H54.22c-.29 0-.55-.229-.55-.522zM19.55 16.719h-2.84c-.258-.033-.484-.228-.517-.49V1.48c0-.294.259-.522.55-.522h2.646c.29 0 .484.228.517.49v1.925h.064C20.648 1.512 21.972.63 23.715.63c1.775 0 2.905.88 3.68 2.74.678-1.86 2.26-2.74 3.938-2.74 1.194 0 2.486.489 3.293 1.631.904 1.24.71 3.035.71 4.634v9.334c0 .293-.258.522-.55.522H31.98c-.29-.033-.517-.261-.517-.522V8.397c0-.62.065-2.186-.064-2.773-.226-.98-.84-1.273-1.68-1.273-.677 0-1.42.457-1.71 1.207-.29.75-.26 1.991-.26 2.84v7.832c0 .293-.256.522-.547.522h-2.84c-.291-.033-.517-.261-.517-.522V8.397c0-1.631.258-4.079-1.743-4.079-2.034 0-1.97 2.35-1.97 4.08v7.832a.569.569 0 01-.58.489zM72.168.631c4.229 0 6.52 3.655 6.52 8.321 0 4.504-2.517 8.093-6.52 8.093-4.132 0-6.391-3.655-6.391-8.223C65.744 4.22 68.037.63 72.167.63v.001zm0 3.035c-2.098 0-2.227 2.904-2.227 4.699s-.032 5.645 2.195 5.645c2.195 0 2.324-3.1 2.324-4.993 0-1.24-.064-2.74-.42-3.916-.322-1.044-.968-1.435-1.872-1.435zm11.977 13.053h-2.84c-.29-.033-.517-.261-.517-.522V1.414a.56.56 0 01.549-.49h2.647c.258 0 .452.196.516.424V3.6h.065C85.372 1.577 86.47.63 88.439.63c1.259 0 2.518.457 3.325 1.73.74 1.175.74 3.166.74 4.602v9.3c-.031.261-.257.457-.548.457h-2.84c-.26-.033-.485-.228-.517-.457V8.234c0-1.631.194-3.981-1.775-3.981-.678 0-1.324.457-1.647 1.175-.387.913-.452 1.795-.452 2.806v7.963a.593.593 0 01-.58.522zm-35.057-.033a.58.58 0 01-.677.066c-.937-.783-1.13-1.175-1.647-1.926-1.55 1.6-2.68 2.089-4.68 2.089-2.39 0-4.262-1.501-4.262-4.47 0-2.35 1.26-3.917 3.035-4.7 1.55-.686 3.712-.816 5.358-1.012v-.359c0-.685.065-1.501-.355-2.088-.355-.523-1-.751-1.581-.751-1.098 0-2.066.555-2.292 1.73-.065.26-.226.522-.485.522l-2.743-.294c-.226-.065-.485-.228-.42-.587C38.984 1.512 41.986.5 44.698.5c1.387 0 3.195.359 4.293 1.436 1.388 1.305 1.259 3.067 1.259 4.96v4.471c0 1.338.548 1.926 1.065 2.676.194.261.226.588 0 .75-.614.49-1.645 1.404-2.227 1.893zm-37.316 0a.58.58 0 01-.678.066c-.936-.783-1.13-1.175-1.646-1.926-1.55 1.6-2.68 2.089-4.68 2.089-2.39 0-4.262-1.501-4.262-4.47 0-2.35 1.259-3.917 3.034-4.7 1.55-.686 3.713-.816 5.359-1.012v-.359c0-.685.065-1.501-.355-2.088-.355-.523-1-.751-1.582-.751-1.097 0-2.066.555-2.292 1.73-.064.26-.226.522-.484.522L1.44 5.493c-.226-.065-.484-.228-.42-.587C1.667 1.512 4.669.5 7.38.5c1.388 0 3.196.359 4.293 1.436 1.388 1.305 1.26 3.067 1.26 4.96v4.471c0 1.338.548 1.926 1.064 2.676.194.261.226.588 0 .75-.613.49-1.646 1.404-2.227 1.893zM46.214 9.67v-.62c-2.065 0-4.228.457-4.228 2.905 0 1.24.645 2.088 1.743 2.088.807 0 1.517-.49 1.969-1.305.549-1.012.516-1.958.516-3.068zm-37.284 0v-.62c-2.066 0-4.23.457-4.23 2.905 0 1.24.647 2.088 1.745 2.088.807 0 1.517-.49 1.969-1.305.549-1.012.516-1.958.516-3.068z" fill="#CBD5E1"/></g><defs><clipPath id="clip0_69_11449"><path fill="#fff" transform="translate(.504 .5)" d="M0 0h92v28H0z"/></clipPath></defs></svg>