<svg width="1170" height="364" fill="none" xmlns="http://www.w3.org/2000/svg"><g opacity=".2" fill-rule="evenodd" clip-rule="evenodd"><path d="M-426.377 514V0h.818v514h-.818z" fill="url(#paint0_linear_94_12720)"/><path d="M-399.395 514V0h.817v514h-.817z" fill="url(#paint1_linear_94_12720)"/><path d="M-372.414 514V0h.818v514h-.818z" fill="url(#paint2_linear_94_12720)"/><path d="M-345.432 514V0h.818l-.001 514h-.817z" fill="url(#paint3_linear_94_12720)"/><path d="M-318.451 514l.001-514h.817v514h-.818z" fill="url(#paint4_linear_94_12720)"/><path d="M-291.469 514V0h.818v514h-.818z" fill="url(#paint5_linear_94_12720)"/><path d="M-264.487 514V0h.817v514h-.817z" fill="url(#paint6_linear_94_12720)"/><path d="M-237.506 514V0h.818v514h-.818z" fill="url(#paint7_linear_94_12720)"/><path d="M-210.524 514V0h.818v514h-.818z" fill="url(#paint8_linear_94_12720)"/><path d="M-183.542 514V0h.817v514h-.817z" fill="url(#paint9_linear_94_12720)"/><path d="M-156.561 514V0h.818v514h-.818z" fill="url(#paint10_linear_94_12720)"/><path d="M-129.579 514V0h.818l-.001 514h-.817z" fill="url(#paint11_linear_94_12720)"/><path d="M-102.598 514l.001-514h.817v514h-.818z" fill="url(#paint12_linear_94_12720)"/><path d="M-75.616 514V0h.818v514h-.818z" fill="url(#paint13_linear_94_12720)"/><path d="M-48.634 514V0h.817v514h-.817z" fill="url(#paint14_linear_94_12720)"/><path d="M-21.653 514V0h.818v514h-.818z" fill="url(#paint15_linear_94_12720)"/><path d="M5.329 514V0h.818v514h-.818z" fill="url(#paint16_linear_94_12720)"/><path d="M32.31 514V0h.818v514h-.818z" fill="url(#paint17_linear_94_12720)"/><path d="M59.292 514V0h.818v514h-.818z" fill="url(#paint18_linear_94_12720)"/><path d="M86.274 514V0h.817v514h-.817z" fill="url(#paint19_linear_94_12720)"/><path d="M113.255 514V0h.818v514h-.818z" fill="url(#paint20_linear_94_12720)"/><path d="M140.237 514V0h.818v514h-.818z" fill="url(#paint21_linear_94_12720)"/><path d="M167.219 514V0h.817v514h-.817z" fill="url(#paint22_linear_94_12720)"/><path d="M194.2 514V0h.818v514h-.818z" fill="url(#paint23_linear_94_12720)"/><path d="M221.182 514V0h.817v514h-.817z" fill="url(#paint24_linear_94_12720)"/><path d="M248.163 514V0h.818v514h-.818z" fill="url(#paint25_linear_94_12720)"/><path d="M275.145 514V0h.818v514h-.818z" fill="url(#paint26_linear_94_12720)"/><path d="M302.127 514V0h.817v514h-.817z" fill="url(#paint27_linear_94_12720)"/><path d="M329.108 514V0h.818v514h-.818z" fill="url(#paint28_linear_94_12720)"/><path d="M356.09 514V0h.817v514h-.817z" fill="url(#paint29_linear_94_12720)"/><path d="M383.071 514V0h.818v514h-.818z" fill="url(#paint30_linear_94_12720)"/><path d="M410.053 514V0h.818v514h-.818z" fill="url(#paint31_linear_94_12720)"/><path d="M437.035 514V0h.817v514h-.817z" fill="url(#paint32_linear_94_12720)"/><path d="M464.016 514V0h.818v514h-.818z" fill="url(#paint33_linear_94_12720)"/><path d="M490.998 514V0h.817v514h-.817z" fill="url(#paint34_linear_94_12720)"/><path d="M517.979 514V0h.818v514h-.818z" fill="url(#paint35_linear_94_12720)"/><path d="M544.961 514V0h.818v514h-.818z" fill="url(#paint36_linear_94_12720)"/><path d="M571.943 514V0h.817v514h-.817z" fill="url(#paint37_linear_94_12720)"/><path d="M598.924 514V0h.818v514h-.818z" fill="url(#paint38_linear_94_12720)"/><path d="M625.906 514V0h.817v514h-.817z" fill="url(#paint39_linear_94_12720)"/><path d="M652.887 514V0h.818v514h-.818z" fill="url(#paint40_linear_94_12720)"/><path d="M671.692 499.315H-446v-.816H671.692v.816z" fill="url(#paint41_linear_94_12720)"/><path d="M671.692 472.391H-446v-.816H671.692v.816z" fill="url(#paint42_linear_94_12720)"/><path d="M671.692 445.467H-446v-.816H671.692v.816z" fill="url(#paint43_linear_94_12720)"/><path d="M671.692 418.543H-446v-.816H671.692v.816z" fill="url(#paint44_linear_94_12720)"/><path d="M671.692 391.619H-446v-.815H671.692v.815z" fill="url(#paint45_linear_94_12720)"/><path d="M671.692 364.696H-446v-.816H671.692v.816z" fill="url(#paint46_linear_94_12720)"/><path d="M671.692 337.772H-446v-.816H671.692v.816z" fill="url(#paint47_linear_94_12720)"/><path d="M671.692 310.848H-446v-.816H671.692v.816z" fill="url(#paint48_linear_94_12720)"/><path d="M671.692 283.924H-446v-.816H671.692v.816z" fill="url(#paint49_linear_94_12720)"/><path d="M671.692 257H-446v-.816H671.692V257z" fill="url(#paint50_linear_94_12720)"/><path d="M671.692 230.076H-446v-.816H671.692v.816z" fill="url(#paint51_linear_94_12720)"/><path d="M671.692 203.152H-446v-.815H671.692v.815z" fill="url(#paint52_linear_94_12720)"/><path d="M671.692 176.229H-446v-.816H671.692v.816z" fill="url(#paint53_linear_94_12720)"/><path d="M671.692 149.305H-446v-.816H671.692v.816z" fill="url(#paint54_linear_94_12720)"/><path d="M671.692 122.381H-446v-.816H671.692v.816z" fill="url(#paint55_linear_94_12720)"/><path d="M671.692 95.457H-446v-.816H671.692v.816z" fill="url(#paint56_linear_94_12720)"/><path d="M671.692 68.533H-446v-.816H671.692v.816z" fill="url(#paint57_linear_94_12720)"/><path d="M671.692 41.61H-446v-.816H671.692v.816z" fill="url(#paint58_linear_94_12720)"/><path d="M671.692 14.685H-446v-.816H671.692v.816z" fill="url(#paint59_linear_94_12720)"/><path d="M517.931 514V0h.817v514h-.817z" fill="url(#paint60_linear_94_12720)"/><path d="M544.912 514V0h.818v514h-.818z" fill="url(#paint61_linear_94_12720)"/><path d="M571.894 514V0h.817v514h-.817z" fill="url(#paint62_linear_94_12720)"/><path d="M598.875 514V0h.818v514h-.818z" fill="url(#paint63_linear_94_12720)"/><path d="M625.857 514V0h.818v514h-.818z" fill="url(#paint64_linear_94_12720)"/><path d="M652.839 514V0h.817v514h-.817z" fill="url(#paint65_linear_94_12720)"/><path d="M679.82 514V0h.818v514h-.818z" fill="url(#paint66_linear_94_12720)"/><path d="M706.802 514V0h.818v514h-.818z" fill="url(#paint67_linear_94_12720)"/><path d="M733.784 514V0h.817v514h-.817z" fill="url(#paint68_linear_94_12720)"/><path d="M760.765 514V0h.818v514h-.818z" fill="url(#paint69_linear_94_12720)"/><path d="M787.747 514V0h.817v514h-.817z" fill="url(#paint70_linear_94_12720)"/><path d="M814.728 514V0h.818v514h-.818z" fill="url(#paint71_linear_94_12720)"/><path d="M841.71 514V0h.818v514h-.818z" fill="url(#paint72_linear_94_12720)"/><path d="M868.692 514V0h.817v514h-.817z" fill="url(#paint73_linear_94_12720)"/><path d="M895.673 514V0h.818v514h-.818z" fill="url(#paint74_linear_94_12720)"/><path d="M922.655 514V0h.818v514h-.818z" fill="url(#paint75_linear_94_12720)"/><path d="M949.636 514V0h.818v514h-.818z" fill="url(#paint76_linear_94_12720)"/><path d="M976.618 514V0h.818v514h-.818z" fill="url(#paint77_linear_94_12720)"/><path d="M1003.6 514V0h.82v514h-.82z" fill="url(#paint78_linear_94_12720)"/><path d="M1030.58 514V0h.82v514h-.82z" fill="url(#paint79_linear_94_12720)"/><path d="M1057.56 514V0h.82v514h-.82z" fill="url(#paint80_linear_94_12720)"/><path d="M1084.54 514V0h.82v514h-.82z" fill="url(#paint81_linear_94_12720)"/><path d="M1111.53 514V0h.81v514h-.81z" fill="url(#paint82_linear_94_12720)"/><path d="M1138.51 514V0h.82v514h-.82z" fill="url(#paint83_linear_94_12720)"/><path d="M1165.49 514V0h.82v514h-.82z" fill="url(#paint84_linear_94_12720)"/><path d="M1192.47 514V0h.82v514h-.82z" fill="url(#paint85_linear_94_12720)"/><path d="M1219.45 514V0h.82v514h-.82z" fill="url(#paint86_linear_94_12720)"/><path d="M1246.43 514V0h.82v514h-.82z" fill="url(#paint87_linear_94_12720)"/><path d="M1273.42 514V0h.81v514h-.81z" fill="url(#paint88_linear_94_12720)"/><path d="M1300.4 514V0h.81v514h-.81z" fill="url(#paint89_linear_94_12720)"/><path d="M1327.38 514V0h.82v514h-.82z" fill="url(#paint90_linear_94_12720)"/><path d="M1354.36 514V0h.82v514h-.82z" fill="url(#paint91_linear_94_12720)"/><path d="M1381.34 514V0h.82v514h-.82z" fill="url(#paint92_linear_94_12720)"/><path d="M1408.32 514V0h.82v514h-.82z" fill="url(#paint93_linear_94_12720)"/><path d="M1435.31 514V0h.81v514h-.81z" fill="url(#paint94_linear_94_12720)"/><path d="M1462.29 514V0h.81v514h-.81z" fill="url(#paint95_linear_94_12720)"/><path d="M1489.27 514V0h.82v514h-.82z" fill="url(#paint96_linear_94_12720)"/><path d="M1516.25 514V0h.82v514h-.82z" fill="url(#paint97_linear_94_12720)"/><path d="M1543.23 514V0h.82v514h-.82z" fill="url(#paint98_linear_94_12720)"/><path d="M1570.21 514V0h.82v514h-.82z" fill="url(#paint99_linear_94_12720)"/><path d="M1597.19 514V0h.82v514h-.82z" fill="url(#paint100_linear_94_12720)"/><path d="M1616 499.315H498.307v-.816H1616v.816z" fill="url(#paint101_linear_94_12720)"/><path d="M1616 472.391H498.307v-.816H1616v.816z" fill="url(#paint102_linear_94_12720)"/><path d="M1616 445.467H498.307v-.816H1616v.816z" fill="url(#paint103_linear_94_12720)"/><path d="M1616 418.543H498.307v-.816H1616v.816z" fill="url(#paint104_linear_94_12720)"/><path d="M1616 391.619H498.307v-.815H1616v.815z" fill="url(#paint105_linear_94_12720)"/><path d="M1616 364.696H498.307v-.816H1616v.816z" fill="url(#paint106_linear_94_12720)"/><path d="M1616 337.772H498.307v-.816H1616v.816z" fill="url(#paint107_linear_94_12720)"/><path d="M1616 310.848H498.307v-.816H1616v.816z" fill="url(#paint108_linear_94_12720)"/><path d="M1616 283.924H498.307v-.816H1616v.816z" fill="url(#paint109_linear_94_12720)"/><path d="M1616 257H498.307v-.816H1616V257z" fill="url(#paint110_linear_94_12720)"/><path d="M1616 230.076H498.307v-.816H1616v.816z" fill="url(#paint111_linear_94_12720)"/><path d="M1616 203.152H498.307v-.815H1616v.815z" fill="url(#paint112_linear_94_12720)"/><path d="M1616 176.229H498.307v-.816H1616v.816z" fill="url(#paint113_linear_94_12720)"/><path d="M1616 149.305H498.307v-.816H1616v.816z" fill="url(#paint114_linear_94_12720)"/><path d="M1616 122.381H498.307v-.816H1616v.816z" fill="url(#paint115_linear_94_12720)"/><path d="M1616 95.457H498.307v-.816H1616v.816z" fill="url(#paint116_linear_94_12720)"/><path d="M1616 68.533H498.307v-.816H1616v.816z" fill="url(#paint117_linear_94_12720)"/><path d="M1616 41.61H498.307v-.816H1616v.816z" fill="url(#paint118_linear_94_12720)"/><path d="M1616 14.685H498.307v-.816H1616v.816z" fill="url(#paint119_linear_94_12720)"/></g><defs><linearGradient id="paint0_linear_94_12720" x1="585.064" y1="218.141" x2="585.064" y2="514" gradientUnits="userSpaceOnUse"><stop stop-color="#fff" stop-opacity="0"/><stop offset="1" stop-color="#fff" stop-opacity=".65"/></linearGradient><linearGradient id="paint1_linear_94_12720" x1="585.064" y1="218.141" x2="585.064" y2="514" gradientUnits="userSpaceOnUse"><stop stop-color="#fff" stop-opacity="0"/><stop offset="1" stop-color="#fff" stop-opacity=".65"/></linearGradient><linearGradient id="paint2_linear_94_12720" x1="585.064" y1="218.141" x2="585.064" y2="514" gradientUnits="userSpaceOnUse"><stop stop-color="#fff" stop-opacity="0"/><stop offset="1" stop-color="#fff" stop-opacity=".65"/></linearGradient><linearGradient id="paint3_linear_94_12720" x1="585.064" y1="218.141" x2="585.064" y2="514" gradientUnits="userSpaceOnUse"><stop stop-color="#fff" stop-opacity="0"/><stop offset="1" stop-color="#fff" stop-opacity=".65"/></linearGradient><linearGradient id="paint4_linear_94_12720" x1="585.064" y1="218.141" x2="585.064" y2="514" gradientUnits="userSpaceOnUse"><stop stop-color="#fff" stop-opacity="0"/><stop offset="1" stop-color="#fff" stop-opacity=".65"/></linearGradient><linearGradient id="paint5_linear_94_12720" x1="585.064" y1="218.141" x2="585.064" y2="514" gradientUnits="userSpaceOnUse"><stop stop-color="#fff" stop-opacity="0"/><stop offset="1" stop-color="#fff" stop-opacity=".65"/></linearGradient><linearGradient id="paint6_linear_94_12720" x1="585.064" y1="218.141" x2="585.064" y2="514" gradientUnits="userSpaceOnUse"><stop stop-color="#fff" stop-opacity="0"/><stop offset="1" stop-color="#fff" stop-opacity=".65"/></linearGradient><linearGradient id="paint7_linear_94_12720" x1="585.064" y1="218.141" x2="585.064" y2="514" gradientUnits="userSpaceOnUse"><stop stop-color="#fff" stop-opacity="0"/><stop offset="1" stop-color="#fff" stop-opacity=".65"/></linearGradient><linearGradient id="paint8_linear_94_12720" x1="585.064" y1="218.141" x2="585.064" y2="514" gradientUnits="userSpaceOnUse"><stop stop-color="#fff" stop-opacity="0"/><stop offset="1" stop-color="#fff" stop-opacity=".65"/></linearGradient><linearGradient id="paint9_linear_94_12720" x1="585.064" y1="218.141" x2="585.064" y2="514" gradientUnits="userSpaceOnUse"><stop stop-color="#fff" stop-opacity="0"/><stop offset="1" stop-color="#fff" stop-opacity=".65"/></linearGradient><linearGradient id="paint10_linear_94_12720" x1="585.064" y1="218.141" x2="585.064" y2="514" gradientUnits="userSpaceOnUse"><stop stop-color="#fff" stop-opacity="0"/><stop offset="1" stop-color="#fff" stop-opacity=".65"/></linearGradient><linearGradient id="paint11_linear_94_12720" x1="585.064" y1="218.141" x2="585.064" y2="514" gradientUnits="userSpaceOnUse"><stop stop-color="#fff" stop-opacity="0"/><stop offset="1" stop-color="#fff" stop-opacity=".65"/></linearGradient><linearGradient id="paint12_linear_94_12720" x1="585.064" y1="218.141" x2="585.064" y2="514" gradientUnits="userSpaceOnUse"><stop stop-color="#fff" stop-opacity="0"/><stop offset="1" stop-color="#fff" stop-opacity=".65"/></linearGradient><linearGradient id="paint13_linear_94_12720" x1="585.064" y1="218.141" x2="585.064" y2="514" gradientUnits="userSpaceOnUse"><stop stop-color="#fff" stop-opacity="0"/><stop offset="1" stop-color="#fff" stop-opacity=".65"/></linearGradient><linearGradient id="paint14_linear_94_12720" x1="585.064" y1="218.141" x2="585.064" y2="514" gradientUnits="userSpaceOnUse"><stop stop-color="#fff" stop-opacity="0"/><stop offset="1" stop-color="#fff" stop-opacity=".65"/></linearGradient><linearGradient id="paint15_linear_94_12720" x1="585.064" y1="218.141" x2="585.064" y2="514" gradientUnits="userSpaceOnUse"><stop stop-color="#fff" stop-opacity="0"/><stop offset="1" stop-color="#fff" stop-opacity=".65"/></linearGradient><linearGradient id="paint16_linear_94_12720" x1="585.064" y1="218.141" x2="585.064" y2="514" gradientUnits="userSpaceOnUse"><stop stop-color="#fff" stop-opacity="0"/><stop offset="1" stop-color="#fff" stop-opacity=".65"/></linearGradient><linearGradient id="paint17_linear_94_12720" x1="585.064" y1="218.141" x2="585.064" y2="514" gradientUnits="userSpaceOnUse"><stop stop-color="#fff" stop-opacity="0"/><stop offset="1" stop-color="#fff" stop-opacity=".65"/></linearGradient><linearGradient id="paint18_linear_94_12720" x1="585.064" y1="218.141" x2="585.064" y2="514" gradientUnits="userSpaceOnUse"><stop stop-color="#fff" stop-opacity="0"/><stop offset="1" stop-color="#fff" stop-opacity=".65"/></linearGradient><linearGradient id="paint19_linear_94_12720" x1="585.064" y1="218.141" x2="585.064" y2="514" gradientUnits="userSpaceOnUse"><stop stop-color="#fff" stop-opacity="0"/><stop offset="1" stop-color="#fff" stop-opacity=".65"/></linearGradient><linearGradient id="paint20_linear_94_12720" x1="585.064" y1="218.141" x2="585.064" y2="514" gradientUnits="userSpaceOnUse"><stop stop-color="#fff" stop-opacity="0"/><stop offset="1" stop-color="#fff" stop-opacity=".65"/></linearGradient><linearGradient id="paint21_linear_94_12720" x1="585.064" y1="218.141" x2="585.064" y2="514" gradientUnits="userSpaceOnUse"><stop stop-color="#fff" stop-opacity="0"/><stop offset="1" stop-color="#fff" stop-opacity=".65"/></linearGradient><linearGradient id="paint22_linear_94_12720" x1="585.064" y1="218.141" x2="585.064" y2="514" gradientUnits="userSpaceOnUse"><stop stop-color="#fff" stop-opacity="0"/><stop offset="1" stop-color="#fff" stop-opacity=".65"/></linearGradient><linearGradient id="paint23_linear_94_12720" x1="585.064" y1="218.141" x2="585.064" y2="514" gradientUnits="userSpaceOnUse"><stop stop-color="#fff" stop-opacity="0"/><stop offset="1" stop-color="#fff" stop-opacity=".65"/></linearGradient><linearGradient id="paint24_linear_94_12720" x1="585.064" y1="218.141" x2="585.064" y2="514" gradientUnits="userSpaceOnUse"><stop stop-color="#fff" stop-opacity="0"/><stop offset="1" stop-color="#fff" stop-opacity=".65"/></linearGradient><linearGradient id="paint25_linear_94_12720" x1="585.064" y1="218.141" x2="585.064" y2="514" gradientUnits="userSpaceOnUse"><stop stop-color="#fff" stop-opacity="0"/><stop offset="1" stop-color="#fff" stop-opacity=".65"/></linearGradient><linearGradient id="paint26_linear_94_12720" x1="585.064" y1="218.141" x2="585.064" y2="514" gradientUnits="userSpaceOnUse"><stop stop-color="#fff" stop-opacity="0"/><stop offset="1" stop-color="#fff" stop-opacity=".65"/></linearGradient><linearGradient id="paint27_linear_94_12720" x1="585.064" y1="218.141" x2="585.064" y2="514" gradientUnits="userSpaceOnUse"><stop stop-color="#fff" stop-opacity="0"/><stop offset="1" stop-color="#fff" stop-opacity=".65"/></linearGradient><linearGradient id="paint28_linear_94_12720" x1="585.064" y1="218.141" x2="585.064" y2="514" gradientUnits="userSpaceOnUse"><stop stop-color="#fff" stop-opacity="0"/><stop offset="1" stop-color="#fff" stop-opacity=".65"/></linearGradient><linearGradient id="paint29_linear_94_12720" x1="585.064" y1="218.141" x2="585.064" y2="514" gradientUnits="userSpaceOnUse"><stop stop-color="#fff" stop-opacity="0"/><stop offset="1" stop-color="#fff" stop-opacity=".65"/></linearGradient><linearGradient id="paint30_linear_94_12720" x1="585.064" y1="218.141" x2="585.064" y2="514" gradientUnits="userSpaceOnUse"><stop stop-color="#fff" stop-opacity="0"/><stop offset="1" stop-color="#fff" stop-opacity=".65"/></linearGradient><linearGradient id="paint31_linear_94_12720" x1="585.064" y1="218.141" x2="585.064" y2="514" gradientUnits="userSpaceOnUse"><stop stop-color="#fff" stop-opacity="0"/><stop offset="1" stop-color="#fff" stop-opacity=".65"/></linearGradient><linearGradient id="paint32_linear_94_12720" x1="585.064" y1="218.141" x2="585.064" y2="514" gradientUnits="userSpaceOnUse"><stop stop-color="#fff" stop-opacity="0"/><stop offset="1" stop-color="#fff" stop-opacity=".65"/></linearGradient><linearGradient id="paint33_linear_94_12720" x1="585.064" y1="218.141" x2="585.064" y2="514" gradientUnits="userSpaceOnUse"><stop stop-color="#fff" stop-opacity="0"/><stop offset="1" stop-color="#fff" stop-opacity=".65"/></linearGradient><linearGradient id="paint34_linear_94_12720" x1="585.064" y1="218.141" x2="585.064" y2="514" gradientUnits="userSpaceOnUse"><stop stop-color="#fff" stop-opacity="0"/><stop offset="1" stop-color="#fff" stop-opacity=".65"/></linearGradient><linearGradient id="paint35_linear_94_12720" x1="585.064" y1="218.141" x2="585.064" y2="514" gradientUnits="userSpaceOnUse"><stop stop-color="#fff" stop-opacity="0"/><stop offset="1" stop-color="#fff" stop-opacity=".65"/></linearGradient><linearGradient id="paint36_linear_94_12720" x1="585.064" y1="218.141" x2="585.064" y2="514" gradientUnits="userSpaceOnUse"><stop stop-color="#fff" stop-opacity="0"/><stop offset="1" stop-color="#fff" stop-opacity=".65"/></linearGradient><linearGradient id="paint37_linear_94_12720" x1="585.064" y1="218.141" x2="585.064" y2="514" gradientUnits="userSpaceOnUse"><stop stop-color="#fff" stop-opacity="0"/><stop offset="1" stop-color="#fff" stop-opacity=".65"/></linearGradient><linearGradient id="paint38_linear_94_12720" x1="585.064" y1="218.141" x2="585.064" y2="514" gradientUnits="userSpaceOnUse"><stop stop-color="#fff" stop-opacity="0"/><stop offset="1" stop-color="#fff" stop-opacity=".65"/></linearGradient><linearGradient id="paint39_linear_94_12720" x1="585.064" y1="218.141" x2="585.064" y2="514" gradientUnits="userSpaceOnUse"><stop stop-color="#fff" stop-opacity="0"/><stop offset="1" stop-color="#fff" stop-opacity=".65"/></linearGradient><linearGradient id="paint40_linear_94_12720" x1="585.064" y1="218.141" x2="585.064" y2="514" gradientUnits="userSpaceOnUse"><stop stop-color="#fff" stop-opacity="0"/><stop offset="1" stop-color="#fff" stop-opacity=".65"/></linearGradient><linearGradient id="paint41_linear_94_12720" x1="585.064" y1="218.141" x2="585.064" y2="514" gradientUnits="userSpaceOnUse"><stop stop-color="#fff" stop-opacity="0"/><stop offset="1" stop-color="#fff" stop-opacity=".65"/></linearGradient><linearGradient id="paint42_linear_94_12720" x1="585.064" y1="218.141" x2="585.064" y2="514" gradientUnits="userSpaceOnUse"><stop stop-color="#fff" stop-opacity="0"/><stop offset="1" stop-color="#fff" stop-opacity=".65"/></linearGradient><linearGradient id="paint43_linear_94_12720" x1="585.064" y1="218.141" x2="585.064" y2="514" gradientUnits="userSpaceOnUse"><stop stop-color="#fff" stop-opacity="0"/><stop offset="1" stop-color="#fff" stop-opacity=".65"/></linearGradient><linearGradient id="paint44_linear_94_12720" x1="585.064" y1="218.141" x2="585.064" y2="514" gradientUnits="userSpaceOnUse"><stop stop-color="#fff" stop-opacity="0"/><stop offset="1" stop-color="#fff" stop-opacity=".65"/></linearGradient><linearGradient id="paint45_linear_94_12720" x1="585.064" y1="218.141" x2="585.064" y2="514" gradientUnits="userSpaceOnUse"><stop stop-color="#fff" stop-opacity="0"/><stop offset="1" stop-color="#fff" stop-opacity=".65"/></linearGradient><linearGradient id="paint46_linear_94_12720" x1="585.064" y1="218.141" x2="585.064" y2="514" gradientUnits="userSpaceOnUse"><stop stop-color="#fff" stop-opacity="0"/><stop offset="1" stop-color="#fff" stop-opacity=".65"/></linearGradient><linearGradient id="paint47_linear_94_12720" x1="585.064" y1="218.141" x2="585.064" y2="514" gradientUnits="userSpaceOnUse"><stop stop-color="#fff" stop-opacity="0"/><stop offset="1" stop-color="#fff" stop-opacity=".65"/></linearGradient><linearGradient id="paint48_linear_94_12720" x1="585.064" y1="218.141" x2="585.064" y2="514" gradientUnits="userSpaceOnUse"><stop stop-color="#fff" stop-opacity="0"/><stop offset="1" stop-color="#fff" stop-opacity=".65"/></linearGradient><linearGradient id="paint49_linear_94_12720" x1="585.064" y1="218.141" x2="585.064" y2="514" gradientUnits="userSpaceOnUse"><stop stop-color="#fff" stop-opacity="0"/><stop offset="1" stop-color="#fff" stop-opacity=".65"/></linearGradient><linearGradient id="paint50_linear_94_12720" x1="585.064" y1="218.141" x2="585.064" y2="514" gradientUnits="userSpaceOnUse"><stop stop-color="#fff" stop-opacity="0"/><stop offset="1" stop-color="#fff" stop-opacity=".65"/></linearGradient><linearGradient id="paint51_linear_94_12720" x1="585.064" y1="218.141" x2="585.064" y2="514" gradientUnits="userSpaceOnUse"><stop stop-color="#fff" stop-opacity="0"/><stop offset="1" stop-color="#fff" stop-opacity=".65"/></linearGradient><linearGradient id="paint52_linear_94_12720" x1="585.064" y1="218.141" x2="585.064" y2="514" gradientUnits="userSpaceOnUse"><stop stop-color="#fff" stop-opacity="0"/><stop offset="1" stop-color="#fff" stop-opacity=".65"/></linearGradient><linearGradient id="paint53_linear_94_12720" x1="585.064" y1="218.141" x2="585.064" y2="514" gradientUnits="userSpaceOnUse"><stop stop-color="#fff" stop-opacity="0"/><stop offset="1" stop-color="#fff" stop-opacity=".65"/></linearGradient><linearGradient id="paint54_linear_94_12720" x1="585.064" y1="218.141" x2="585.064" y2="514" gradientUnits="userSpaceOnUse"><stop stop-color="#fff" stop-opacity="0"/><stop offset="1" stop-color="#fff" stop-opacity=".65"/></linearGradient><linearGradient id="paint55_linear_94_12720" x1="585.064" y1="218.141" x2="585.064" y2="514" gradientUnits="userSpaceOnUse"><stop stop-color="#fff" stop-opacity="0"/><stop offset="1" stop-color="#fff" stop-opacity=".65"/></linearGradient><linearGradient id="paint56_linear_94_12720" x1="585.064" y1="218.141" x2="585.064" y2="514" gradientUnits="userSpaceOnUse"><stop stop-color="#fff" stop-opacity="0"/><stop offset="1" stop-color="#fff" stop-opacity=".65"/></linearGradient><linearGradient id="paint57_linear_94_12720" x1="585.064" y1="218.141" x2="585.064" y2="514" gradientUnits="userSpaceOnUse"><stop stop-color="#fff" stop-opacity="0"/><stop offset="1" stop-color="#fff" stop-opacity=".65"/></linearGradient><linearGradient id="paint58_linear_94_12720" x1="585.064" y1="218.141" x2="585.064" y2="514" gradientUnits="userSpaceOnUse"><stop stop-color="#fff" stop-opacity="0"/><stop offset="1" stop-color="#fff" stop-opacity=".65"/></linearGradient><linearGradient id="paint59_linear_94_12720" x1="585.064" y1="218.141" x2="585.064" y2="514" gradientUnits="userSpaceOnUse"><stop stop-color="#fff" stop-opacity="0"/><stop offset="1" stop-color="#fff" stop-opacity=".65"/></linearGradient><linearGradient id="paint60_linear_94_12720" x1="585.064" y1="218.141" x2="585.064" y2="514" gradientUnits="userSpaceOnUse"><stop stop-color="#fff" stop-opacity="0"/><stop offset="1" stop-color="#fff" stop-opacity=".65"/></linearGradient><linearGradient id="paint61_linear_94_12720" x1="585.064" y1="218.141" x2="585.064" y2="514" gradientUnits="userSpaceOnUse"><stop stop-color="#fff" stop-opacity="0"/><stop offset="1" stop-color="#fff" stop-opacity=".65"/></linearGradient><linearGradient id="paint62_linear_94_12720" x1="585.064" y1="218.141" x2="585.064" y2="514" gradientUnits="userSpaceOnUse"><stop stop-color="#fff" stop-opacity="0"/><stop offset="1" stop-color="#fff" stop-opacity=".65"/></linearGradient><linearGradient id="paint63_linear_94_12720" x1="585.064" y1="218.141" x2="585.064" y2="514" gradientUnits="userSpaceOnUse"><stop stop-color="#fff" stop-opacity="0"/><stop offset="1" stop-color="#fff" stop-opacity=".65"/></linearGradient><linearGradient id="paint64_linear_94_12720" x1="585.064" y1="218.141" x2="585.064" y2="514" gradientUnits="userSpaceOnUse"><stop stop-color="#fff" stop-opacity="0"/><stop offset="1" stop-color="#fff" stop-opacity=".65"/></linearGradient><linearGradient id="paint65_linear_94_12720" x1="585.064" y1="218.141" x2="585.064" y2="514" gradientUnits="userSpaceOnUse"><stop stop-color="#fff" stop-opacity="0"/><stop offset="1" stop-color="#fff" stop-opacity=".65"/></linearGradient><linearGradient id="paint66_linear_94_12720" x1="585.064" y1="218.141" x2="585.064" y2="514" gradientUnits="userSpaceOnUse"><stop stop-color="#fff" stop-opacity="0"/><stop offset="1" stop-color="#fff" stop-opacity=".65"/></linearGradient><linearGradient id="paint67_linear_94_12720" x1="585.064" y1="218.141" x2="585.064" y2="514" gradientUnits="userSpaceOnUse"><stop stop-color="#fff" stop-opacity="0"/><stop offset="1" stop-color="#fff" stop-opacity=".65"/></linearGradient><linearGradient id="paint68_linear_94_12720" x1="585.064" y1="218.141" x2="585.064" y2="514" gradientUnits="userSpaceOnUse"><stop stop-color="#fff" stop-opacity="0"/><stop offset="1" stop-color="#fff" stop-opacity=".65"/></linearGradient><linearGradient id="paint69_linear_94_12720" x1="585.064" y1="218.141" x2="585.064" y2="514" gradientUnits="userSpaceOnUse"><stop stop-color="#fff" stop-opacity="0"/><stop offset="1" stop-color="#fff" stop-opacity=".65"/></linearGradient><linearGradient id="paint70_linear_94_12720" x1="585.064" y1="218.141" x2="585.064" y2="514" gradientUnits="userSpaceOnUse"><stop stop-color="#fff" stop-opacity="0"/><stop offset="1" stop-color="#fff" stop-opacity=".65"/></linearGradient><linearGradient id="paint71_linear_94_12720" x1="585.064" y1="218.141" x2="585.064" y2="514" gradientUnits="userSpaceOnUse"><stop stop-color="#fff" stop-opacity="0"/><stop offset="1" stop-color="#fff" stop-opacity=".65"/></linearGradient><linearGradient id="paint72_linear_94_12720" x1="585.064" y1="218.141" x2="585.064" y2="514" gradientUnits="userSpaceOnUse"><stop stop-color="#fff" stop-opacity="0"/><stop offset="1" stop-color="#fff" stop-opacity=".65"/></linearGradient><linearGradient id="paint73_linear_94_12720" x1="585.064" y1="218.141" x2="585.064" y2="514" gradientUnits="userSpaceOnUse"><stop stop-color="#fff" stop-opacity="0"/><stop offset="1" stop-color="#fff" stop-opacity=".65"/></linearGradient><linearGradient id="paint74_linear_94_12720" x1="585.064" y1="218.141" x2="585.064" y2="514" gradientUnits="userSpaceOnUse"><stop stop-color="#fff" stop-opacity="0"/><stop offset="1" stop-color="#fff" stop-opacity=".65"/></linearGradient><linearGradient id="paint75_linear_94_12720" x1="585.064" y1="218.141" x2="585.064" y2="514" gradientUnits="userSpaceOnUse"><stop stop-color="#fff" stop-opacity="0"/><stop offset="1" stop-color="#fff" stop-opacity=".65"/></linearGradient><linearGradient id="paint76_linear_94_12720" x1="585.064" y1="218.141" x2="585.064" y2="514" gradientUnits="userSpaceOnUse"><stop stop-color="#fff" stop-opacity="0"/><stop offset="1" stop-color="#fff" stop-opacity=".65"/></linearGradient><linearGradient id="paint77_linear_94_12720" x1="585.064" y1="218.141" x2="585.064" y2="514" gradientUnits="userSpaceOnUse"><stop stop-color="#fff" stop-opacity="0"/><stop offset="1" stop-color="#fff" stop-opacity=".65"/></linearGradient><linearGradient id="paint78_linear_94_12720" x1="585.064" y1="218.141" x2="585.064" y2="514" gradientUnits="userSpaceOnUse"><stop stop-color="#fff" stop-opacity="0"/><stop offset="1" stop-color="#fff" stop-opacity=".65"/></linearGradient><linearGradient id="paint79_linear_94_12720" x1="585.064" y1="218.141" x2="585.064" y2="514" gradientUnits="userSpaceOnUse"><stop stop-color="#fff" stop-opacity="0"/><stop offset="1" stop-color="#fff" stop-opacity=".65"/></linearGradient><linearGradient id="paint80_linear_94_12720" x1="585.064" y1="218.141" x2="585.064" y2="514" gradientUnits="userSpaceOnUse"><stop stop-color="#fff" stop-opacity="0"/><stop offset="1" stop-color="#fff" stop-opacity=".65"/></linearGradient><linearGradient id="paint81_linear_94_12720" x1="585.064" y1="218.141" x2="585.064" y2="514" gradientUnits="userSpaceOnUse"><stop stop-color="#fff" stop-opacity="0"/><stop offset="1" stop-color="#fff" stop-opacity=".65"/></linearGradient><linearGradient id="paint82_linear_94_12720" x1="585.064" y1="218.141" x2="585.064" y2="514" gradientUnits="userSpaceOnUse"><stop stop-color="#fff" stop-opacity="0"/><stop offset="1" stop-color="#fff" stop-opacity=".65"/></linearGradient><linearGradient id="paint83_linear_94_12720" x1="585.064" y1="218.141" x2="585.064" y2="514" gradientUnits="userSpaceOnUse"><stop stop-color="#fff" stop-opacity="0"/><stop offset="1" stop-color="#fff" stop-opacity=".65"/></linearGradient><linearGradient id="paint84_linear_94_12720" x1="585.064" y1="218.141" x2="585.064" y2="514" gradientUnits="userSpaceOnUse"><stop stop-color="#fff" stop-opacity="0"/><stop offset="1" stop-color="#fff" stop-opacity=".65"/></linearGradient><linearGradient id="paint85_linear_94_12720" x1="585.064" y1="218.141" x2="585.064" y2="514" gradientUnits="userSpaceOnUse"><stop stop-color="#fff" stop-opacity="0"/><stop offset="1" stop-color="#fff" stop-opacity=".65"/></linearGradient><linearGradient id="paint86_linear_94_12720" x1="585.064" y1="218.141" x2="585.064" y2="514" gradientUnits="userSpaceOnUse"><stop stop-color="#fff" stop-opacity="0"/><stop offset="1" stop-color="#fff" stop-opacity=".65"/></linearGradient><linearGradient id="paint87_linear_94_12720" x1="585.064" y1="218.141" x2="585.064" y2="514" gradientUnits="userSpaceOnUse"><stop stop-color="#fff" stop-opacity="0"/><stop offset="1" stop-color="#fff" stop-opacity=".65"/></linearGradient><linearGradient id="paint88_linear_94_12720" x1="585.064" y1="218.141" x2="585.064" y2="514" gradientUnits="userSpaceOnUse"><stop stop-color="#fff" stop-opacity="0"/><stop offset="1" stop-color="#fff" stop-opacity=".65"/></linearGradient><linearGradient id="paint89_linear_94_12720" x1="585.064" y1="218.141" x2="585.064" y2="514" gradientUnits="userSpaceOnUse"><stop stop-color="#fff" stop-opacity="0"/><stop offset="1" stop-color="#fff" stop-opacity=".65"/></linearGradient><linearGradient id="paint90_linear_94_12720" x1="585.064" y1="218.141" x2="585.064" y2="514" gradientUnits="userSpaceOnUse"><stop stop-color="#fff" stop-opacity="0"/><stop offset="1" stop-color="#fff" stop-opacity=".65"/></linearGradient><linearGradient id="paint91_linear_94_12720" x1="585.064" y1="218.141" x2="585.064" y2="514" gradientUnits="userSpaceOnUse"><stop stop-color="#fff" stop-opacity="0"/><stop offset="1" stop-color="#fff" stop-opacity=".65"/></linearGradient><linearGradient id="paint92_linear_94_12720" x1="585.064" y1="218.141" x2="585.064" y2="514" gradientUnits="userSpaceOnUse"><stop stop-color="#fff" stop-opacity="0"/><stop offset="1" stop-color="#fff" stop-opacity=".65"/></linearGradient><linearGradient id="paint93_linear_94_12720" x1="585.064" y1="218.141" x2="585.064" y2="514" gradientUnits="userSpaceOnUse"><stop stop-color="#fff" stop-opacity="0"/><stop offset="1" stop-color="#fff" stop-opacity=".65"/></linearGradient><linearGradient id="paint94_linear_94_12720" x1="585.064" y1="218.141" x2="585.064" y2="514" gradientUnits="userSpaceOnUse"><stop stop-color="#fff" stop-opacity="0"/><stop offset="1" stop-color="#fff" stop-opacity=".65"/></linearGradient><linearGradient id="paint95_linear_94_12720" x1="585.064" y1="218.141" x2="585.064" y2="514" gradientUnits="userSpaceOnUse"><stop stop-color="#fff" stop-opacity="0"/><stop offset="1" stop-color="#fff" stop-opacity=".65"/></linearGradient><linearGradient id="paint96_linear_94_12720" x1="585.064" y1="218.141" x2="585.064" y2="514" gradientUnits="userSpaceOnUse"><stop stop-color="#fff" stop-opacity="0"/><stop offset="1" stop-color="#fff" stop-opacity=".65"/></linearGradient><linearGradient id="paint97_linear_94_12720" x1="585.064" y1="218.141" x2="585.064" y2="514" gradientUnits="userSpaceOnUse"><stop stop-color="#fff" stop-opacity="0"/><stop offset="1" stop-color="#fff" stop-opacity=".65"/></linearGradient><linearGradient id="paint98_linear_94_12720" x1="585.064" y1="218.141" x2="585.064" y2="514" gradientUnits="userSpaceOnUse"><stop stop-color="#fff" stop-opacity="0"/><stop offset="1" stop-color="#fff" stop-opacity=".65"/></linearGradient><linearGradient id="paint99_linear_94_12720" x1="585.064" y1="218.141" x2="585.064" y2="514" gradientUnits="userSpaceOnUse"><stop stop-color="#fff" stop-opacity="0"/><stop offset="1" stop-color="#fff" stop-opacity=".65"/></linearGradient><linearGradient id="paint100_linear_94_12720" x1="585.064" y1="218.141" x2="585.064" y2="514" gradientUnits="userSpaceOnUse"><stop stop-color="#fff" stop-opacity="0"/><stop offset="1" stop-color="#fff" stop-opacity=".65"/></linearGradient><linearGradient id="paint101_linear_94_12720" x1="585.064" y1="218.141" x2="585.064" y2="514" gradientUnits="userSpaceOnUse"><stop stop-color="#fff" stop-opacity="0"/><stop offset="1" stop-color="#fff" stop-opacity=".65"/></linearGradient><linearGradient id="paint102_linear_94_12720" x1="585.064" y1="218.141" x2="585.064" y2="514" gradientUnits="userSpaceOnUse"><stop stop-color="#fff" stop-opacity="0"/><stop offset="1" stop-color="#fff" stop-opacity=".65"/></linearGradient><linearGradient id="paint103_linear_94_12720" x1="585.064" y1="218.141" x2="585.064" y2="514" gradientUnits="userSpaceOnUse"><stop stop-color="#fff" stop-opacity="0"/><stop offset="1" stop-color="#fff" stop-opacity=".65"/></linearGradient><linearGradient id="paint104_linear_94_12720" x1="585.064" y1="218.141" x2="585.064" y2="514" gradientUnits="userSpaceOnUse"><stop stop-color="#fff" stop-opacity="0"/><stop offset="1" stop-color="#fff" stop-opacity=".65"/></linearGradient><linearGradient id="paint105_linear_94_12720" x1="585.064" y1="218.141" x2="585.064" y2="514" gradientUnits="userSpaceOnUse"><stop stop-color="#fff" stop-opacity="0"/><stop offset="1" stop-color="#fff" stop-opacity=".65"/></linearGradient><linearGradient id="paint106_linear_94_12720" x1="585.064" y1="218.141" x2="585.064" y2="514" gradientUnits="userSpaceOnUse"><stop stop-color="#fff" stop-opacity="0"/><stop offset="1" stop-color="#fff" stop-opacity=".65"/></linearGradient><linearGradient id="paint107_linear_94_12720" x1="585.064" y1="218.141" x2="585.064" y2="514" gradientUnits="userSpaceOnUse"><stop stop-color="#fff" stop-opacity="0"/><stop offset="1" stop-color="#fff" stop-opacity=".65"/></linearGradient><linearGradient id="paint108_linear_94_12720" x1="585.064" y1="218.141" x2="585.064" y2="514" gradientUnits="userSpaceOnUse"><stop stop-color="#fff" stop-opacity="0"/><stop offset="1" stop-color="#fff" stop-opacity=".65"/></linearGradient><linearGradient id="paint109_linear_94_12720" x1="585.064" y1="218.141" x2="585.064" y2="514" gradientUnits="userSpaceOnUse"><stop stop-color="#fff" stop-opacity="0"/><stop offset="1" stop-color="#fff" stop-opacity=".65"/></linearGradient><linearGradient id="paint110_linear_94_12720" x1="585.064" y1="218.141" x2="585.064" y2="514" gradientUnits="userSpaceOnUse"><stop stop-color="#fff" stop-opacity="0"/><stop offset="1" stop-color="#fff" stop-opacity=".65"/></linearGradient><linearGradient id="paint111_linear_94_12720" x1="585.064" y1="218.141" x2="585.064" y2="514" gradientUnits="userSpaceOnUse"><stop stop-color="#fff" stop-opacity="0"/><stop offset="1" stop-color="#fff" stop-opacity=".65"/></linearGradient><linearGradient id="paint112_linear_94_12720" x1="585.064" y1="218.141" x2="585.064" y2="514" gradientUnits="userSpaceOnUse"><stop stop-color="#fff" stop-opacity="0"/><stop offset="1" stop-color="#fff" stop-opacity=".65"/></linearGradient><linearGradient id="paint113_linear_94_12720" x1="585.064" y1="218.141" x2="585.064" y2="514" gradientUnits="userSpaceOnUse"><stop stop-color="#fff" stop-opacity="0"/><stop offset="1" stop-color="#fff" stop-opacity=".65"/></linearGradient><linearGradient id="paint114_linear_94_12720" x1="585.064" y1="218.141" x2="585.064" y2="514" gradientUnits="userSpaceOnUse"><stop stop-color="#fff" stop-opacity="0"/><stop offset="1" stop-color="#fff" stop-opacity=".65"/></linearGradient><linearGradient id="paint115_linear_94_12720" x1="585.064" y1="218.141" x2="585.064" y2="514" gradientUnits="userSpaceOnUse"><stop stop-color="#fff" stop-opacity="0"/><stop offset="1" stop-color="#fff" stop-opacity=".65"/></linearGradient><linearGradient id="paint116_linear_94_12720" x1="585.064" y1="218.141" x2="585.064" y2="514" gradientUnits="userSpaceOnUse"><stop stop-color="#fff" stop-opacity="0"/><stop offset="1" stop-color="#fff" stop-opacity=".65"/></linearGradient><linearGradient id="paint117_linear_94_12720" x1="585.064" y1="218.141" x2="585.064" y2="514" gradientUnits="userSpaceOnUse"><stop stop-color="#fff" stop-opacity="0"/><stop offset="1" stop-color="#fff" stop-opacity=".65"/></linearGradient><linearGradient id="paint118_linear_94_12720" x1="585.064" y1="218.141" x2="585.064" y2="514" gradientUnits="userSpaceOnUse"><stop stop-color="#fff" stop-opacity="0"/><stop offset="1" stop-color="#fff" stop-opacity=".65"/></linearGradient><linearGradient id="paint119_linear_94_12720" x1="585.064" y1="218.141" x2="585.064" y2="514" gradientUnits="userSpaceOnUse"><stop stop-color="#fff" stop-opacity="0"/><stop offset="1" stop-color="#fff" stop-opacity=".65"/></linearGradient></defs></svg>