<svg width="33" height="32" fill="none" xmlns="http://www.w3.org/2000/svg"><g clip-path="url(#clip0_272_6409)"><path d="M16.008.9C7.658.9.908 7.65.908 16s6.75 15.15 15.1 15.15 15.15-6.8 15.15-15.15c0-8.35-6.8-15.1-15.15-15.1zm0 28c-7.1 0-12.85-5.8-12.85-12.9 0-7.1 5.75-12.85 12.85-12.85s12.9 5.8 12.9 12.9c0 7.05-5.8 12.85-12.9 12.85z" fill="url(#paint0_linear_272_6409)"/><path d="M20.307 11.35l-5.95 5.8-2.7-2.65c-.45-.45-1.15-.4-1.6 0-.45.45-.4 1.15 0 1.6l3.2 3.1c.3.3.7.45 1.1.45.4 0 .8-.15 1.1-.45l6.45-6.2c.45-.45.45-1.15 0-1.6-.45-.45-1.15-.45-1.6-.05z" fill="url(#paint1_linear_272_6409)"/></g><defs><linearGradient id="paint0_linear_272_6409" x1="16.033" y1=".901" x2="16.033" y2="37.55" gradientUnits="userSpaceOnUse"><stop stop-color="#fff"/><stop offset=".745" stop-color="#fff" stop-opacity=".365"/><stop offset="1" stop-color="#fff" stop-opacity="0"/></linearGradient><linearGradient id="paint1_linear_272_6409" x1="15.992" y1="11.056" x2="15.992" y2="21.469" gradientUnits="userSpaceOnUse"><stop stop-color="#fff"/><stop offset=".745" stop-color="#fff" stop-opacity=".365"/><stop offset="1" stop-color="#fff" stop-opacity="0"/></linearGradient><clipPath id="clip0_272_6409"><path fill="#fff" transform="translate(.008)" d="M0 0h32v32H0z"/></clipPath></defs></svg>