<svg width="32" height="32" fill="none" xmlns="http://www.w3.org/2000/svg"><path d="M5.8 4.45h20.35c.6 0 1.15-.5 1.15-1.15 0-.65-.5-1.15-1.15-1.15H5.8c-.6 0-1.15.5-1.15 1.15 0 .65.55 1.15 1.15 1.15z" fill="url(#paint0_linear_272_9895)"/><path d="M3.9 12.9h24.2c.6 0 1.15-.5 1.15-1.15 0-.65-.5-1.15-1.15-1.15H3.9c-.6 0-1.15.5-1.15 1.15 0 .65.55 1.15 1.15 1.15z" fill="url(#paint1_linear_272_9895)"/><path d="M7.75 19.1c-.6 0-1.15.5-1.15 1.15 0 .65.5 1.15 1.15 1.15H24.3c.6 0 1.15-.5 1.15-1.15 0-.65-.5-1.15-1.15-1.15H7.75z" fill="url(#paint2_linear_272_9895)"/><path d="M30 27.55H2c-.6 0-1.15.5-1.15 1.15 0 .65.5 1.15 1.15 1.15h28c.6 0 1.15-.5 1.15-1.15 0-.65-.55-1.15-1.15-1.15z" fill="url(#paint3_linear_272_9895)"/><defs><linearGradient id="paint0_linear_272_9895" x1="15.974" y1="2.15" x2="15.974" y2="4.937" gradientUnits="userSpaceOnUse"><stop stop-color="#fff"/><stop offset=".745" stop-color="#fff" stop-opacity=".365"/><stop offset="1" stop-color="#fff" stop-opacity="0"/></linearGradient><linearGradient id="paint1_linear_272_9895" x1="16" y1="10.6" x2="16" y2="13.387" gradientUnits="userSpaceOnUse"><stop stop-color="#fff"/><stop offset=".745" stop-color="#fff" stop-opacity=".365"/><stop offset="1" stop-color="#fff" stop-opacity="0"/></linearGradient><linearGradient id="paint2_linear_272_9895" x1="16.025" y1="19.1" x2="16.025" y2="21.887" gradientUnits="userSpaceOnUse"><stop stop-color="#fff"/><stop offset=".745" stop-color="#fff" stop-opacity=".365"/><stop offset="1" stop-color="#fff" stop-opacity="0"/></linearGradient><linearGradient id="paint3_linear_272_9895" x1="16" y1="27.55" x2="16" y2="30.337" gradientUnits="userSpaceOnUse"><stop stop-color="#fff"/><stop offset=".745" stop-color="#fff" stop-opacity=".365"/><stop offset="1" stop-color="#fff" stop-opacity="0"/></linearGradient></defs></svg>