<svg width="32" height="32" fill="none" xmlns="http://www.w3.org/2000/svg"><path d="M26.55 5.15H25.4V4c0-1.7-1.4-3.15-3.15-3.15H7.15C5.4.9 4 2.3 4 4v17.1c0 .65.25 1.25.7 1.75l7.3 7.5c.45.5 1.1.75 1.8.75h9.15c1.35 0 2.5-1.1 2.5-2.5v-.45l2.4-4.85c.1-.15.1-.3.1-.5L28 6.6c0-.75-.65-1.4-1.45-1.45zm-.8 4.05h-2.8V7.35h2.8V9.2zM22.2 7.4c.05 0 .05 0 0 0 .05 0 .05 0 0 0zM11.9 27l-4.1-4.2h4.1V27zm11.05 1.9h-8.8v-6.95c0-.8-.65-1.4-1.4-1.4h-6.5V4c0-.5.4-.9.9-.9h15.2c.5 0 .9.4.9.9v1.1h-1c-.85 0-1.5.65-1.5 1.45L20.7 22.8c0 .2.05.35.1.5l2.45 4.85v.45c-.05.15-.15.3-.3.3zm1.35-3.5l-1.4-2.85v-11.1h2.8v11.1l-1.4 2.85z" fill="url(#paint0_linear_39_11142)"/><defs><linearGradient id="paint0_linear_39_11142" x1="16" y1=".85" x2="16" y2="37.5" gradientUnits="userSpaceOnUse"><stop stop-color="#fff"/><stop offset=".745" stop-color="#fff" stop-opacity=".365"/><stop offset="1" stop-color="#fff" stop-opacity="0"/></linearGradient></defs></svg>