<svg width="32" height="32" fill="none" xmlns="http://www.w3.org/2000/svg"><path d="M2 9.95c-.6 0-1.15.5-1.15 1.15v9.85c0 .6.5 1.15 1.15 1.15.65 0 1.15-.5 1.15-1.15V11.1c0-.65-.55-1.15-1.15-1.15z" fill="url(#paint0_linear_272_12172)"/><path d="M7.6 7.3c-.6 0-1.15.5-1.15 1.15V23.6c0 .6.5 1.15 1.15 1.15.65 0 1.15-.5 1.15-1.15V8.4c0-.6-.55-1.1-1.15-1.1z" fill="url(#paint1_linear_272_12172)"/><path d="M13.199 2.15c-.6 0-1.15.5-1.15 1.15v25.45c0 .6.5 1.15 1.15 1.15.65 0 1.15-.5 1.15-1.15V3.3c-.05-.65-.55-1.15-1.15-1.15z" fill="url(#paint2_linear_272_12172)"/><path d="M18.8 10.3c-.6 0-1.15.5-1.15 1.15v9.2c0 .6.5 1.15 1.15 1.15.65 0 1.15-.5 1.15-1.15V11.4c-.05-.6-.55-1.1-1.15-1.1z" fill="url(#paint3_linear_272_12172)"/><path d="M24.4 6.2c-.6 0-1.15.5-1.15 1.15v17.3c0 .6.5 1.15 1.15 1.15.65 0 1.15-.5 1.15-1.15V7.35C25.5 6.7 25 6.2 24.4 6.2z" fill="url(#paint4_linear_272_12172)"/><path d="M30 12.2c-.6 0-1.15.5-1.15 1.15v5.35c0 .6.5 1.15 1.15 1.15.65 0 1.15-.5 1.15-1.15v-5.4c0-.6-.55-1.1-1.15-1.1z" fill="url(#paint5_linear_272_12172)"/><defs><linearGradient id="paint0_linear_272_12172" x1="2" y1="9.95" x2="2" y2="24.671" gradientUnits="userSpaceOnUse"><stop stop-color="#fff"/><stop offset=".745" stop-color="#fff" stop-opacity=".365"/><stop offset="1" stop-color="#fff" stop-opacity="0"/></linearGradient><linearGradient id="paint1_linear_272_12172" x1="7.599" y1="7.3" x2="7.599" y2="28.442" gradientUnits="userSpaceOnUse"><stop stop-color="#fff"/><stop offset=".745" stop-color="#fff" stop-opacity=".365"/><stop offset="1" stop-color="#fff" stop-opacity="0"/></linearGradient><linearGradient id="paint2_linear_272_12172" x1="13.199" y1="2.15" x2="13.199" y2="35.771" gradientUnits="userSpaceOnUse"><stop stop-color="#fff"/><stop offset=".745" stop-color="#fff" stop-opacity=".365"/><stop offset="1" stop-color="#fff" stop-opacity="0"/></linearGradient><linearGradient id="paint3_linear_272_12172" x1="18.8" y1="10.3" x2="18.8" y2="24.233" gradientUnits="userSpaceOnUse"><stop stop-color="#fff"/><stop offset=".745" stop-color="#fff" stop-opacity=".365"/><stop offset="1" stop-color="#fff" stop-opacity="0"/></linearGradient><linearGradient id="paint4_linear_272_12172" x1="24.4" y1="6.2" x2="24.4" y2="29.947" gradientUnits="userSpaceOnUse"><stop stop-color="#fff"/><stop offset=".745" stop-color="#fff" stop-opacity=".365"/><stop offset="1" stop-color="#fff" stop-opacity="0"/></linearGradient><linearGradient id="paint5_linear_272_12172" x1="30" y1="12.2" x2="30" y2="21.468" gradientUnits="userSpaceOnUse"><stop stop-color="#fff"/><stop offset=".745" stop-color="#fff" stop-opacity=".365"/><stop offset="1" stop-color="#fff" stop-opacity="0"/></linearGradient></defs></svg>