<svg width="32" height="32" fill="none" xmlns="http://www.w3.org/2000/svg"><g clip-path="url(#clip0_272_5978)"><path d="M16.2.9c-4 0-7.75 1.55-10.55 4.35C1.05 9.9 0 17.05 3.05 22.8l-2.1 6.85c-.1.4 0 .85.3 1.15.2.2.5.3.8.3.1 0 .25 0 .35-.05l6.6-2.2c4.55 2.55 9.95 2.5 14.55-.1 4.75-2.7 7.6-7.55 7.6-12.95C31.15 7.6 24.45.9 16.2.9zm6.25 25.9c-4 2.3-8.8 2.2-12.75-.15-.2-.1-.4-.15-.6-.15-.1 0-.25 0-.35.05L3.7 28.2 5.35 23c.1-.3.05-.6-.1-.9-2.85-4.95-2-11.2 2.05-15.25 2.4-2.4 5.55-3.7 8.95-3.7 7 0 12.65 5.7 12.65 12.65 0 4.6-2.45 8.7-6.45 11z" fill="url(#paint0_linear_272_5978)"/><path d="M20.35 10.35H12.1c-.6 0-1.15.5-1.15 1.15 0 .65.5 1.15 1.15 1.15h8.25c.6 0 1.15-.5 1.15-1.15 0-.65-.55-1.15-1.15-1.15z" fill="url(#paint1_linear_272_5978)"/><path d="M20.35 14.8H12.1c-.6 0-1.15.5-1.15 1.15 0 .65.5 1.1 1.15 1.1h8.25c.6 0 1.15-.5 1.15-1.1 0-.6-.55-1.15-1.15-1.15z" fill="url(#paint2_linear_272_5978)"/><path d="M20.35 19H12.1c-.6 0-1.1.5-1.1 1.1 0 .6.5 1.15 1.15 1.15h8.25c.6 0 1.15-.5 1.15-1.15 0-.65-.6-1.1-1.2-1.1z" fill="url(#paint3_linear_272_5978)"/></g><defs><linearGradient id="paint0_linear_272_5978" x1="16.031" y1=".9" x2="16.031" y2="37.489" gradientUnits="userSpaceOnUse"><stop stop-color="#fff"/><stop offset=".745" stop-color="#fff" stop-opacity=".365"/><stop offset="1" stop-color="#fff" stop-opacity="0"/></linearGradient><linearGradient id="paint1_linear_272_5978" x1="16.224" y1="10.35" x2="16.224" y2="13.137" gradientUnits="userSpaceOnUse"><stop stop-color="#fff"/><stop offset=".745" stop-color="#fff" stop-opacity=".365"/><stop offset="1" stop-color="#fff" stop-opacity="0"/></linearGradient><linearGradient id="paint2_linear_272_5978" x1="16.224" y1="14.8" x2="16.224" y2="17.526" gradientUnits="userSpaceOnUse"><stop stop-color="#fff"/><stop offset=".745" stop-color="#fff" stop-opacity=".365"/><stop offset="1" stop-color="#fff" stop-opacity="0"/></linearGradient><linearGradient id="paint3_linear_272_5978" x1="16.275" y1="19" x2="16.275" y2="21.726" gradientUnits="userSpaceOnUse"><stop stop-color="#fff"/><stop offset=".745" stop-color="#fff" stop-opacity=".365"/><stop offset="1" stop-color="#fff" stop-opacity="0"/></linearGradient><clipPath id="clip0_272_5978"><path fill="#fff" d="M0 0h32v32H0z"/></clipPath></defs></svg>