<svg width="17" height="16" fill="none" xmlns="http://www.w3.org/2000/svg"><path d="M5.728 5.059a.397.397 0 01.744 0l1.279 3.456c.04.108.126.194.234.234l3.456 1.279a.397.397 0 010 .744l-3.456 1.279a.397.397 0 00-.234.234l-1.279 3.456a.397.397 0 01-.744 0l-1.279-3.456a.397.397 0 00-.234-.234L.759 10.772a.397.397 0 010-.744l3.456-1.279a.397.397 0 00.234-.234l1.279-3.456z" fill="url(#paint0_linear_484_5398)"/><path d="M5.728 5.059a.397.397 0 01.744 0l1.279 3.456c.04.108.126.194.234.234l3.456 1.279a.397.397 0 010 .744l-3.456 1.279a.397.397 0 00-.234.234l-1.279 3.456a.397.397 0 01-.744 0l-1.279-3.456a.397.397 0 00-.234-.234L.759 10.772a.397.397 0 010-.744l3.456-1.279a.397.397 0 00.234-.234l1.279-3.456z" fill="#fff" fill-opacity=".4"/><path d="M9.732.256a.392.392 0 01.736 0l.417 1.127c.04.108.124.192.232.232l1.127.417a.392.392 0 010 .736l-1.127.417a.392.392 0 00-.232.232l-.417 1.127a.392.392 0 01-.736 0l-.417-1.127a.392.392 0 00-.232-.232l-1.127-.417a.392.392 0 010-.736l1.127-.417a.392.392 0 00.232-.232L9.732.256z" fill="url(#paint1_linear_484_5398)"/><path d="M9.732.256a.392.392 0 01.736 0l.417 1.127c.04.108.124.192.232.232l1.127.417a.392.392 0 010 .736l-1.127.417a.392.392 0 00-.232.232l-.417 1.127a.392.392 0 01-.736 0l-.417-1.127a.392.392 0 00-.232-.232l-1.127-.417a.392.392 0 010-.736l1.127-.417a.392.392 0 00.232-.232L9.732.256z" fill="#fff" fill-opacity=".4"/><path d="M14.655 5.77a.262.262 0 01.49 0l.278.752a.262.262 0 00.155.155l.751.278a.262.262 0 010 .49l-.751.278a.262.262 0 00-.155.155l-.278.751a.262.262 0 01-.49 0l-.278-.751a.262.262 0 00-.155-.155l-.751-.278a.262.262 0 010-.49l.751-.278a.262.262 0 00.155-.155l.278-.751z" fill="url(#paint2_linear_484_5398)"/><path d="M14.655 5.77a.262.262 0 01.49 0l.278.752a.262.262 0 00.155.155l.751.278a.262.262 0 010 .49l-.751.278a.262.262 0 00-.155.155l-.278.751a.262.262 0 01-.49 0l-.278-.751a.262.262 0 00-.155-.155l-.751-.278a.262.262 0 010-.49l.751-.278a.262.262 0 00.155-.155l.278-.751z" fill="#fff" fill-opacity=".4"/><defs><linearGradient id="paint0_linear_484_5398" x1=".5" y1="0" x2="16.5" y2="0" gradientUnits="userSpaceOnUse"><stop offset="0" stop-color="#E59CFF"/><stop offset=".5" stop-color="#BA9CFF"/><stop offset="1" stop-color="#9CB2FF"/></linearGradient><linearGradient id="paint1_linear_484_5398" x1=".5" y1="0" x2="16.5" y2="0" gradientUnits="userSpaceOnUse"><stop offset="0" stop-color="#E59CFF"/><stop offset=".5" stop-color="#BA9CFF"/><stop offset="1" stop-color="#9CB2FF"/></linearGradient><linearGradient id="paint2_linear_484_5398" x1=".5" y1="0" x2="16.5" y2="0" gradientUnits="userSpaceOnUse"><stop offset="0" stop-color="#E59CFF"/><stop offset=".5" stop-color="#BA9CFF"/><stop offset="1" stop-color="#9CB2FF"/></linearGradient></defs></svg>