<svg width="32" height="32" fill="none" xmlns="http://www.w3.org/2000/svg"><path d="M9.333 11a1 1 0 100 2H16a1 1 0 000-2H9.333z" fill="url(#paint0_linear_39_11181)"/><path d="M9.333 16.333a1 1 0 000 2H20a1 1 0 000-2H9.333z" fill="url(#paint1_linear_39_11181)"/><path d="M14.667 1.667c-7.18 0-13 5.82-13 13s5.82 13 13 13c3.23 0 6.185-1.179 8.458-3.128l5.502 5.501a1 1 0 101.414-1.414l-5.502-5.501a12.952 12.952 0 003.128-8.458c0-7.18-5.82-13-13-13zm-11 13c0-6.075 4.925-11 11-11s11 4.925 11 11c0 3.037-1.23 5.786-3.222 7.778a10.962 10.962 0 01-7.778 3.222c-6.075 0-11-4.925-11-11z" fill="url(#paint2_linear_39_11181)"/><defs><linearGradient id="paint0_linear_39_11181" x1="12.666" y1="11" x2="12.666" y2="13.423" gradientUnits="userSpaceOnUse"><stop stop-color="#fff"/><stop offset=".745" stop-color="#fff" stop-opacity=".365"/><stop offset="1" stop-color="#fff" stop-opacity="0"/></linearGradient><linearGradient id="paint1_linear_39_11181" x1="14.666" y1="16.333" x2="14.666" y2="18.756" gradientUnits="userSpaceOnUse"><stop stop-color="#fff"/><stop offset=".745" stop-color="#fff" stop-opacity=".365"/><stop offset="1" stop-color="#fff" stop-opacity="0"/></linearGradient><linearGradient id="paint2_linear_39_11181" x1="16" y1="1.667" x2="16" y2="36.398" gradientUnits="userSpaceOnUse"><stop stop-color="#fff"/><stop offset=".745" stop-color="#fff" stop-opacity=".365"/><stop offset="1" stop-color="#fff" stop-opacity="0"/></linearGradient></defs></svg>