<svg width="32" height="32" fill="none" xmlns="http://www.w3.org/2000/svg"><path d="M4.2 14.5c.15 0 .35-.05.5-.1l5.55-1.95c.6-.2.9-.85.7-1.45-.2-.6-.85-.9-1.45-.7l-3.45 1.2C7.7 7.2 11.9 4.3 16.7 4.3c5.25 0 9.8 3.5 11.1 8.5.15.6.75.95 1.35.8.6-.15.95-.75.8-1.35-1.55-6-7-10.2-13.3-10.2-5.6 0-10.55 3.3-12.6 8.25L3 7.3c-.2-.6-.85-.9-1.45-.7-.6.2-.9.85-.7 1.45l1.9 5.45c.3.65.85 1 1.45 1z" fill="url(#paint0_linear_39_11172)"/><path d="M31.05 24.85L29 19.5c-.15-.35-.4-.65-.75-.8a1.4 1.4 0 00-1.1 0l-5.5 2.1c-.6.2-.85.85-.65 1.45.2.6.85.85 1.45.65l3.45-1.3c-2 3.65-5.9 6.05-10.25 6.05-4.95 0-9.3-3.1-10.85-7.7-.2-.6-.85-.9-1.4-.7-.6.2-.9.85-.7 1.4 1.85 5.5 7.05 9.2 12.95 9.2 5.15 0 9.8-2.85 12.15-7.25l1.15 3.05c.15.45.6.7 1.05.7.15 0 .25 0 .4-.1.6-.15.85-.8.65-1.4z" fill="url(#paint1_linear_39_11172)"/><defs><linearGradient id="paint0_linear_39_11172" x1="15.387" y1="2.05" x2="15.387" y2="17.134" gradientUnits="userSpaceOnUse"><stop stop-color="#fff"/><stop offset=".745" stop-color="#fff" stop-opacity=".365"/><stop offset="1" stop-color="#fff" stop-opacity="0"/></linearGradient><linearGradient id="paint1_linear_39_11172" x1="16.878" y1="18.587" x2="16.878" y2="32.233" gradientUnits="userSpaceOnUse"><stop stop-color="#fff"/><stop offset=".745" stop-color="#fff" stop-opacity=".365"/><stop offset="1" stop-color="#fff" stop-opacity="0"/></linearGradient></defs></svg>