<svg width="164" height="36" fill="none" xmlns="http://www.w3.org/2000/svg"><path fill-rule="evenodd" clip-rule="evenodd" d="M38.348 4.696H18C10.652 4.696 4.696 10.652 4.696 18S10.652 31.304 18 31.304h20.348c7.348 0 13.304-5.956 13.304-13.304S45.696 4.696 38.348 4.696zM18 0C8.059 0 0 8.059 0 18s8.059 18 18 18h20.348c9.941 0 18-8.059 18-18s-8.059-18-18-18H18z" fill="url(#paint0_linear_478_10567)"/><path d="M24.26 18A3.13 3.13 0 1118 18a3.13 3.13 0 016.26 0z" fill="url(#paint1_linear_478_10567)"/><path d="M38.35 18a3.13 3.13 0 11-6.26 0 3.13 3.13 0 016.26 0z" fill="url(#paint2_linear_478_10567)"/><path d="M75.57 29.619h-4.222l8.38-23.206h4.16l8.38 23.206h-4.285l-1.873-5.365h-8.667l-1.873 5.365zm5.714-16.286l-2.635 7.492h6.286l-2.667-7.492c-.19-.603-.412-1.301-.476-1.777a16.214 16.214 0 01-.508 1.777zm16.9-6.92v23.206H94.12V6.413h4.064zm9.552 3.746V6.413h17.651v3.746h-6.794v19.46h-4.063v-19.46h-6.794zm15.541 11.587c0-4.889 3.523-8.254 8.381-8.254 4.857 0 8.38 3.365 8.38 8.254 0 4.889-3.523 8.254-8.38 8.254-4.858 0-8.381-3.365-8.381-8.254zm3.873 0c0 2.857 1.841 4.794 4.508 4.794 2.666 0 4.507-1.937 4.507-4.794 0-2.857-1.841-4.794-4.507-4.794-2.667 0-4.508 1.937-4.508 4.794zm13.98 0c0-4.889 3.523-8.254 8.381-8.254 4.857 0 8.38 3.365 8.38 8.254 0 4.889-3.523 8.254-8.38 8.254-4.858 0-8.381-3.365-8.381-8.254zm3.873 0c0 2.857 1.841 4.794 4.508 4.794 2.666 0 4.507-1.937 4.507-4.794 0-2.857-1.841-4.794-4.507-4.794-2.667 0-4.508 1.937-4.508 4.794zm18.805 7.873h-3.841V6h3.841v23.619z" fill="#fff"/><defs><linearGradient id="paint0_linear_478_10567" x1="54" y1="2.739" x2="0" y2="31.696" gradientUnits="userSpaceOnUse"><stop stop-color="#701EFC"/><stop offset="1" stop-color="#CBB3F3"/></linearGradient><linearGradient id="paint1_linear_478_10567" x1="24.686" y1="15.428" x2="17.203" y2="17.495" gradientUnits="userSpaceOnUse"><stop stop-color="#ECE0FF"/><stop offset="1" stop-color="#7C3AED"/></linearGradient><linearGradient id="paint2_linear_478_10567" x1="38.056" y1="20.057" x2="34.066" y2="14.403" gradientUnits="userSpaceOnUse"><stop stop-color="#7C3AED"/><stop offset="1" stop-color="#ECE0FF"/></linearGradient></defs></svg>