<svg xmlns="http://www.w3.org/2000/svg" width="1500" viewBox="0 0 1125 375" height="500" version="1.0"><defs><clipPath id="a"><path d="M38 44h304.75v293.18H38zm0 0"/></clipPath></defs><g clip-path="url(#a)"><path fill="#5271ff" d="M125.035 46.5c1.383-.93 2.598-2.563 4.469-2.094-.953 2.098-3.117 3.258-4.2 5.258C119.81 64.062 109.638 64.5 109.11 71.23c4.18-2.433 8.047-5.414 12.352-7.668 1.39-.648 2.535-1.69 3.398-2.945 9.73-13.207 25.723-15.93 41.657-12.043.879.098 1.14.88 1.347 1.617-2.472.344-4.988.227-7.449.59-9.879 2.914-12.539 15.977-28.531 13.403-2.242.066-4.434-.579-6.66-.547-4.809 2.375-14.516 8.468-16.778 10.836 1.606.863 3.465.605 5.211.511 2.739-.328 4.922-2.105 7.305-3.312 7.89-4.113 8.41-3.035 18.977-1.727 3.792.77 7.671.118 11.5.313-.07.234-.215.715-.29.953-2.152.758-4.449.86-6.68 1.227-4.468 1.667-8.292 4.89-12.968 6.03-9.133.2-18.215-1.218-27.34-.886-6.191 5.047-12.14 10.445-17.246 16.617 3.746 2.395 10.34-4.91 13.379-6.832 2.617-1.93 5.879-2.719 9.082-2.781 16.27-1.434 7.543-.281 17.617-2.469-.008.317-.023.95-.027 1.266-1.985.957-4.168 1.406-6.156 2.344-3.672 2.003-8.954 8.066-12.54 8.523-26.75 4.125-23.578 2.805-25.214 4.598-5.184 6.37-11.711 16.523-12.43 19.027 5.36-.086 8.883-9.387 14.074-12.05 6.508-3.638 9.422-1.669 22.016-7.864.035.305.11.918.14 1.223-1.953 1.808-4.73 2.46-6.543 4.457-4.214 4.629-6.226 8.52-10.015 10.023-23.461 8.512-21.68 7.258-22.844 9.875-3.023 6.691-5.988 13.492-7.672 20.66 4.07.149 6.27-9.48 10.848-14.172 4.766-4.12 11.133-5.55 16.219-9.172 1.53-1.062 2.98-2.246 4.523-3.3.035.629.336 1.37-.242 1.86-1.484 1.71-3.602 2.792-4.875 4.706-2.54 3.836-3.902 8.531-7.363 11.707-6.45 4.164-19.055 11.66-20.586 13.508-1.547 6.34-2.41 12.816-3.215 19.281 3.152-.39 3.574-9.5 7.625-14.926 3.902-4.386 9.476-6.718 13.762-10.664 1.09-1 1.16-2.765 2.546-3.507.16 2.203-1.605 3.835-2.011 5.906-2.895 13.664-5.813 12.644-18.157 24.547-1.27 1.265-2.824 2.257-3.859 3.742-.348 4.168-.184 16.965.914 21.851h.781c.922-1.586 1.735-3.347 1.692-5.222.066-13.215 2.586-11.746 12.242-22.492 1.45-1.27 1.906-3.188 2.344-4.977l.812-.262c.262 2.14-1.058 4.004-1.054 6.11-.7 13.843-2.364 8.52-16.196 30.761.836 7.133 2.817 14.13 5.028 20.961.14.88 1.57.39 1.53-.363.766-3.668-.109-7.387-.448-11.047-.121-1.277-.754-2.582-.246-3.855 1.667-6.055 6.289-10.63 8.816-16.266.64-1.23-.207-3.191 1.11-3.953 1.917 24.453 2.187 9.293-8.286 38.21-.226.798-.7 1.63-.472 2.474 2.433 6.792 5.878 13.164 9.37 19.453.192.054.57.175.758.238.196-2.117.414-4.375-.496-6.363-5.297-12.293-2.035-12.063 2.47-26.86.48-1.8-.231-3.656.198-5.46.684 1.011 1.227 2.144 1.246 3.39.286 4.203 5.286 13.43 2.903 19.004-2.297 6.25-3.41 12.84-4.91 19.3 5.21 8.383 13.293 18.145 15.421 19.583.536-5.352-6.37-11.524-6.558-17.211.129-5.324 1.594-10.528 1.91-15.84.227-1.691-.664-3.203-.848-4.84 2.22 1.027 1.961 4.024 3.153 5.875 7.75 11.555 5.773 20.82 4.64 32.875.012.664-.39 1.527.254 2.031 1.961 1.95 14.95 14.352 17.551 14.282.066-4.559-6.39-10.051-9.176-13.973-2.777-5.223-1.465-11.32-2.293-16.938-.117-1.824-1.664-3.156-1.742-4.984 2.113 1.531 2.727 4.254 4.594 6.012 3.543 3.511 6 7.945 7.972 12.488 1.235 3.957 1.383 8.133 2.032 12.203.558 8.863 1.031 7.29 3.543 9.227 5.27 3.285 10.644 6.484 16.343 8.965-.156-.622-.039-1.375-.492-1.872-2.683-3.171-6.66-4.789-9.691-7.543-3.653-5.011-5.477-16.625-6.988-20.257-.684-1.23-1.747-2.192-2.434-3.422 1.77.148 2.66 1.82 3.766 2.98 1.293 1.555 7.89 5.485 11.586 12.301 3.394 7.578 5.921 18.848 8.84 20 6.921 2.941 14.077 5.363 21.382 7.164.07-.293.215-.875.293-1.164-1.844-2.93-7.617-4.719-12.91-7.707-5.809-3.254-5.426-8.95-9.637-15.144-1.18-1.922-3.824-2.54-4.547-4.805 2.61.363 4.489 2.383 6.727 3.586 2.508 1.547 5.367 2.457 7.773 4.18 7.579 6.175 10.688 16.226 18.356 22.304 3.101.79 15.535 2.719 17.77 2.317-.047-3.7-8.07-3.61-13.919-7.106-5.058-3.367-6.066-10.516-11.601-13.336-.844-.476-1.594-1.105-2.094-1.937 2.406.199 4.578 1.437 6.89 2.074 3.282 1.234 6.989 1.383 9.966 3.375 6.582 4.41 9.601 12.336 15.937 17.031 1.063.508 2.332.227 3.48.32 1.383-.117 2.993.305 4.172-.636 2.102-1.364 3.372-3.598 5.118-5.336 11.984-15.473 11.464-11.551 20.21-14.723 2.297-.762 4.528-1.855 6.958-2.105-.914 1.796-3.133 2.191-4.485 3.566-3.394 3.418-4.844 8.406-8.746 11.39-3.781 2.633-8.57 2.993-12.625 5.028-.937.367-1.426 1.262-1.957 2.047 1.094.875 2.473.226 3.723.219 15.86-1.918 14.031-1.887 16.168-3.887 5.804-5.711 9.07-13.442 14.812-19.203 2.578-2.621 6.203-3.625 9.266-5.508 2.215-1.277 4.183-3.008 6.652-3.79-.012.306-.043.919-.054 1.227-1.872 1.473-3.938 2.883-5.079 5.043-2.043 3.247-2.902 7.082-5.011 10.293-3.536 5.684-15.801 7.22-16.922 12.004 4.129.368 18.687-5.382 22.738-7.172 6.059-8.52 3.887-20.953 18.25-30.597 1.887-1.211 2.582-4.016 5.016-4.317-.668 1.579-2.282 2.582-2.703 4.278-3.204 12.054-4.114 15.664-6.508 19.289-2.942 2.695-6.785 4.289-9.492 7.27-.52.581-.66 1.37-.86 2.1 5.793-2.026 17.824-9.355 18.992-10.898.692-2.277 1.106-10.886 2.313-16.87.805-3.903 2.973-7.333 5.09-10.653 1.539-2.55 4.097-4.313 5.496-6.96.617-1.216 1.379-2.376 2.418-3.27l.328.933c-3.754 4.863-.754 7.211-2.942 17.617-.335 1.89-1.175 3.692-2.511 5.086-7.938 8.68-7.567 9.477-7.758 12.266 3.215-1.004 13.707-10.5 17.91-14.813-.648-2.87-.441-5.824-.937-8.714-.602-8.622-1.371-11.254 2.832-21.297.953-2.461 2.902-4.422 3.59-6.996.53-1.204.55-3.09 2.164-3.34-2.977 6.789 2.73 17.64.382 23.812-1.918 4.64-5.73 8.63-6.062 13.828 2.55-.859 11.937-13.609 15.285-18.906.14-3.101-2.934-13.77-3.207-15.117-1.387-6.496-3.234-4.27-1.254-14.059.899-4.449 1.863-3.101 3.117-12.125.246-.086.723-.254.965-.336.004 1.582-.441 3.184-.062 4.75 1.617 5.215 4.09 10.176 5.144 15.563.774 4.683-1.672 8.976-3.187 13.23-.094 1.59-.465 3.446.543 4.817 3.793-6.14 6.953-12.66 9.613-19.371.59-1.047-.14-2.157-.426-3.172-2.32-6.02-4.508-12.121-7.527-17.832-3.754-5.867-.36-11.203-.88-19.77.243-.031.727-.11.966-.148.031 1.066-.012 2.137.144 3.191 2.434 6.262 7.942 11.086 9.13 17.856-.372 3.406-2.74 16.004.585 14.578.828-2.516 6.29-20 4.672-22.098-13.348-20.797-13.871-16.758-15.242-24.488-.504-2.18-.102-4.457-.645-6.63-.308-1.726-1.285-3.573-.37-5.269.675 1.758.898 3.79 2.26 5.204 2.735 3.007 5.813 5.687 8.54 8.707 7.125 8.73 1.98 13.078 5.531 18.882.211.528.574.664 1.098.41.707-3.332 1.406-15.597.848-21.851-15.227-15.633-18.532-12.523-21.942-27.922-.508-2.164-2.062-3.98-2.129-6.266 1.461.942 1.594 2.887 2.965 3.915 4.418 3.914 10.2 6.246 13.86 11.023 3.632 5.578 3.902 13.363 6.886 13.742.012-5.918-2.875-18.5-2.922-18.96-6.726-4.966-14.058-9.024-21-13.66-3.273-3.356-4.62-8.056-7.324-11.825-1.633-1.84-3.738-3.227-5.215-5.215.27-.27.543-.54.813-.813 10.965 9.086 18.703 8.02 22.91 15.75 1.617 2.278 5.207 11.387 8.312 10.723-1.992-7.734-4.984-15.234-8.664-22.32-6.43-2.973-13.277-4.965-19.906-7.457-1.633-.656-3.516-.996-4.754-2.348-2.707-2.754-4.941-5.918-7.59-8.722-1.629-1.7-4.004-2.317-5.832-3.747-.55-.34-.414-1.078-.554-1.609 2.812.809 5.171 2.734 8.046 3.379 4.715 1.531 9.813 1.988 14.211 4.402 5.954 3.25 8.442 11.82 14.172 12.094-3.199-6.781-7.722-12.879-12.238-18.844-1.2-2.136-10.16-2.242-25.586-4.765-2.914-.489-7.863-5.23-10.934-7.641-1.98-1.55-4.566-1.785-6.777-2.852-.668-.238-.894-.96-1.156-1.535 2.894.153 5.562 1.567 8.469 1.621 4.109.547 8.277.536 12.39 1.024 8.637 1.172 10.934 9.914 19.227 9.898.012-1.175-.875-1.976-1.578-2.797-4.926-5.054-9.832-10.207-15.516-14.406-9.492-.152-25.828 1.64-28.215.688-3.39-1.211-6.457-3.137-9.64-4.782-2.657-1.722-5.985-1.12-8.887-2.136a67.54 67.54 0 00-.125-1.18c15.87.625 17.195-2.086 23.687-1.152 8.016 1.87 11.672 8.191 18.922 5.539-2.703-2.98-12.84-8.91-16.375-10.836-2.293-.395-11.304 2.32-18.61-.844-5.679-2.672-9.116-8.406-14.679-11.234-3.031-1.645-6.59-.59-9.797-1.559 1.606-2.418 4.934-1.863 7.403-2.582 30.793-2.277 33.39 13.004 38.41 15.664 3.722 2.145 7.418 4.344 10.93 6.824a9.198 9.198 0 002.261 1.22c-.926-6.481-10.683-7.83-15.586-19.954-1.71-4.371-4.469-4.531-4.636-6.926 1.824-.133 3.003 1.395 4.382 2.313 2.34 1.902 5.426 2.433 7.887 4.14 7.465 4.532 9.125 17.043 11.129 22.887 1.547 1.95 3.937 3.012 5.648 4.816 3.133 2.602 6 5.493 8.957 8.29 1.278 1.335 2.422 2.828 3.95 3.902.218-7.801-10.7-12.602-11.957-21.54-.399-3.226-.938-6.882-3.711-8.988-1.551-1.609-4.137-2.421-4.79-4.73 2.204-.527 3.532 1.402 4.903 2.73 3.227 3.356 7.398 5.618 10.66 8.942 8.336 8.922 6.445 20.777 7.442 26.629 3.988 4.976 7.953 9.992 11.328 15.422.742 1.082 1.226 2.457 2.496 3.058.36-6.472-6.813-11.383-6.813-21.422.008-3.125.008-6.308-1.054-9.285-1.227-3.332-5.582-6.015-5.825-8.254a79.79 79.79 0 011.633-.07c1.348 1.402 2.547 2.938 3.649 4.535 3.605 4.582 8.918 8.153 10.57 14.012 1.531 6.965-.543 14.039-.274 21.062-.484 5.278 2.887 6.657 9.407 24.954l.992.246c.387-7.153-4.828-12.743-2.34-22.25.465-2.852 1.207-5.735.797-8.637-.961-3.938-3.957-6.942-5.223-10.754.57-.004 1.407-.469 1.832.133 2.606 3.152 4.149 6.992 6.309 10.43 2.226 4.05 4.664 8.304 4.71 13.062-.288 7.629-3.081 14.816-4.82 22.172-.859 3.535 2.024 7.101 3.329 20.469l1.132.28c.465-4.913-1.21-9.847-.132-14.741.89-4.567 4.007-8.313 4.957-12.864.636-4.324-2.18-8.101-2.54-12.312.333.004 1.005.008 1.333.012 1.195 1.695 6.953 16.902 5.441 25.52-2.5 8.44-8.46 16.452-9.406 20.308.851 8.058.422 16.18-.258 24.234 3.813-.36 1.16-12.547 7.29-20.773 8.304-11.621 3.98-12.004 4.808-20.633.312.027.933.086 1.242.113 1.183 3.602 1.062 7.453 1.351 11.195.622 3.207.446 6.489.465 9.743.235 5.851-5.496 12.336-9.828 17.793-5.078 6.558-5.996 5.129-6.566 10.91-.832 5.414-2.438 10.672-3.63 16.008 2.477-.477 3.016-8.407 6.583-13.336 2.36-4.153 8.754-6.282 10.414-12.133.66-2.434.851-4.985 1.668-7.38.379-.706 1.523-.081 1.34.657-.43 4.274-1.766 8.418-2.11 12.711-2.46 9.89-1.894 8.977-7.879 14.344-3.277 3.012-6.882 5.629-10.414 8.332-1.468 1-1.808 2.86-2.421 4.41-1.766 5.168-4.458 9.953-6.536 14.977 4.22-.254 4.82-12.926 14.055-15.598 10.711-3.484 7.863-9.324 11.227-11.07.253 1.082.12 2.199-.313 3.222-8.808 21.73-11.058 17.848-26.742 26.399-.629.8-6.074 11.008-14.34 20.574-.129.324-.383.96-.508 1.277 6.317-1.93 6.946-9.804 14.778-13.218 3.027-1.18 6.398-1.547 9.148-3.38 4.961-3.347 2.926-2.566 7.461-8.843.312.008.93.027 1.242.039.219 3.035-2.12 5.32-3.45 7.836-9.128 14.332-7.581 11.644-29.698 20.008-1.344.535-2.871.812-3.907 1.918-12.3 13.007-15.398 12.797-15.851 15.336 7.191-1.477 10.433-9.567 17.535-11.176 3.7-.918 7.738.555 11.293-1.168 1.938-1.184 3.414-2.977 5.223-4.332.925-.582 1.37.945.843 1.539-1.687 2.738-11.308 12.074-16.425 14.312-5.301 2.508-21.133 1.957-23.059 3.368-5.156 3.726-10.566 7.132-16.25 10-.89.464-1.855.882-2.383 1.793 1.406.046 2.86.168 4.23-.239 4.551-1.164 7.43-5.738 12.18-6.398 3.883-.266 7.82.457 11.657-.367 6.175-1.184 3.05.027 10.273-4.536.234.149.7.446.934.598-.825 2.52-3.348 3.832-5.368 5.29-5.289 3.663-10.796 8.023-17.519 8.257-20.516-1.145-20.074-1.543-22.047-.422-4.707 2.156-9.566 3.977-14.488 5.567-1.496.496-3.04.867-4.442 1.582 4.164 2.937 10.586-1.5 14.594-2.813 2.461-.762 4.863.524 7.219 1.082 3.351.957 6.883.668 10.328.598 3.172.105 5.648-2.188 8.613-2.914.168.191.496.574.66.77-1.882 2.128-4.628 3.179-7.21 4.202-6.141 2.38-12.391 5.157-19.11 5.075-12.89-1.59-16.324-4.297-19.137-5.094-17.773 4.594-20.085 2.316-22.035 4.437 1.934.61 3.965 1.48 6.028.907 3.14-.446 6.406-1.762 9.547-.633 1.703.554 3.085 1.758 4.726 2.465 3.496 1.687 10.18 2.859 18.266 1.25.14.222.433.671.578.898-2.2 1.856-5.246 1.848-7.942 2.297-18.504 3.355-18.921 1.64-25.265-1.262-3.469-1.691-6.801-3.672-9.832-6.062-1.266-.2-2.551-.059-3.813.004 1.043 1.46 2.84 2.074 4.203 3.187 14.371 10.836 14.024 17.758 27.153 17.84-6.075 2.101-12.59 3.168-19.016 2.812-3.559-16.71-13.523-23.851-17.059-23.418-8.68 2.61-13.96 14.31-16.09 23.5-6.456.149-12.992-.726-19.07-2.937 13.668-.215 13.516-7.695 28.008-18.328 1.074-.86 2.598-1.3 3.153-2.668-1.41.062-3.083-.563-4.239.535-3.523 2.715-7.46 4.856-11.504 6.691-6.125 3.329-13.355 1.735-19.863.68-3.422-1.015-7.21-.594-10.406-2.36-.137-.46-.25-.933-.324-1.406 2.714.22 5.378 1.137 8.12.883 2.91-.398 5.903-.367 8.7-1.367 3.168-.894 5.633-3.629 9.043-3.75 2.758.133 5.414.992 8.14 1.32 1.594.207 3.094-.453 4.583-.902.027-.207.074-.625.097-.832-7.36-.828-14.707-1.957-21.89-3.816-5.72 2.77-11.989 4.175-18.25 5.074-7.301.36-14.075-2.848-20.766-5.309-1.988-.906-4.133-1.707-5.664-3.328-.59-.492-.38-1.738.574-1.16 4.828 1.707 4.246 3.434 16.223 2.629 3.273-.32 6.41-2.586 9.742-1.445 5.226 1.511 6.695 4.543 13.32 3.296l.594-.98a119.382 119.382 0 01-18.754-6.867c-1.746-.996-3.793-.563-5.7-.485-4.347.532-8.753.227-13.093.817a19.311 19.311 0 01-8.191-.727c-5.34-1.855-15.645-9.304-17.336-11.289-.29-.594-.356-1.988.617-1.87 3.012 1.85 5.238 5.675 19.691 4.745 7.399-.687 10.508 8.11 18.477 6.637-.461-.531-1-.961-1.625-1.258-5.926-3.156-11.7-6.61-17.152-10.523-3.606-1.106-7.5-.774-11.207-1.41-9.477-.59-12.579-.852-20.387-8.2-2.793-2.707-6.012-5.066-8.04-8.453.126-.355.368-1.058.493-1.414 2.328 1.188 3.777 3.535 6.074 4.766 3.977 1.672 8.465-.164 12.465 1.445 6.293 2.215 9.441 9.691 16.336 10.621-.356-.672-.813-1.277-1.422-1.734a133.083 133.083 0 01-14.437-13.356c-1.84-2.25-20.805-6.601-25.707-11.191-4.329-4.14-7.27-9.434-10.293-14.535-.79-1.446-2.059-3.305-.532-4.707 3.489 3.652 2.809 6.508 8.785 9.855 3.168 1.79 6.989 1.918 10.114 3.801 5.57 3.074 7.922 11.539 13.492 12.414-1.14-1.863-2.727-3.39-4.07-5.105-18.715-24.801-2.235-11.207-25.813-24.075-4.414-2.476-7.281-8.527-10.355-14.914-1-2.402-2.657-4.77-2-7.508 2.375 1.95 2.328 5.59 4.726 7.57 2.711 3.063 7.192 3.071 10.305 5.536 5.3 3.973 6.164 12.469 10.23 14.004-.144-.7-.328-1.387-.68-2.012-7.359-14.66-6.308-16.453-7.98-17.457-16.808-12.578-16.84-13.887-18.48-22.055-1.184-8.906-2.649-11.757-2.121-14.57.293-.008.875-.016 1.168-.027 1.03 3.691.922 7.867 3.402 10.996 2.508 3.566 6.723 5.484 9.023 9.219 3.899 6.289 3.508 12.226 6.207 12.543-1.53-5.942-3.246-11.868-3.96-17.98-.27-3.329-7.512-8.337-14.348-19.767-2.586-4.953-1.75-10.73-1.278-16.066.684-3.8-.175-7.91 1.516-11.496.32-.008.957-.02 1.274-.023.253 3.484-.715 6.925-.446 10.406 1.614 8.398 7.785 9.894 9.176 21.078.637 3.844.777 9.39 3.188 9.406-.36-6.472-1.172-12.972-.524-19.465-.039-2.11.785-4.437-.402-6.355-8.477-16.086-11.39-18.86-7.14-32.774 1.038-3.379 1.698-6.906 3.347-10.066.347-.707 1.09-1.059 1.715-1.484.273 3.945-2.524 7.441-2.536 11.37.407 5.262 4.192 9.423 5.141 14.524.867 9.926-1.45 11.961.254 14.727 1.41-1.739.04-2.008 3.898-17.313.754-3.64-.882-7.12-1.793-10.566-4.289-17.633-4.417-17.16 3.833-31.801 1.437-2.371 2.5-5.016 4.425-7.055a7.589 7.589 0 011.575-.238c-.848 4.352-4.848 7.461-5.208 11.977-.23 4.988 2.075 9.789 1.395 14.793-.184 5.21-3.273 9.949-2.684 15.242.223-.031.68-.102.91-.133 1.973-6.75 5.083-13.11 8.153-19.414 2.293-4.606.383-15.106.48-19.184.16-7.586-1.43-8.918 8.914-19.195 2.086-2.086 3.422-4.824 5.66-6.777.493-.16 1-.282 1.524-.344-.129.734-.043 1.613-.684 2.14-6.457 6.883-5.355 5.938-6.113 16.055.309 8.453-6.847 14.774-6.754 20.774 2-.438.188-1.114 13.739-18.094 1.023-4.094-.336-13.938 4.324-22.688 2.293-3.96 6.082-6.714 9.66-9.433 2.43-1.68 4.293-4.016 6.59-5.852.578-.539 1.398-.57 2.129-.746 0 .352.004 1.055.004 1.41-1.899 1.793-4.278 3.082-5.91 5.157-2.563 3.55-1.504 8.343-3.75 12.015C94.27 79.863 87.585 84.016 87.32 90.45c1.547-.883 2.602-2.37 3.848-3.61 2.496-2.456 4.95-4.964 7.664-7.19 2.102-2.083 4.695-3.598 6.742-5.727 2.344-4.031 2.739-18.75 12.809-23.992 2.172-1.23 4.683-1.84 6.652-3.43zm0 0"/></g><path fill="#5271ff" d="M187.668 81.285c1.812-.144 3.625-.097 5.437.02.524 4.925-.02 9.918.293 14.867 3.247-3.238 5.27-7.57 8.563-10.766-.32 35.547.492 35.664-.457 37.082-2.664 3.692-5.578 7.215-8.086 11.008-.191 2.367-.227 4.805.074 7.164 9.903-8.996 18.281-6.191 35.906-8.273 7.172-1.133 14.782-2.696 20.407-7.63 1.87-1.624 2.71-4 3.273-6.335 2.16-2.5 6.418-2.953 8.914-.695 1.77 2.195 1.653 5.52.024 7.757-1.204 1.426-3.04 2.024-4.582 2.98.39 1.02 34.543 77.798 36.816 79.688-21.664 22.196-56.762 20.606-76.207-.066 2.297-.902-.934 4.922 34.918-74.027.68-1.473 1.394-2.942 1.863-4.496-19.355 4.675-53.55 6.93-61.265 24.75-.344.816-.403 108.882-.094 111.687 2.476-1.336 4.96-2.656 7.504-3.86-2.942 7.333-6.567 14.38-9.676 21.653-.324.422-.348 1.637-1.117 1.144-3.442-7.62-6.957-15.21-10.375-22.847 2.703 1.098 5.113 2.82 7.832 3.894.066-16.914.078-104.226-.004-111.078-7.164-18.527-44.395-21.086-61.5-25.351.351 1.386-1.73-3.34 34.504 76.511.32 1.036 1.12 1.688 2.066 2.141-19.785 21.238-55.945 21.363-75.875-.05 1.871-1.66 35.512-76.856 36.61-79.692-1.493-.887-3.157-1.586-4.414-2.805-4.301-5.789 1.644-12.828 8.605-7.656 1.18 2.539.367 7.45 12.656 11.828 18.563 6.383 33.75-.078 44.973 9.125.77.61 1.539 1.223 2.371 1.746.059-2.297.102-4.594.035-6.89-2.555-4.094-5.8-7.739-8.476-11.758-.196-1.282-.086-36.5-.086-36.684 4.203 4.918 6.68 9.492 8.52 10.828.16-4.972.01-9.945.05-14.918m1.543 3.086c.21 2.38-.477 4.914.453 7.176 2.234-.992 1.973 2.027 1.934-7.344-.797.059-1.594.106-2.387.168m4.8 15.274c-1.16 1.289-.757 3.16-.91 4.738l.965-.266c1.704-2.027 3.145-4.277 4.805-6.347 1.313-1.5.754-3.621.715-5.43-2.027 2.3-3.668 4.906-5.574 7.305m-12.926-6.95c0 1.254-.059 2.512.023 3.766 1.211 2.094 2.868 3.89 4.254 5.863.657.868 1.121 2.075 2.371 2.176-.058-1.367.184-2.789-.21-4.113-1.141-1.742-2.544-3.29-3.692-5.024-.762-1.027-1.348-2.414-2.746-2.668m16.117 11.141c-1.297 1.898-2.867 3.606-4.066 5.566-.133 1.118-.09 2.247-.09 3.375.25-.113.742-.328.992-.433 7.184-9.832 5.543-6.41 5.668-11.27-1.2.535-1.754 1.766-2.504 2.762m-16.133-2.652c.028 1.101-.132 2.242.137 3.328.977 1.715 2.336 3.168 3.457 4.781.89 1.23 1.64 2.648 3.008 3.426.043-1.113.105-2.235-.027-3.34-1.57-2.762-3.696-5.148-5.594-7.68l-.98-.515m.042 7.957c-.054 1.191-.105 2.394.012 3.586 1.082 1.652 2.418 3.129 3.48 4.797.825 1.097 1.532 2.558 3.04 2.777-.024-1.063.175-2.152-.047-3.2-4.977-7.074-5.375-7.449-6.485-7.96m15.258 3.914c-.96 1.41-2.082 2.715-3.031 4.136-.098 1.137-.043 2.278-.016 3.415.54-.286 1.113-.563 1.422-1.118 1.59-2.3 3.441-4.414 4.984-6.742.114-1.258.028-2.527-.078-3.785-1.445 1.055-2.246 2.684-3.28 4.094m.034 8.156c-1.082 1.504-2.363 2.875-3.254 4.508-.183 1.015.11 2.039.203 3.05 2.297-1.546 3.43-4.312 5.286-6.327 1.441-1.333 1.101-3.348 1.023-5.102-1.445.953-2.21 2.555-3.258 3.871m-15.351-3.598c.023 1.063-.082 2.141.11 3.2.972 1.597 2.218 3 3.241 4.562.996 1.277 1.778 2.836 3.27 3.613-.242-4.972 1.594-1.187-4.801-10.148-.414-.664-1.074-1.063-1.82-1.227m-89.618 85.45c-.664 1.543-1.562 3.011-1.82 4.699 23.305.082 46.613.054 69.926.015-1.156-3.32-34.059-75.816-35.18-77.058-11.07 24.07-21.945 48.23-32.925 72.344M256.07 130.98c-36.285 79.942-34.34 75.235-34.57 76.801 23.309.04 46.613.035 69.926-.004-.543-1.93-20.211-44.78-34.18-75.66-.238-.55-.437-1.226-1.176-1.14zm0 0"/><path d="M415.83 210.207h-26.08l-3.968 12h-21.5l26.828-73.562h23.578l26.703 73.562h-21.594zm-5.11-15.656l-7.922-23.781-7.828 23.781zm57.812-22.734c1.594-2.72 3.848-4.875 6.766-6.47 2.925-1.6 6.375-2.405 10.343-2.405 4.657 0 8.88 1.218 12.672 3.656 3.79 2.43 6.782 5.902 8.97 10.422 2.194 4.523 3.296 9.808 3.296 15.86 0 6.054-1.102 11.359-3.297 15.921-2.187 4.555-5.18 8.047-8.969 10.484-3.793 2.438-8.015 3.657-12.672 3.657-3.968 0-7.398-.797-10.28-2.391-2.888-1.602-5.165-3.766-6.829-6.484v36.109H448.08v-86.5h20.453zm21.281 21.062c0-3.82-1.027-6.789-3.078-8.906-2.054-2.125-4.574-3.188-7.562-3.188-2.992 0-5.512 1.079-7.563 3.235-2.054 2.156-3.078 5.11-3.078 8.86 0 3.835 1.024 6.827 3.078 8.984 2.051 2.156 4.57 3.234 7.563 3.234 2.988 0 5.508-1.094 7.562-3.281 2.051-2.196 3.078-5.176 3.078-8.938zm67.517-29.734c6.75 0 12.102 2.246 16.063 6.734 3.969 4.492 5.953 10.559 5.953 18.203v34.125h-20.453v-31.406c0-3.344-.871-5.969-2.61-7.875-1.741-1.914-4.07-2.875-6.984-2.875-3.062 0-5.465.961-7.203 2.875-1.742 1.906-2.61 4.531-2.61 7.875v31.406h-20.452v-58.531h20.453v8.344c1.8-2.645 4.234-4.785 7.297-6.422 3.062-1.633 6.578-2.453 10.547-2.453zm29.94 29.735c0-6.052 1.095-11.337 3.282-15.86 2.195-4.52 5.191-7.992 8.984-10.422 3.79-2.438 8.016-3.656 12.672-3.656 4.04 0 7.52.804 10.438 2.406 2.926 1.594 5.187 3.75 6.781 6.469v-8.141h20.453v58.531h-20.453v-8.14c-1.594 2.718-3.871 4.882-6.828 6.484-2.961 1.594-6.422 2.39-10.39 2.39-4.657 0-8.884-1.218-12.673-3.656-3.793-2.437-6.789-5.93-8.984-10.484-2.187-4.562-3.281-9.867-3.281-15.922zm42.157 0c0-3.75-1.027-6.704-3.078-8.86-2.055-2.156-4.574-3.235-7.563-3.235-3.062 0-5.605 1.063-7.625 3.188-2.011 2.117-3.015 5.086-3.015 8.906 0 3.762 1.004 6.742 3.015 8.938 2.02 2.187 4.563 3.28 7.625 3.28 2.989 0 5.508-1.077 7.563-3.233 2.05-2.157 3.078-5.149 3.078-8.985zm155.682-44.235l-18.047 73.562h-25.14l-10.126-45.078-10.328 45.078h-25.156l-17.844-73.562h22.125l8.563 50.297 11.578-50.297h22.437l11.266 49.875 8.547-49.875zm5.322 44.235c0-6.052 1.094-11.337 3.281-15.86 2.196-4.52 5.192-7.992 8.985-10.422 3.789-2.438 8.015-3.656 12.671-3.656 4.04 0 7.52.804 10.438 2.406 2.926 1.594 5.187 3.75 6.781 6.469v-8.141h20.453v58.531h-20.453v-8.14c-1.594 2.718-3.87 4.882-6.828 6.484-2.96 1.594-6.422 2.39-10.39 2.39-4.657 0-8.883-1.218-12.672-3.656-3.793-2.437-6.79-5.93-8.985-10.484-2.187-4.562-3.281-9.867-3.281-15.922zm42.156 0c0-3.75-1.027-6.704-3.078-8.86-2.055-2.156-4.574-3.235-7.562-3.235-3.063 0-5.606 1.063-7.625 3.188-2.012 2.117-3.016 5.086-3.016 8.906 0 3.762 1.004 6.742 3.016 8.938 2.02 2.187 4.562 3.28 7.625 3.28 2.988 0 5.507-1.077 7.562-3.233 2.05-2.157 3.078-5.149 3.078-8.985zm28.799.327c0-5.781 1.195-10.945 3.593-15.5 2.407-4.562 5.61-8.129 9.61-10.703 4-2.57 8.363-3.86 13.094-3.86 6.82 0 12.109 2.157 15.859 6.47v-5.938h20.453v86.5h-20.453v-34.86c-4.313 5.087-9.637 7.626-15.969 7.626-4.73 0-9.094-1.25-13.094-3.75-4-2.508-7.183-6.024-9.546-10.547-2.368-4.52-3.547-9.664-3.547-15.438zm42.156-.328c0-3.883-1.102-6.851-3.297-8.906-2.187-2.05-4.637-3.078-7.344-3.078-2.71 0-5.164 1.062-7.359 3.187-2.188 2.117-3.281 5.157-3.281 9.125 0 3.961 1.078 6.934 3.234 8.922 2.156 1.98 4.625 2.969 7.406 2.969 2.707 0 5.157-1.04 7.344-3.125 2.195-2.094 3.297-5.125 3.297-9.094zm88.064-.625a37.53 37.53 0 01-.312 4.813H952.59c.207 3.199 1.093 5.578 2.656 7.14 1.562 1.563 3.562 2.344 6 2.344 3.406 0 5.844-1.531 7.312-4.594h21.797c-.906 4.043-2.664 7.649-5.265 10.813-2.606 3.156-5.891 5.64-9.86 7.453-3.969 1.812-8.351 2.719-13.14 2.719-5.782 0-10.918-1.22-15.407-3.657-4.48-2.437-7.992-5.914-10.531-10.437-2.543-4.52-3.812-9.844-3.812-15.969 0-6.113 1.25-11.414 3.75-15.906 2.507-4.488 6.007-7.945 10.5-10.375 4.488-2.438 9.656-3.656 15.5-3.656 5.769 0 10.878 1.183 15.328 3.547 4.457 2.367 7.937 5.757 10.437 10.171 2.5 4.418 3.75 9.618 3.75 15.594zm-20.86-5.11c0-2.5-.84-4.46-2.515-5.89-1.668-1.426-3.75-2.14-6.25-2.14-2.512 0-4.57.68-6.172 2.03-1.593 1.356-2.636 3.356-3.125 6zm85.137 5.11c0 1.606-.106 3.211-.313 4.813h-38.703c.207 3.199 1.094 5.578 2.656 7.14 1.563 1.563 3.563 2.344 6 2.344 3.407 0 5.844-1.531 7.313-4.594h21.797c-.906 4.043-2.664 7.649-5.266 10.813-2.605 3.156-5.89 5.64-9.86 7.453-3.968 1.812-8.35 2.719-13.14 2.719-5.781 0-10.918-1.22-15.406-3.657-4.48-2.437-7.992-5.914-10.531-10.437-2.543-4.52-3.813-9.844-3.813-15.969 0-6.113 1.25-11.414 3.75-15.906 2.508-4.488 6.008-7.945 10.5-10.375 4.488-2.438 9.656-3.656 15.5-3.656 5.77 0 10.88 1.183 15.328 3.547 4.457 2.367 7.938 5.757 10.438 10.171 2.5 4.418 3.75 9.618 3.75 15.594zm-20.86-5.11c0-2.5-.84-4.46-2.515-5.89-1.668-1.426-3.75-2.14-6.25-2.14-2.512 0-4.57.68-6.172 2.03-1.594 1.356-2.637 3.356-3.125 6zm49.667-42.155v77.218h-20.452V144.99zm0 0" fill="#fff"/></svg>