<svg width="44" height="44" fill="none" xmlns="http://www.w3.org/2000/svg"><path d="M13.23 6.892L7.284 12.84l-.946-.946L13.23 5l6.895 6.894-.946.946-5.95-5.948zm-.471 12.37l.945-.946 6.422 6.421-.946.947-6.421-6.423zm12.843 0l.946-.946 6.421 6.421-.946.947-6.421-6.423zM38.445 31.16l.946.946L32.497 39l-6.895-6.894.946-.946 5.95 5.948 5.947-5.948z" fill="#fff" fill-opacity=".5"/><path d="M25.21 6.892L5.947 26.157 5 25.21 25.21 5l7.368 7.367-.946.946-6.421-6.421zm12.041 11.754l.948.946L18.789 39l-7.367-7.367.945-.946 6.422 6.421 18.462-18.462z" fill="#fff"/></svg>