<svg width="25" height="24" fill="none" xmlns="http://www.w3.org/2000/svg"><g clip-path="url(#clip0_67_11301)"><path d="M24.5 12c0-6.627-5.373-12-12-12S.5 5.373.5 12s5.373 12 12 12 12-5.373 12-12z" fill="url(#paint0_linear_67_11301)" fill-opacity=".08"/><g filter="url(#filter0_d_67_11301)"><path d="M12.5 9l3 3-3 3-3-3 3-3z" fill="#F3EEFF"/></g><path d="M24 12C24 5.649 18.851.5 12.5.5S1 5.649 1 12s5.149 11.5 11.5 11.5S24 18.351 24 12z" stroke="#F3EEFF" stroke-opacity=".06"/></g><defs><linearGradient id="paint0_linear_67_11301" x1="12.5" y1="0" x2="12.5" y2="24" gradientUnits="userSpaceOnUse"><stop stop-color="#F3EEFF" stop-opacity="0"/><stop offset="1" stop-color="#F3EEFF"/></linearGradient><clipPath id="clip0_67_11301"><path fill="#fff" d="M0 0h25v24H0z"/></clipPath><filter id="filter0_d_67_11301" x="3.5" y="3" width="18" height="18" filterUnits="userSpaceOnUse" color-interpolation-filters="sRGB"><feFlood flood-opacity="0" result="BackgroundImageFix"/><feColorMatrix in="SourceAlpha" values="0 0 0 0 0 0 0 0 0 0 0 0 0 0 0 0 0 0 127 0" result="hardAlpha"/><feOffset/><feGaussianBlur stdDeviation="3"/><feComposite in2="hardAlpha" operator="out"/><feColorMatrix values="0 0 0 0 1 0 0 0 0 1 0 0 0 0 1 0 0 0 0.55 0"/><feBlend in2="BackgroundImageFix" result="effect1_dropShadow_67_11301"/><feBlend in="SourceGraphic" in2="effect1_dropShadow_67_11301" result="shape"/></filter></defs></svg>