<svg width="44" height="44" fill="none" xmlns="http://www.w3.org/2000/svg"><path d="M19.14 10.56l-1.111.64-3.21-5.558L15.928 5l3.21 5.56zm-13.95.64l1.11-.64 3.21 5.56-1.11.641-3.21-5.56zm30 5.561l-1.11-.641 3.21-5.56 1.11.64-3.21 5.561zM27.66 5l1.112.642-3.21 5.559-1.11-.642L27.658 5zm-3.208 28.44l1.111-.64 3.21 5.559-1.11.641-3.21-5.56zm13.95-.64l-1.11.64-3.21-5.56 1.11-.641 3.21 5.56zm-30-5.561l1.11.641-3.21 5.56-1.11-.64 3.21-5.561zM15.932 39l-1.112-.642 3.21-5.559 1.111.642L15.931 39h.001z" fill="#fff" fill-opacity=".5"/><path d="M18.95 22.642l-2.84 4.917 2.84 4.92h5.68l2.84-4.92-2.84-4.918h-5.68zm0-1.284h5.68l2.84-4.917-2.84-4.92h-5.68l-2.84 4.92 2.84 4.917zM15 15.8l3.211-5.56h7.16l3.21 5.56H35l3.58 6.2L35 28.2h-6.42l-3.21 5.561h-7.159l-3.21-5.56h-6.42L5 22l3.58-6.2h6.419zm19.26 11.119L37.1 22l-2.84-4.918h-5.678L25.743 22l2.839 4.918h5.677zm-19.26 0L17.84 22 15 17.082H9.32L6.482 22l2.84 4.918H15z" fill="#fff"/></svg>