<svg width="44" height="44" fill="none" xmlns="http://www.w3.org/2000/svg"><path d="M28.682 13.733l4.2-4.2.89.89-9.26 9.262-.89-.89 4.168-4.17a9.194 9.194 0 00-15.232 6.93 9.193 9.193 0 0015.232 6.93l-4.17-4.17.891-.89 9.26 9.26-.89.891-4.198-4.2a10.453 10.453 0 01-17.384-7.822 10.451 10.451 0 0117.383-7.821z" fill="#fff" fill-opacity=".5"/><path d="M22 39c-9.389 0-17-7.611-17-17S12.611 5 22 5s17 7.611 17 17-7.611 17-17 17zm0-1.26c8.694 0 15.74-7.046 15.74-15.74 0-8.694-7.046-15.74-15.74-15.74-8.694 0-15.74 7.046-15.74 15.74 0 8.694 7.046 15.74 15.74 15.74zm0-11.836a3.903 3.903 0 110-7.807 3.903 3.903 0 010 7.807zm0-1.26a2.645 2.645 0 100-5.289 2.645 2.645 0 000 5.29z" fill="#fff"/></svg>