<svg xmlns="http://www.w3.org/2000/svg" viewBox="0 0 256 256" width="64" height="64"><g fill="none" stroke-miterlimit="10" font-family="none" font-weight="none" font-size="none" text-anchor="none" style="mix-blend-mode:normal"><path d="M186.2 112h-24.4c-4.8 0-8.8-4-8.8-8.8v-4c2.8-7 5-14 6.4-21.2.6-2.6 1-5.2 1.4-7.8l1.2-8c1.2-8.8-5-16.8-13.6-18-8.8-1.2-16.8 5-18 13.6l-1.2 8c-3.8 27-18.8 51-41.2 66.2H42v80h26l18.8 7c8.8 3.2 18.2 5 27.4 5h59.2c9.6 0 17.8-6.8 19.4-16.2L205 140l.8-4.6c2.2-12.2-7.2-23.4-19.6-23.4z" fill="#000"/><path d="M173.2 230h-59.6c-9.6 0-18.8-1.6-27.8-5-3.2-1.2-4.6-4.6-3.6-7.8 1.2-3.2 4.6-4.6 7.8-3.6 7.6 2.8 15.4 4.2 23.6 4.2h59.6c6.8 0 12.6-4.8 13.8-11.6l12.8-72c.8-4-.4-8.2-3-11.4-2.6-3.2-6.6-4.8-10.6-4.8H146c-3.4 0-6-2.6-6-6s2.6-6 6-6h40.2c7.8 0 15 3.4 20 9.4s7 13.6 5.6 21.2l-12.8 72c-2.4 12.4-13.2 21.4-25.8 21.4zM68 218H48c-3.4 0-6-2.6-6-6s2.6-6 6-6h14v-68H48c-3.4 0-6-2.6-6-6s2.6-6 6-6h20c3.4 0 6 2.6 6 6v80c0 3.4-2.6 6-6 6z" fill="#fff"/><path d="M88 138c-2 0-3.8-1-5-2.6-1.8-2.8-1.2-6.4 1.6-8.4 21-14.4 35-37 38.4-62l1.2-8c.8-5.8 3.8-11 8.6-14.6 4.6-3.6 10.4-5 16.2-4.2 5.8.8 11 3.8 14.6 8.6 3.6 4.8 5 10.4 4.2 16.2l-1.2 8c-1.2 8.2-3 16.2-5.6 24-1 3.2-4.4 4.8-7.6 3.8-3.2-1-4.8-4.4-3.8-7.6 2.4-7 4-14.4 5-21.8l1.2-8c.4-2.6-.4-5.2-2-7.4s-4-3.6-6.6-3.8c-2.6-.4-5.2.4-7.4 2s-3.6 4-3.8 6.6l-1.2 8c-4 28.4-19.8 54-43.6 70.4-.8.4-2 .8-3.2.8z" fill="#fff"/></g></svg>