<svg xmlns="http://www.w3.org/2000/svg" viewBox="0 0 256 256" width="50" height="50"><path d="M128 0c-12.56 0-23.16 7-38.88 15.08-15.74 8.1-36.8 17.86-69.74 25.08l-4.02.9v4.1c0 78.46 27.42 130.82 54.96 163.32 27.56 32.52 55.52 45.48 55.52 45.48l2.26 1.04 2.22-1.12s110.32-56.86 110.32-208.72v-4.1l-4.02-.9c-32.94-7.22-54-16.98-69.74-25.08C151.16 7 140.56 0 128 0zm0 10.24c8.42 0 18.14 5.68 34.22 13.96 15.24 7.84 36.76 17.34 67.86 24.68-1.82 138.92-95.54 190.94-102.16 194.42-3.2-1.54-25.36-12.62-49.76-41.44-25.76-30.38-51.32-79.18-52.24-152.98 31.1-7.34 52.62-16.84 67.86-24.68 16.08-8.28 25.8-13.96 34.22-13.96zm0 71.68c-11.32 0-20.48 9.16-20.48 20.48 0 6.9 3.5 13.34 9.28 17.12l-9.28 41.76h40.96l-9.28-41.76a20.45 20.45 0 009.28-17.12c0-11.32-9.16-20.48-20.48-20.48z" fill="#fff" font-family="none" font-weight="none" font-size="none" text-anchor="none"/></svg>