<svg width="1170" height="192" fill="none" xmlns="http://www.w3.org/2000/svg"><g opacity=".2" fill-rule="evenodd" clip-rule="evenodd"><path d="M-271.595 192v-430h.684v430h-.684z" fill="url(#paint0_linear_62_11172)"/><path d="M-249.037 192v-430h.683v430h-.683z" fill="url(#paint1_linear_62_11172)"/><path d="M-226.48 192v-430h.684v430h-.684z" fill="url(#paint2_linear_62_11172)"/><path d="M-203.922 192v-430h.683v430h-.683z" fill="url(#paint3_linear_62_11172)"/><path d="M-181.365 192v-430h.684v430h-.684z" fill="url(#paint4_linear_62_11172)"/><path d="M-158.807 192v-430h.683v430h-.683z" fill="url(#paint5_linear_62_11172)"/><path d="M-136.25 192v-430h.684v430h-.684z" fill="url(#paint6_linear_62_11172)"/><path d="M-113.693 192v-430h.684v430h-.684z" fill="url(#paint7_linear_62_11172)"/><path d="M-91.135 192v-430h.683v430h-.683z" fill="url(#paint8_linear_62_11172)"/><path d="M-68.578 192v-430h.684v430h-.684z" fill="url(#paint9_linear_62_11172)"/><path d="M-46.02 192v-430h.683v430h-.683z" fill="url(#paint10_linear_62_11172)"/><path d="M-23.463 192v-430h.684v430h-.684z" fill="url(#paint11_linear_62_11172)"/><path d="M-.905 192v-430h.683v430h-.683z" fill="url(#paint12_linear_62_11172)"/><path d="M21.652 192v-430h.684v430h-.684z" fill="url(#paint13_linear_62_11172)"/><path d="M44.21 192v-430h.683v430h-.684z" fill="url(#paint14_linear_62_11172)"/><path d="M66.767 192v-430h.683v430h-.683z" fill="url(#paint15_linear_62_11172)"/><path d="M89.324 192v-430h.684v430h-.684z" fill="url(#paint16_linear_62_11172)"/><path d="M111.882 192v-430h.683v430h-.683z" fill="url(#paint17_linear_62_11172)"/><path d="M134.439 192v-430h.684v430h-.684z" fill="url(#paint18_linear_62_11172)"/><path d="M156.996 192l.001-430h.683v430h-.684z" fill="url(#paint19_linear_62_11172)"/><path d="M179.554 192v-430h.684l-.001 430h-.683z" fill="url(#paint20_linear_62_11172)"/><path d="M202.111 192v-430h.684v430h-.684z" fill="url(#paint21_linear_62_11172)"/><path d="M224.669 192v-430h.683v430h-.683z" fill="url(#paint22_linear_62_11172)"/><path d="M247.226 192v-430h.684v430h-.684z" fill="url(#paint23_linear_62_11172)"/><path d="M269.784 192v-430h.683v430h-.683z" fill="url(#paint24_linear_62_11172)"/><path d="M292.341 192v-430h.684v430h-.684z" fill="url(#paint25_linear_62_11172)"/><path d="M314.898 192v-430h.684v430h-.684z" fill="url(#paint26_linear_62_11172)"/><path d="M337.456 192v-430h.683v430h-.683z" fill="url(#paint27_linear_62_11172)"/><path d="M360.013 192v-430h.684v430h-.684z" fill="url(#paint28_linear_62_11172)"/><path d="M382.571 192v-430h.683v430h-.683z" fill="url(#paint29_linear_62_11172)"/><path d="M405.128 192v-430h.684v430h-.684z" fill="url(#paint30_linear_62_11172)"/><path d="M427.685 192v-430h.684v430h-.684z" fill="url(#paint31_linear_62_11172)"/><path d="M450.243 192v-430h.684v430h-.684z" fill="url(#paint32_linear_62_11172)"/><path d="M472.8 192v-430h.684v430h-.684z" fill="url(#paint33_linear_62_11172)"/><path d="M495.358 192v-430h.683v430h-.683z" fill="url(#paint34_linear_62_11172)"/><path d="M517.915 192v-430h.684v430h-.684z" fill="url(#paint35_linear_62_11172)"/><path d="M540.473 192v-430h.683v430h-.683z" fill="url(#paint36_linear_62_11172)"/><path d="M563.03 192v-430h.684v430h-.684z" fill="url(#paint37_linear_62_11172)"/><path d="M585.587 192v-430h.684v430h-.684z" fill="url(#paint38_linear_62_11172)"/><path d="M608.145 192v-430h.683v430h-.683z" fill="url(#paint39_linear_62_11172)"/><path d="M630.702 192v-430h.684v430h-.684z" fill="url(#paint40_linear_62_11172)"/><path d="M646.424 179.715H-288v-.683h934.424v.683z" fill="url(#paint41_linear_62_11172)"/><path d="M646.424 157.191H-288v-.682h934.424v.682z" fill="url(#paint42_linear_62_11172)"/><path d="M646.424 134.667H-288v-.683h934.424v.683z" fill="url(#paint43_linear_62_11172)"/><path d="M646.424 112.143H-288v-.682h934.424v.682z" fill="url(#paint44_linear_62_11172)"/><path d="M646.424 89.62H-288v-.683h934.424v.682z" fill="url(#paint45_linear_62_11172)"/><path d="M646.424 67.096H-288v-.683h934.424v.683z" fill="url(#paint46_linear_62_11172)"/><path d="M646.424 44.572H-288v-.683h934.424v.683z" fill="url(#paint47_linear_62_11172)"/><path d="M646.424 22.048H-288v-.683h934.424v.683z" fill="url(#paint48_linear_62_11172)"/><path d="M646.424-.476H-288v-.682h934.424v.682z" fill="url(#paint49_linear_62_11172)"/><path d="M646.424-23H-288v-.683h934.424V-23z" fill="url(#paint50_linear_62_11172)"/><path d="M646.424-45.524H-288v-.682h934.424v.682z" fill="url(#paint51_linear_62_11172)"/><path d="M646.424-68.048H-288v-.682h934.424v.682z" fill="url(#paint52_linear_62_11172)"/><path d="M646.424-90.571H-288v-.683h934.424v.683z" fill="url(#paint53_linear_62_11172)"/><path d="M646.424-113.095H-288v-.683h934.424v.683z" fill="url(#paint54_linear_62_11172)"/><path d="M646.424-135.619H-288v-.683h934.424v.683z" fill="url(#paint55_linear_62_11172)"/><path d="M646.424-158.143H-288v-.682h934.424v.682z" fill="url(#paint56_linear_62_11172)"/><path d="M646.424-180.667H-288v-.682h934.424v.682z" fill="url(#paint57_linear_62_11172)"/><path d="M646.424-203.19H-288v-.683h934.424v.683z" fill="url(#paint58_linear_62_11172)"/><path d="M646.424-225.715H-288v-.682h934.424v.682z" fill="url(#paint59_linear_62_11172)"/><path d="M517.874 192v-430h.684v430h-.684z" fill="url(#paint60_linear_62_11172)"/><path d="M540.432 192v-430h.683v430h-.683z" fill="url(#paint61_linear_62_11172)"/><path d="M562.989 192v-430h.684v430h-.684z" fill="url(#paint62_linear_62_11172)"/><path d="M585.547 192v-430h.683v430h-.683z" fill="url(#paint63_linear_62_11172)"/><path d="M608.104 192v-430h.684v430h-.684z" fill="url(#paint64_linear_62_11172)"/><path d="M630.661 192v-430h.684v430h-.684z" fill="url(#paint65_linear_62_11172)"/><path d="M653.219 192v-430h.683v430h-.683z" fill="url(#paint66_linear_62_11172)"/><path d="M675.776 192v-430h.684v430h-.684z" fill="url(#paint67_linear_62_11172)"/><path d="M698.334 192v-430h.683v430h-.683z" fill="url(#paint68_linear_62_11172)"/><path d="M720.891 192v-430h.684v430h-.684z" fill="url(#paint69_linear_62_11172)"/><path d="M743.448 192l.001-430h.683v430h-.684z" fill="url(#paint70_linear_62_11172)"/><path d="M766.006 192v-430h.684v430h-.684z" fill="url(#paint71_linear_62_11172)"/><path d="M788.563 192v-430h.684v430h-.684z" fill="url(#paint72_linear_62_11172)"/><path d="M811.121 192v-430h.683v430h-.683z" fill="url(#paint73_linear_62_11172)"/><path d="M833.678 192v-430h.684v430h-.684z" fill="url(#paint74_linear_62_11172)"/><path d="M856.236 192v-430h.683v430h-.683z" fill="url(#paint75_linear_62_11172)"/><path d="M878.793 192v-430h.684v430h-.684z" fill="url(#paint76_linear_62_11172)"/><path d="M901.351 192v-430h.683v430h-.683z" fill="url(#paint77_linear_62_11172)"/><path d="M923.908 192v-430h.684v430h-.684z" fill="url(#paint78_linear_62_11172)"/><path d="M946.465 192v-430h.684v430h-.684z" fill="url(#paint79_linear_62_11172)"/><path d="M969.023 192v-430h.683v430h-.683z" fill="url(#paint80_linear_62_11172)"/><path d="M991.58 192v-430h.684v430h-.684z" fill="url(#paint81_linear_62_11172)"/><path d="M1014.14 192v-430h.68v430h-.68z" fill="url(#paint82_linear_62_11172)"/><path d="M1036.7 192v-430h.68v430h-.68z" fill="url(#paint83_linear_62_11172)"/><path d="M1059.25 192v-430h.69v430h-.69z" fill="url(#paint84_linear_62_11172)"/><path d="M1081.81 192v-430h.68v430h-.68z" fill="url(#paint85_linear_62_11172)"/><path d="M1104.37 192v-430h.68v430h-.68z" fill="url(#paint86_linear_62_11172)"/><path d="M1126.92 192v-430h.69v430h-.69z" fill="url(#paint87_linear_62_11172)"/><path d="M1149.48 192v-430h.69v430h-.69z" fill="url(#paint88_linear_62_11172)"/><path d="M1172.04 192v-430h.68v430h-.68z" fill="url(#paint89_linear_62_11172)"/><path d="M1194.6 192v-430h.68v430h-.68z" fill="url(#paint90_linear_62_11172)"/><path d="M1217.15 192v-430h.69v430h-.69z" fill="url(#paint91_linear_62_11172)"/><path d="M1239.71 192v-430h.69v430h-.69z" fill="url(#paint92_linear_62_11172)"/><path d="M1262.27 192v-430h.68v430h-.68z" fill="url(#paint93_linear_62_11172)"/><path d="M1284.83 192v-430h.68v430h-.68z" fill="url(#paint94_linear_62_11172)"/><path d="M1307.38 192v-430h.69v430h-.69z" fill="url(#paint95_linear_62_11172)"/><path d="M1329.94 192v-430h.68v430h-.68z" fill="url(#paint96_linear_62_11172)"/><path d="M1352.5 192v-430h.68v430h-.68z" fill="url(#paint97_linear_62_11172)"/><path d="M1375.06 192v-430h.68v430h-.68z" fill="url(#paint98_linear_62_11172)"/><path d="M1397.61 192v-430h.69v430h-.69z" fill="url(#paint99_linear_62_11172)"/><path d="M1420.17 192v-430h.68v430h-.68z" fill="url(#paint100_linear_62_11172)"/><path d="M1435.89 179.715H501.469v-.683h934.421v.683z" fill="url(#paint101_linear_62_11172)"/><path d="M1435.89 157.191H501.469v-.682h934.421v.682z" fill="url(#paint102_linear_62_11172)"/><path d="M1435.89 134.667H501.469v-.683h934.421v.683z" fill="url(#paint103_linear_62_11172)"/><path d="M1435.89 112.143H501.469v-.682h934.421v.682z" fill="url(#paint104_linear_62_11172)"/><path d="M1435.89 89.62H501.469v-.683h934.421v.682z" fill="url(#paint105_linear_62_11172)"/><path d="M1435.89 67.096H501.469v-.683h934.421v.683z" fill="url(#paint106_linear_62_11172)"/><path d="M1435.89 44.572H501.469v-.683h934.421v.683z" fill="url(#paint107_linear_62_11172)"/><path d="M1435.89 22.048H501.469v-.683h934.421v.683z" fill="url(#paint108_linear_62_11172)"/><path d="M1435.89-.476H501.469v-.682h934.421v.682z" fill="url(#paint109_linear_62_11172)"/><path d="M1435.89-23H501.469v-.683h934.421V-23z" fill="url(#paint110_linear_62_11172)"/><path d="M1435.89-45.524H501.469v-.682h934.421v.682z" fill="url(#paint111_linear_62_11172)"/><path d="M1435.89-68.048H501.469v-.682h934.421v.682z" fill="url(#paint112_linear_62_11172)"/><path d="M1435.89-90.571H501.469v-.683h934.421v.683z" fill="url(#paint113_linear_62_11172)"/><path d="M1435.89-113.095H501.469v-.683h934.421v.683z" fill="url(#paint114_linear_62_11172)"/><path d="M1435.89-135.619H501.469v-.683h934.421v.683z" fill="url(#paint115_linear_62_11172)"/><path d="M1435.89-158.143H501.469v-.682h934.421v.682z" fill="url(#paint116_linear_62_11172)"/><path d="M1435.89-180.667H501.469v-.682h934.421v.682z" fill="url(#paint117_linear_62_11172)"/><path d="M1435.89-203.19H501.469v-.683h934.421v.683z" fill="url(#paint118_linear_62_11172)"/><path d="M1435.89-225.715H501.469v-.682h934.421v.682z" fill="url(#paint119_linear_62_11172)"/></g><defs><linearGradient id="paint0_linear_62_11172" x1="145.5" y1="167.5" x2="-134" y2="-131" gradientUnits="userSpaceOnUse"><stop stop-color="#fff" stop-opacity="0"/><stop offset="1" stop-color="#fff" stop-opacity=".65"/></linearGradient><linearGradient id="paint1_linear_62_11172" x1="145.5" y1="167.5" x2="-134" y2="-131" gradientUnits="userSpaceOnUse"><stop stop-color="#fff" stop-opacity="0"/><stop offset="1" stop-color="#fff" stop-opacity=".65"/></linearGradient><linearGradient id="paint2_linear_62_11172" x1="145.5" y1="167.5" x2="-134" y2="-131" gradientUnits="userSpaceOnUse"><stop stop-color="#fff" stop-opacity="0"/><stop offset="1" stop-color="#fff" stop-opacity=".65"/></linearGradient><linearGradient id="paint3_linear_62_11172" x1="145.5" y1="167.5" x2="-134" y2="-131" gradientUnits="userSpaceOnUse"><stop stop-color="#fff" stop-opacity="0"/><stop offset="1" stop-color="#fff" stop-opacity=".65"/></linearGradient><linearGradient id="paint4_linear_62_11172" x1="145.5" y1="167.5" x2="-134" y2="-131" gradientUnits="userSpaceOnUse"><stop stop-color="#fff" stop-opacity="0"/><stop offset="1" stop-color="#fff" stop-opacity=".65"/></linearGradient><linearGradient id="paint5_linear_62_11172" x1="145.5" y1="167.5" x2="-134" y2="-131" gradientUnits="userSpaceOnUse"><stop stop-color="#fff" stop-opacity="0"/><stop offset="1" stop-color="#fff" stop-opacity=".65"/></linearGradient><linearGradient id="paint6_linear_62_11172" x1="145.5" y1="167.5" x2="-134" y2="-131" gradientUnits="userSpaceOnUse"><stop stop-color="#fff" stop-opacity="0"/><stop offset="1" stop-color="#fff" stop-opacity=".65"/></linearGradient><linearGradient id="paint7_linear_62_11172" x1="145.5" y1="167.5" x2="-134" y2="-131" gradientUnits="userSpaceOnUse"><stop stop-color="#fff" stop-opacity="0"/><stop offset="1" stop-color="#fff" stop-opacity=".65"/></linearGradient><linearGradient id="paint8_linear_62_11172" x1="145.5" y1="167.5" x2="-134" y2="-131" gradientUnits="userSpaceOnUse"><stop stop-color="#fff" stop-opacity="0"/><stop offset="1" stop-color="#fff" stop-opacity=".65"/></linearGradient><linearGradient id="paint9_linear_62_11172" x1="145.5" y1="167.5" x2="-134" y2="-131" gradientUnits="userSpaceOnUse"><stop stop-color="#fff" stop-opacity="0"/><stop offset="1" stop-color="#fff" stop-opacity=".65"/></linearGradient><linearGradient id="paint10_linear_62_11172" x1="145.5" y1="167.5" x2="-134" y2="-131" gradientUnits="userSpaceOnUse"><stop stop-color="#fff" stop-opacity="0"/><stop offset="1" stop-color="#fff" stop-opacity=".65"/></linearGradient><linearGradient id="paint11_linear_62_11172" x1="145.5" y1="167.5" x2="-134" y2="-131" gradientUnits="userSpaceOnUse"><stop stop-color="#fff" stop-opacity="0"/><stop offset="1" stop-color="#fff" stop-opacity=".65"/></linearGradient><linearGradient id="paint12_linear_62_11172" x1="145.5" y1="167.5" x2="-134" y2="-131" gradientUnits="userSpaceOnUse"><stop stop-color="#fff" stop-opacity="0"/><stop offset="1" stop-color="#fff" stop-opacity=".65"/></linearGradient><linearGradient id="paint13_linear_62_11172" x1="145.5" y1="167.5" x2="-134" y2="-131" gradientUnits="userSpaceOnUse"><stop stop-color="#fff" stop-opacity="0"/><stop offset="1" stop-color="#fff" stop-opacity=".65"/></linearGradient><linearGradient id="paint14_linear_62_11172" x1="145.5" y1="167.5" x2="-134" y2="-131" gradientUnits="userSpaceOnUse"><stop stop-color="#fff" stop-opacity="0"/><stop offset="1" stop-color="#fff" stop-opacity=".65"/></linearGradient><linearGradient id="paint15_linear_62_11172" x1="145.5" y1="167.5" x2="-134" y2="-131" gradientUnits="userSpaceOnUse"><stop stop-color="#fff" stop-opacity="0"/><stop offset="1" stop-color="#fff" stop-opacity=".65"/></linearGradient><linearGradient id="paint16_linear_62_11172" x1="145.5" y1="167.5" x2="-134" y2="-131" gradientUnits="userSpaceOnUse"><stop stop-color="#fff" stop-opacity="0"/><stop offset="1" stop-color="#fff" stop-opacity=".65"/></linearGradient><linearGradient id="paint17_linear_62_11172" x1="145.5" y1="167.5" x2="-134" y2="-131" gradientUnits="userSpaceOnUse"><stop stop-color="#fff" stop-opacity="0"/><stop offset="1" stop-color="#fff" stop-opacity=".65"/></linearGradient><linearGradient id="paint18_linear_62_11172" x1="145.5" y1="167.5" x2="-134" y2="-131" gradientUnits="userSpaceOnUse"><stop stop-color="#fff" stop-opacity="0"/><stop offset="1" stop-color="#fff" stop-opacity=".65"/></linearGradient><linearGradient id="paint19_linear_62_11172" x1="145.5" y1="167.5" x2="-134" y2="-131" gradientUnits="userSpaceOnUse"><stop stop-color="#fff" stop-opacity="0"/><stop offset="1" stop-color="#fff" stop-opacity=".65"/></linearGradient><linearGradient id="paint20_linear_62_11172" x1="145.5" y1="167.5" x2="-134" y2="-131" gradientUnits="userSpaceOnUse"><stop stop-color="#fff" stop-opacity="0"/><stop offset="1" stop-color="#fff" stop-opacity=".65"/></linearGradient><linearGradient id="paint21_linear_62_11172" x1="145.5" y1="167.5" x2="-134" y2="-131" gradientUnits="userSpaceOnUse"><stop stop-color="#fff" stop-opacity="0"/><stop offset="1" stop-color="#fff" stop-opacity=".65"/></linearGradient><linearGradient id="paint22_linear_62_11172" x1="145.5" y1="167.5" x2="-134" y2="-131" gradientUnits="userSpaceOnUse"><stop stop-color="#fff" stop-opacity="0"/><stop offset="1" stop-color="#fff" stop-opacity=".65"/></linearGradient><linearGradient id="paint23_linear_62_11172" x1="145.5" y1="167.5" x2="-134" y2="-131" gradientUnits="userSpaceOnUse"><stop stop-color="#fff" stop-opacity="0"/><stop offset="1" stop-color="#fff" stop-opacity=".65"/></linearGradient><linearGradient id="paint24_linear_62_11172" x1="145.5" y1="167.5" x2="-134" y2="-131" gradientUnits="userSpaceOnUse"><stop stop-color="#fff" stop-opacity="0"/><stop offset="1" stop-color="#fff" stop-opacity=".65"/></linearGradient><linearGradient id="paint25_linear_62_11172" x1="145.5" y1="167.5" x2="-134" y2="-131" gradientUnits="userSpaceOnUse"><stop stop-color="#fff" stop-opacity="0"/><stop offset="1" stop-color="#fff" stop-opacity=".65"/></linearGradient><linearGradient id="paint26_linear_62_11172" x1="145.5" y1="167.5" x2="-134" y2="-131" gradientUnits="userSpaceOnUse"><stop stop-color="#fff" stop-opacity="0"/><stop offset="1" stop-color="#fff" stop-opacity=".65"/></linearGradient><linearGradient id="paint27_linear_62_11172" x1="145.5" y1="167.5" x2="-134" y2="-131" gradientUnits="userSpaceOnUse"><stop stop-color="#fff" stop-opacity="0"/><stop offset="1" stop-color="#fff" stop-opacity=".65"/></linearGradient><linearGradient id="paint28_linear_62_11172" x1="145.5" y1="167.5" x2="-134" y2="-131" gradientUnits="userSpaceOnUse"><stop stop-color="#fff" stop-opacity="0"/><stop offset="1" stop-color="#fff" stop-opacity=".65"/></linearGradient><linearGradient id="paint29_linear_62_11172" x1="145.5" y1="167.5" x2="-134" y2="-131" gradientUnits="userSpaceOnUse"><stop stop-color="#fff" stop-opacity="0"/><stop offset="1" stop-color="#fff" stop-opacity=".65"/></linearGradient><linearGradient id="paint30_linear_62_11172" x1="145.5" y1="167.5" x2="-134" y2="-131" gradientUnits="userSpaceOnUse"><stop stop-color="#fff" stop-opacity="0"/><stop offset="1" stop-color="#fff" stop-opacity=".65"/></linearGradient><linearGradient id="paint31_linear_62_11172" x1="145.5" y1="167.5" x2="-134" y2="-131" gradientUnits="userSpaceOnUse"><stop stop-color="#fff" stop-opacity="0"/><stop offset="1" stop-color="#fff" stop-opacity=".65"/></linearGradient><linearGradient id="paint32_linear_62_11172" x1="145.5" y1="167.5" x2="-134" y2="-131" gradientUnits="userSpaceOnUse"><stop stop-color="#fff" stop-opacity="0"/><stop offset="1" stop-color="#fff" stop-opacity=".65"/></linearGradient><linearGradient id="paint33_linear_62_11172" x1="145.5" y1="167.5" x2="-134" y2="-131" gradientUnits="userSpaceOnUse"><stop stop-color="#fff" stop-opacity="0"/><stop offset="1" stop-color="#fff" stop-opacity=".65"/></linearGradient><linearGradient id="paint34_linear_62_11172" x1="145.5" y1="167.5" x2="-134" y2="-131" gradientUnits="userSpaceOnUse"><stop stop-color="#fff" stop-opacity="0"/><stop offset="1" stop-color="#fff" stop-opacity=".65"/></linearGradient><linearGradient id="paint35_linear_62_11172" x1="145.5" y1="167.5" x2="-134" y2="-131" gradientUnits="userSpaceOnUse"><stop stop-color="#fff" stop-opacity="0"/><stop offset="1" stop-color="#fff" stop-opacity=".65"/></linearGradient><linearGradient id="paint36_linear_62_11172" x1="145.5" y1="167.5" x2="-134" y2="-131" gradientUnits="userSpaceOnUse"><stop stop-color="#fff" stop-opacity="0"/><stop offset="1" stop-color="#fff" stop-opacity=".65"/></linearGradient><linearGradient id="paint37_linear_62_11172" x1="145.5" y1="167.5" x2="-134" y2="-131" gradientUnits="userSpaceOnUse"><stop stop-color="#fff" stop-opacity="0"/><stop offset="1" stop-color="#fff" stop-opacity=".65"/></linearGradient><linearGradient id="paint38_linear_62_11172" x1="145.5" y1="167.5" x2="-134" y2="-131" gradientUnits="userSpaceOnUse"><stop stop-color="#fff" stop-opacity="0"/><stop offset="1" stop-color="#fff" stop-opacity=".65"/></linearGradient><linearGradient id="paint39_linear_62_11172" x1="145.5" y1="167.5" x2="-134" y2="-131" gradientUnits="userSpaceOnUse"><stop stop-color="#fff" stop-opacity="0"/><stop offset="1" stop-color="#fff" stop-opacity=".65"/></linearGradient><linearGradient id="paint40_linear_62_11172" x1="145.5" y1="167.5" x2="-134" y2="-131" gradientUnits="userSpaceOnUse"><stop stop-color="#fff" stop-opacity="0"/><stop offset="1" stop-color="#fff" stop-opacity=".65"/></linearGradient><linearGradient id="paint41_linear_62_11172" x1="145.5" y1="167.5" x2="-134" y2="-131" gradientUnits="userSpaceOnUse"><stop stop-color="#fff" stop-opacity="0"/><stop offset="1" stop-color="#fff" stop-opacity=".65"/></linearGradient><linearGradient id="paint42_linear_62_11172" x1="145.5" y1="167.5" x2="-134" y2="-131" gradientUnits="userSpaceOnUse"><stop stop-color="#fff" stop-opacity="0"/><stop offset="1" stop-color="#fff" stop-opacity=".65"/></linearGradient><linearGradient id="paint43_linear_62_11172" x1="145.5" y1="167.5" x2="-134" y2="-131" gradientUnits="userSpaceOnUse"><stop stop-color="#fff" stop-opacity="0"/><stop offset="1" stop-color="#fff" stop-opacity=".65"/></linearGradient><linearGradient id="paint44_linear_62_11172" x1="145.5" y1="167.5" x2="-134" y2="-131" gradientUnits="userSpaceOnUse"><stop stop-color="#fff" stop-opacity="0"/><stop offset="1" stop-color="#fff" stop-opacity=".65"/></linearGradient><linearGradient id="paint45_linear_62_11172" x1="145.5" y1="167.5" x2="-134" y2="-131" gradientUnits="userSpaceOnUse"><stop stop-color="#fff" stop-opacity="0"/><stop offset="1" stop-color="#fff" stop-opacity=".65"/></linearGradient><linearGradient id="paint46_linear_62_11172" x1="145.5" y1="167.5" x2="-134" y2="-131" gradientUnits="userSpaceOnUse"><stop stop-color="#fff" stop-opacity="0"/><stop offset="1" stop-color="#fff" stop-opacity=".65"/></linearGradient><linearGradient id="paint47_linear_62_11172" x1="145.5" y1="167.5" x2="-134" y2="-131" gradientUnits="userSpaceOnUse"><stop stop-color="#fff" stop-opacity="0"/><stop offset="1" stop-color="#fff" stop-opacity=".65"/></linearGradient><linearGradient id="paint48_linear_62_11172" x1="145.5" y1="167.5" x2="-134" y2="-131" gradientUnits="userSpaceOnUse"><stop stop-color="#fff" stop-opacity="0"/><stop offset="1" stop-color="#fff" stop-opacity=".65"/></linearGradient><linearGradient id="paint49_linear_62_11172" x1="145.5" y1="167.5" x2="-134" y2="-131" gradientUnits="userSpaceOnUse"><stop stop-color="#fff" stop-opacity="0"/><stop offset="1" stop-color="#fff" stop-opacity=".65"/></linearGradient><linearGradient id="paint50_linear_62_11172" x1="145.5" y1="167.5" x2="-134" y2="-131" gradientUnits="userSpaceOnUse"><stop stop-color="#fff" stop-opacity="0"/><stop offset="1" stop-color="#fff" stop-opacity=".65"/></linearGradient><linearGradient id="paint51_linear_62_11172" x1="145.5" y1="167.5" x2="-134" y2="-131" gradientUnits="userSpaceOnUse"><stop stop-color="#fff" stop-opacity="0"/><stop offset="1" stop-color="#fff" stop-opacity=".65"/></linearGradient><linearGradient id="paint52_linear_62_11172" x1="145.5" y1="167.5" x2="-134" y2="-131" gradientUnits="userSpaceOnUse"><stop stop-color="#fff" stop-opacity="0"/><stop offset="1" stop-color="#fff" stop-opacity=".65"/></linearGradient><linearGradient id="paint53_linear_62_11172" x1="145.5" y1="167.5" x2="-134" y2="-131" gradientUnits="userSpaceOnUse"><stop stop-color="#fff" stop-opacity="0"/><stop offset="1" stop-color="#fff" stop-opacity=".65"/></linearGradient><linearGradient id="paint54_linear_62_11172" x1="145.5" y1="167.5" x2="-134" y2="-131" gradientUnits="userSpaceOnUse"><stop stop-color="#fff" stop-opacity="0"/><stop offset="1" stop-color="#fff" stop-opacity=".65"/></linearGradient><linearGradient id="paint55_linear_62_11172" x1="145.5" y1="167.5" x2="-134" y2="-131" gradientUnits="userSpaceOnUse"><stop stop-color="#fff" stop-opacity="0"/><stop offset="1" stop-color="#fff" stop-opacity=".65"/></linearGradient><linearGradient id="paint56_linear_62_11172" x1="145.5" y1="167.5" x2="-134" y2="-131" gradientUnits="userSpaceOnUse"><stop stop-color="#fff" stop-opacity="0"/><stop offset="1" stop-color="#fff" stop-opacity=".65"/></linearGradient><linearGradient id="paint57_linear_62_11172" x1="145.5" y1="167.5" x2="-134" y2="-131" gradientUnits="userSpaceOnUse"><stop stop-color="#fff" stop-opacity="0"/><stop offset="1" stop-color="#fff" stop-opacity=".65"/></linearGradient><linearGradient id="paint58_linear_62_11172" x1="145.5" y1="167.5" x2="-134" y2="-131" gradientUnits="userSpaceOnUse"><stop stop-color="#fff" stop-opacity="0"/><stop offset="1" stop-color="#fff" stop-opacity=".65"/></linearGradient><linearGradient id="paint59_linear_62_11172" x1="145.5" y1="167.5" x2="-134" y2="-131" gradientUnits="userSpaceOnUse"><stop stop-color="#fff" stop-opacity="0"/><stop offset="1" stop-color="#fff" stop-opacity=".65"/></linearGradient><linearGradient id="paint60_linear_62_11172" x1="145.5" y1="167.5" x2="-134" y2="-131" gradientUnits="userSpaceOnUse"><stop stop-color="#fff" stop-opacity="0"/><stop offset="1" stop-color="#fff" stop-opacity=".65"/></linearGradient><linearGradient id="paint61_linear_62_11172" x1="145.5" y1="167.5" x2="-134" y2="-131" gradientUnits="userSpaceOnUse"><stop stop-color="#fff" stop-opacity="0"/><stop offset="1" stop-color="#fff" stop-opacity=".65"/></linearGradient><linearGradient id="paint62_linear_62_11172" x1="145.5" y1="167.5" x2="-134" y2="-131" gradientUnits="userSpaceOnUse"><stop stop-color="#fff" stop-opacity="0"/><stop offset="1" stop-color="#fff" stop-opacity=".65"/></linearGradient><linearGradient id="paint63_linear_62_11172" x1="145.5" y1="167.5" x2="-134" y2="-131" gradientUnits="userSpaceOnUse"><stop stop-color="#fff" stop-opacity="0"/><stop offset="1" stop-color="#fff" stop-opacity=".65"/></linearGradient><linearGradient id="paint64_linear_62_11172" x1="145.5" y1="167.5" x2="-134" y2="-131" gradientUnits="userSpaceOnUse"><stop stop-color="#fff" stop-opacity="0"/><stop offset="1" stop-color="#fff" stop-opacity=".65"/></linearGradient><linearGradient id="paint65_linear_62_11172" x1="145.5" y1="167.5" x2="-134" y2="-131" gradientUnits="userSpaceOnUse"><stop stop-color="#fff" stop-opacity="0"/><stop offset="1" stop-color="#fff" stop-opacity=".65"/></linearGradient><linearGradient id="paint66_linear_62_11172" x1="145.5" y1="167.5" x2="-134" y2="-131" gradientUnits="userSpaceOnUse"><stop stop-color="#fff" stop-opacity="0"/><stop offset="1" stop-color="#fff" stop-opacity=".65"/></linearGradient><linearGradient id="paint67_linear_62_11172" x1="145.5" y1="167.5" x2="-134" y2="-131" gradientUnits="userSpaceOnUse"><stop stop-color="#fff" stop-opacity="0"/><stop offset="1" stop-color="#fff" stop-opacity=".65"/></linearGradient><linearGradient id="paint68_linear_62_11172" x1="145.5" y1="167.5" x2="-134" y2="-131" gradientUnits="userSpaceOnUse"><stop stop-color="#fff" stop-opacity="0"/><stop offset="1" stop-color="#fff" stop-opacity=".65"/></linearGradient><linearGradient id="paint69_linear_62_11172" x1="145.5" y1="167.5" x2="-134" y2="-131" gradientUnits="userSpaceOnUse"><stop stop-color="#fff" stop-opacity="0"/><stop offset="1" stop-color="#fff" stop-opacity=".65"/></linearGradient><linearGradient id="paint70_linear_62_11172" x1="145.5" y1="167.5" x2="-134" y2="-131" gradientUnits="userSpaceOnUse"><stop stop-color="#fff" stop-opacity="0"/><stop offset="1" stop-color="#fff" stop-opacity=".65"/></linearGradient><linearGradient id="paint71_linear_62_11172" x1="145.5" y1="167.5" x2="-134" y2="-131" gradientUnits="userSpaceOnUse"><stop stop-color="#fff" stop-opacity="0"/><stop offset="1" stop-color="#fff" stop-opacity=".65"/></linearGradient><linearGradient id="paint72_linear_62_11172" x1="145.5" y1="167.5" x2="-134" y2="-131" gradientUnits="userSpaceOnUse"><stop stop-color="#fff" stop-opacity="0"/><stop offset="1" stop-color="#fff" stop-opacity=".65"/></linearGradient><linearGradient id="paint73_linear_62_11172" x1="145.5" y1="167.5" x2="-134" y2="-131" gradientUnits="userSpaceOnUse"><stop stop-color="#fff" stop-opacity="0"/><stop offset="1" stop-color="#fff" stop-opacity=".65"/></linearGradient><linearGradient id="paint74_linear_62_11172" x1="145.5" y1="167.5" x2="-134" y2="-131" gradientUnits="userSpaceOnUse"><stop stop-color="#fff" stop-opacity="0"/><stop offset="1" stop-color="#fff" stop-opacity=".65"/></linearGradient><linearGradient id="paint75_linear_62_11172" x1="145.5" y1="167.5" x2="-134" y2="-131" gradientUnits="userSpaceOnUse"><stop stop-color="#fff" stop-opacity="0"/><stop offset="1" stop-color="#fff" stop-opacity=".65"/></linearGradient><linearGradient id="paint76_linear_62_11172" x1="145.5" y1="167.5" x2="-134" y2="-131" gradientUnits="userSpaceOnUse"><stop stop-color="#fff" stop-opacity="0"/><stop offset="1" stop-color="#fff" stop-opacity=".65"/></linearGradient><linearGradient id="paint77_linear_62_11172" x1="145.5" y1="167.5" x2="-134" y2="-131" gradientUnits="userSpaceOnUse"><stop stop-color="#fff" stop-opacity="0"/><stop offset="1" stop-color="#fff" stop-opacity=".65"/></linearGradient><linearGradient id="paint78_linear_62_11172" x1="145.5" y1="167.5" x2="-134" y2="-131" gradientUnits="userSpaceOnUse"><stop stop-color="#fff" stop-opacity="0"/><stop offset="1" stop-color="#fff" stop-opacity=".65"/></linearGradient><linearGradient id="paint79_linear_62_11172" x1="145.5" y1="167.5" x2="-134" y2="-131" gradientUnits="userSpaceOnUse"><stop stop-color="#fff" stop-opacity="0"/><stop offset="1" stop-color="#fff" stop-opacity=".65"/></linearGradient><linearGradient id="paint80_linear_62_11172" x1="145.5" y1="167.5" x2="-134" y2="-131" gradientUnits="userSpaceOnUse"><stop stop-color="#fff" stop-opacity="0"/><stop offset="1" stop-color="#fff" stop-opacity=".65"/></linearGradient><linearGradient id="paint81_linear_62_11172" x1="145.5" y1="167.5" x2="-134" y2="-131" gradientUnits="userSpaceOnUse"><stop stop-color="#fff" stop-opacity="0"/><stop offset="1" stop-color="#fff" stop-opacity=".65"/></linearGradient><linearGradient id="paint82_linear_62_11172" x1="145.5" y1="167.5" x2="-134" y2="-131" gradientUnits="userSpaceOnUse"><stop stop-color="#fff" stop-opacity="0"/><stop offset="1" stop-color="#fff" stop-opacity=".65"/></linearGradient><linearGradient id="paint83_linear_62_11172" x1="145.5" y1="167.5" x2="-134" y2="-131" gradientUnits="userSpaceOnUse"><stop stop-color="#fff" stop-opacity="0"/><stop offset="1" stop-color="#fff" stop-opacity=".65"/></linearGradient><linearGradient id="paint84_linear_62_11172" x1="145.5" y1="167.5" x2="-134" y2="-131" gradientUnits="userSpaceOnUse"><stop stop-color="#fff" stop-opacity="0"/><stop offset="1" stop-color="#fff" stop-opacity=".65"/></linearGradient><linearGradient id="paint85_linear_62_11172" x1="145.5" y1="167.5" x2="-134" y2="-131" gradientUnits="userSpaceOnUse"><stop stop-color="#fff" stop-opacity="0"/><stop offset="1" stop-color="#fff" stop-opacity=".65"/></linearGradient><linearGradient id="paint86_linear_62_11172" x1="145.5" y1="167.5" x2="-134" y2="-131" gradientUnits="userSpaceOnUse"><stop stop-color="#fff" stop-opacity="0"/><stop offset="1" stop-color="#fff" stop-opacity=".65"/></linearGradient><linearGradient id="paint87_linear_62_11172" x1="145.5" y1="167.5" x2="-134" y2="-131" gradientUnits="userSpaceOnUse"><stop stop-color="#fff" stop-opacity="0"/><stop offset="1" stop-color="#fff" stop-opacity=".65"/></linearGradient><linearGradient id="paint88_linear_62_11172" x1="145.5" y1="167.5" x2="-134" y2="-131" gradientUnits="userSpaceOnUse"><stop stop-color="#fff" stop-opacity="0"/><stop offset="1" stop-color="#fff" stop-opacity=".65"/></linearGradient><linearGradient id="paint89_linear_62_11172" x1="145.5" y1="167.5" x2="-134" y2="-131" gradientUnits="userSpaceOnUse"><stop stop-color="#fff" stop-opacity="0"/><stop offset="1" stop-color="#fff" stop-opacity=".65"/></linearGradient><linearGradient id="paint90_linear_62_11172" x1="145.5" y1="167.5" x2="-134" y2="-131" gradientUnits="userSpaceOnUse"><stop stop-color="#fff" stop-opacity="0"/><stop offset="1" stop-color="#fff" stop-opacity=".65"/></linearGradient><linearGradient id="paint91_linear_62_11172" x1="145.5" y1="167.5" x2="-134" y2="-131" gradientUnits="userSpaceOnUse"><stop stop-color="#fff" stop-opacity="0"/><stop offset="1" stop-color="#fff" stop-opacity=".65"/></linearGradient><linearGradient id="paint92_linear_62_11172" x1="145.5" y1="167.5" x2="-134" y2="-131" gradientUnits="userSpaceOnUse"><stop stop-color="#fff" stop-opacity="0"/><stop offset="1" stop-color="#fff" stop-opacity=".65"/></linearGradient><linearGradient id="paint93_linear_62_11172" x1="145.5" y1="167.5" x2="-134" y2="-131" gradientUnits="userSpaceOnUse"><stop stop-color="#fff" stop-opacity="0"/><stop offset="1" stop-color="#fff" stop-opacity=".65"/></linearGradient><linearGradient id="paint94_linear_62_11172" x1="145.5" y1="167.5" x2="-134" y2="-131" gradientUnits="userSpaceOnUse"><stop stop-color="#fff" stop-opacity="0"/><stop offset="1" stop-color="#fff" stop-opacity=".65"/></linearGradient><linearGradient id="paint95_linear_62_11172" x1="145.5" y1="167.5" x2="-134" y2="-131" gradientUnits="userSpaceOnUse"><stop stop-color="#fff" stop-opacity="0"/><stop offset="1" stop-color="#fff" stop-opacity=".65"/></linearGradient><linearGradient id="paint96_linear_62_11172" x1="145.5" y1="167.5" x2="-134" y2="-131" gradientUnits="userSpaceOnUse"><stop stop-color="#fff" stop-opacity="0"/><stop offset="1" stop-color="#fff" stop-opacity=".65"/></linearGradient><linearGradient id="paint97_linear_62_11172" x1="145.5" y1="167.5" x2="-134" y2="-131" gradientUnits="userSpaceOnUse"><stop stop-color="#fff" stop-opacity="0"/><stop offset="1" stop-color="#fff" stop-opacity=".65"/></linearGradient><linearGradient id="paint98_linear_62_11172" x1="145.5" y1="167.5" x2="-134" y2="-131" gradientUnits="userSpaceOnUse"><stop stop-color="#fff" stop-opacity="0"/><stop offset="1" stop-color="#fff" stop-opacity=".65"/></linearGradient><linearGradient id="paint99_linear_62_11172" x1="145.5" y1="167.5" x2="-134" y2="-131" gradientUnits="userSpaceOnUse"><stop stop-color="#fff" stop-opacity="0"/><stop offset="1" stop-color="#fff" stop-opacity=".65"/></linearGradient><linearGradient id="paint100_linear_62_11172" x1="145.5" y1="167.5" x2="-134" y2="-131" gradientUnits="userSpaceOnUse"><stop stop-color="#fff" stop-opacity="0"/><stop offset="1" stop-color="#fff" stop-opacity=".65"/></linearGradient><linearGradient id="paint101_linear_62_11172" x1="145.5" y1="167.5" x2="-134" y2="-131" gradientUnits="userSpaceOnUse"><stop stop-color="#fff" stop-opacity="0"/><stop offset="1" stop-color="#fff" stop-opacity=".65"/></linearGradient><linearGradient id="paint102_linear_62_11172" x1="145.5" y1="167.5" x2="-134" y2="-131" gradientUnits="userSpaceOnUse"><stop stop-color="#fff" stop-opacity="0"/><stop offset="1" stop-color="#fff" stop-opacity=".65"/></linearGradient><linearGradient id="paint103_linear_62_11172" x1="145.5" y1="167.5" x2="-134" y2="-131" gradientUnits="userSpaceOnUse"><stop stop-color="#fff" stop-opacity="0"/><stop offset="1" stop-color="#fff" stop-opacity=".65"/></linearGradient><linearGradient id="paint104_linear_62_11172" x1="145.5" y1="167.5" x2="-134" y2="-131" gradientUnits="userSpaceOnUse"><stop stop-color="#fff" stop-opacity="0"/><stop offset="1" stop-color="#fff" stop-opacity=".65"/></linearGradient><linearGradient id="paint105_linear_62_11172" x1="145.5" y1="167.5" x2="-134" y2="-131" gradientUnits="userSpaceOnUse"><stop stop-color="#fff" stop-opacity="0"/><stop offset="1" stop-color="#fff" stop-opacity=".65"/></linearGradient><linearGradient id="paint106_linear_62_11172" x1="145.5" y1="167.5" x2="-134" y2="-131" gradientUnits="userSpaceOnUse"><stop stop-color="#fff" stop-opacity="0"/><stop offset="1" stop-color="#fff" stop-opacity=".65"/></linearGradient><linearGradient id="paint107_linear_62_11172" x1="145.5" y1="167.5" x2="-134" y2="-131" gradientUnits="userSpaceOnUse"><stop stop-color="#fff" stop-opacity="0"/><stop offset="1" stop-color="#fff" stop-opacity=".65"/></linearGradient><linearGradient id="paint108_linear_62_11172" x1="145.5" y1="167.5" x2="-134" y2="-131" gradientUnits="userSpaceOnUse"><stop stop-color="#fff" stop-opacity="0"/><stop offset="1" stop-color="#fff" stop-opacity=".65"/></linearGradient><linearGradient id="paint109_linear_62_11172" x1="145.5" y1="167.5" x2="-134" y2="-131" gradientUnits="userSpaceOnUse"><stop stop-color="#fff" stop-opacity="0"/><stop offset="1" stop-color="#fff" stop-opacity=".65"/></linearGradient><linearGradient id="paint110_linear_62_11172" x1="145.5" y1="167.5" x2="-134" y2="-131" gradientUnits="userSpaceOnUse"><stop stop-color="#fff" stop-opacity="0"/><stop offset="1" stop-color="#fff" stop-opacity=".65"/></linearGradient><linearGradient id="paint111_linear_62_11172" x1="145.5" y1="167.5" x2="-134" y2="-131" gradientUnits="userSpaceOnUse"><stop stop-color="#fff" stop-opacity="0"/><stop offset="1" stop-color="#fff" stop-opacity=".65"/></linearGradient><linearGradient id="paint112_linear_62_11172" x1="145.5" y1="167.5" x2="-134" y2="-131" gradientUnits="userSpaceOnUse"><stop stop-color="#fff" stop-opacity="0"/><stop offset="1" stop-color="#fff" stop-opacity=".65"/></linearGradient><linearGradient id="paint113_linear_62_11172" x1="145.5" y1="167.5" x2="-134" y2="-131" gradientUnits="userSpaceOnUse"><stop stop-color="#fff" stop-opacity="0"/><stop offset="1" stop-color="#fff" stop-opacity=".65"/></linearGradient><linearGradient id="paint114_linear_62_11172" x1="145.5" y1="167.5" x2="-134" y2="-131" gradientUnits="userSpaceOnUse"><stop stop-color="#fff" stop-opacity="0"/><stop offset="1" stop-color="#fff" stop-opacity=".65"/></linearGradient><linearGradient id="paint115_linear_62_11172" x1="145.5" y1="167.5" x2="-134" y2="-131" gradientUnits="userSpaceOnUse"><stop stop-color="#fff" stop-opacity="0"/><stop offset="1" stop-color="#fff" stop-opacity=".65"/></linearGradient><linearGradient id="paint116_linear_62_11172" x1="145.5" y1="167.5" x2="-134" y2="-131" gradientUnits="userSpaceOnUse"><stop stop-color="#fff" stop-opacity="0"/><stop offset="1" stop-color="#fff" stop-opacity=".65"/></linearGradient><linearGradient id="paint117_linear_62_11172" x1="145.5" y1="167.5" x2="-134" y2="-131" gradientUnits="userSpaceOnUse"><stop stop-color="#fff" stop-opacity="0"/><stop offset="1" stop-color="#fff" stop-opacity=".65"/></linearGradient><linearGradient id="paint118_linear_62_11172" x1="145.5" y1="167.5" x2="-134" y2="-131" gradientUnits="userSpaceOnUse"><stop stop-color="#fff" stop-opacity="0"/><stop offset="1" stop-color="#fff" stop-opacity=".65"/></linearGradient><linearGradient id="paint119_linear_62_11172" x1="145.5" y1="167.5" x2="-134" y2="-131" gradientUnits="userSpaceOnUse"><stop stop-color="#fff" stop-opacity="0"/><stop offset="1" stop-color="#fff" stop-opacity=".65"/></linearGradient></defs></svg>