<svg xmlns="http://www.w3.org/2000/svg" viewBox="0 0 256 256" width="50" height="50"><path d="M133.12 10.24C68.1 10.24 43 52.22 40.96 92.16v34.24c-3.58 4.1-5.12 9.34-5.12 16 0 11.78 7.62 21.44 18.88 24 13.32 34.82 35.4 79.36 73.28 79.36 20.48 0 36.36-13.32 48.64-30.72h-13.28c-11.26 13.82-23.04 20.48-35.84 20.48-24.58 0-45.66-24.64-65.12-75.84l-.96-3.04-3.04-.48c-6.66 0-12.32-6.08-12.32-13.76 0-3 .56-5.52 1.44-7.52l16.8 8c1.6.78 3.48.68 4.98-.28 1.48-.94 2.4-2.58 2.38-4.36V101.6c3.54-.24 12.86-.6 28.32-4.32 16.26-3.9 35.02-10.88 48-23.36 13.74 18.1 31.5 25.12 36.32 26.72v37.6c-.02 1.78.9 3.42 2.38 4.36 1.5.96 3.38 1.06 4.98.28l8-4v16.96c-.82.18-1.7.32-2.56.32l-3.04.48-1.12 3.04c-5.12 13.32-10.24 24.68-15.36 34.4 6.14-1.02 11.9-3.56 16-8.16 3.08-6.66 5.6-13.38 8.16-19.52 1.02-.26 2.02-.68 3.04-1.12v3.68c0 17.26-13.46 30.72-30.72 30.72h-21.44c-2.14-5.92-7.78-10.24-14.4-10.24H128c-8.42 0-15.36 6.94-15.36 15.36 0 8.42 6.94 15.36 15.36 15.36h10.24c6.62 0 12.26-4.32 14.4-10.24h21.44c22.68 0 40.96-18.28 40.96-40.96v-5.12c8.42 0 15.36-6.94 15.36-15.36V128c0-8.42-6.94-15.36-15.36-15.36V92.16c-2.04-45.06-27.1-70.66-69.6-71.68L135.2 10.24zm-2.08 10.24l10.24 10.24h2.08c51.2 0 60.42 38.4 61.44 61.44v20.48h-.48a5.1 5.1 0 00-4.64 5.12v9.6l-5.12 2.56V97.28c.02-2.3-1.48-4.32-3.68-4.96 0 0-25.52-8.02-38.08-28.48a5.148 5.148 0 00-4.8-2.4c-1.38.14-2.66.82-3.52 1.92-10.2 12.24-29.62 19.9-46.72 24-17.1 4.1-31.52 4.8-31.52 4.8-2.7.16-4.8 2.42-4.8 5.12v32.8l-10.72-5.12v-32.8C53.8 40.44 93.66 21 131.04 20.48zm78.88 102.4h5.12c2.84 0 5.12 2.28 5.12 5.12v20.48c0 2.84-2.28 5.12-5.12 5.12h-4.16a5.35 5.35 0 00-.96-.16V131.2c.08-.54.08-1.06 0-1.6zM128 199.68h10.24c2.84 0 5.12 2.28 5.12 5.12 0 2.84-2.28 5.12-5.12 5.12H128c-2.84 0-5.12-2.28-5.12-5.12 0-2.84 2.28-5.12 5.12-5.12z" fill="#fff" font-family="none" font-weight="none" font-size="none" text-anchor="none"/></svg>