<svg xmlns="http://www.w3.org/2000/svg" xmlns:xlink="http://www.w3.org/1999/xlink" width="1500" zoomAndPan="magnify" viewBox="0 0 1125 374.999991" height="500" preserveAspectRatio="xMidYMid meet" version="1.0"><defs><g/><clipPath id="ec0db8802d"><path d="M 38 44 L 342.75 44 L 342.75 337.179688 L 38 337.179688 Z M 38 44 " clip-rule="nonzero"/></clipPath></defs><g clip-path="url(#ec0db8802d)"><path fill="#5271ff" d="M 125.035156 46.5 C 126.417969 45.570312 127.632812 43.9375 129.503906 44.40625 C 128.550781 46.503906 126.386719 47.664062 125.304688 49.664062 C 119.808594 64.0625 109.636719 64.5 109.109375 71.230469 C 113.289062 68.796875 117.15625 65.816406 121.460938 63.5625 C 122.851562 62.914062 123.996094 61.871094 124.859375 60.617188 C 134.589844 47.410156 150.582031 44.6875 166.515625 48.574219 C 167.394531 48.671875 167.65625 49.453125 167.863281 50.191406 C 165.390625 50.535156 162.875 50.417969 160.414062 50.78125 C 150.535156 53.695312 147.875 66.757812 131.882812 64.183594 C 129.640625 64.25 127.449219 63.605469 125.222656 63.636719 C 120.414062 66.011719 110.707031 72.105469 108.445312 74.472656 C 110.050781 75.335938 111.910156 75.078125 113.65625 74.984375 C 116.394531 74.65625 118.578125 72.878906 120.960938 71.671875 C 128.851562 67.558594 129.371094 68.636719 139.9375 69.945312 C 143.730469 70.714844 147.609375 70.0625 151.4375 70.257812 C 151.367188 70.492188 151.222656 70.972656 151.148438 71.210938 C 148.996094 71.96875 146.699219 72.070312 144.46875 72.4375 C 140 74.105469 136.175781 77.328125 131.5 78.46875 C 122.367188 78.667969 113.285156 77.25 104.160156 77.582031 C 97.96875 82.628906 92.019531 88.027344 86.914062 94.199219 C 90.660156 96.59375 97.253906 89.289062 100.292969 87.367188 C 102.910156 85.4375 106.171875 84.648438 109.375 84.585938 C 125.644531 83.152344 116.917969 84.304688 126.992188 82.117188 C 126.984375 82.433594 126.96875 83.066406 126.964844 83.382812 C 124.980469 84.339844 122.796875 84.789062 120.808594 85.726562 C 117.136719 87.730469 111.855469 93.792969 108.269531 94.25 C 81.519531 98.375 84.691406 97.054688 83.054688 98.847656 C 77.871094 105.21875 71.34375 115.371094 70.625 117.875 C 75.984375 117.789062 79.507812 108.488281 84.699219 105.824219 C 91.207031 102.1875 94.121094 104.15625 106.714844 97.960938 C 106.75 98.265625 106.824219 98.878906 106.855469 99.183594 C 104.902344 100.992188 102.125 101.644531 100.3125 103.640625 C 96.097656 108.269531 94.085938 112.160156 90.296875 113.664062 C 66.835938 122.175781 68.617188 120.921875 67.453125 123.539062 C 64.429688 130.230469 61.464844 137.03125 59.78125 144.199219 C 63.851562 144.347656 66.050781 134.71875 70.628906 130.027344 C 75.394531 125.90625 81.761719 124.476562 86.847656 120.855469 C 88.378906 119.792969 89.828125 118.609375 91.371094 117.554688 C 91.40625 118.183594 91.707031 118.925781 91.128906 119.414062 C 89.644531 121.125 87.527344 122.207031 86.253906 124.121094 C 83.714844 127.957031 82.351562 132.652344 78.890625 135.828125 C 72.441406 139.992188 59.835938 147.488281 58.304688 149.335938 C 56.757812 155.675781 55.894531 162.152344 55.089844 168.617188 C 58.242188 168.226562 58.664062 159.117188 62.714844 153.691406 C 66.617188 149.304688 72.191406 146.972656 76.476562 143.027344 C 77.566406 142.027344 77.636719 140.261719 79.023438 139.519531 C 79.183594 141.722656 77.417969 143.355469 77.011719 145.425781 C 74.117188 159.089844 71.199219 158.070312 58.855469 169.972656 C 57.585938 171.238281 56.03125 172.230469 54.996094 173.714844 C 54.648438 177.882812 54.8125 190.679688 55.910156 195.566406 L 56.691406 195.566406 C 57.613281 193.980469 58.425781 192.21875 58.382812 190.34375 C 58.449219 177.128906 60.96875 178.597656 70.625 167.851562 C 72.074219 166.582031 72.53125 164.664062 72.96875 162.875 C 73.171875 162.808594 73.574219 162.679688 73.78125 162.613281 C 74.042969 164.753906 72.722656 166.617188 72.726562 168.722656 C 72.027344 182.566406 70.363281 177.242188 56.53125 199.484375 C 57.367188 206.617188 59.347656 213.613281 61.558594 220.445312 C 61.699219 221.324219 63.128906 220.835938 63.089844 220.082031 C 63.855469 216.414062 62.980469 212.695312 62.640625 209.035156 C 62.519531 207.757812 61.886719 206.453125 62.394531 205.179688 C 64.0625 199.125 68.683594 194.550781 71.210938 188.914062 C 71.851562 187.683594 71.003906 185.722656 72.320312 184.960938 C 74.238281 209.414062 74.507812 194.253906 64.035156 223.171875 C 63.808594 223.96875 63.335938 224.800781 63.5625 225.644531 C 65.996094 232.4375 69.441406 238.808594 72.933594 245.097656 C 73.125 245.152344 73.503906 245.273438 73.691406 245.335938 C 73.886719 243.21875 74.105469 240.960938 73.195312 238.972656 C 67.898438 226.679688 71.160156 226.910156 75.664062 212.113281 C 76.144531 210.3125 75.433594 208.457031 75.863281 206.652344 C 76.546875 207.664062 77.089844 208.796875 77.109375 210.042969 C 77.394531 214.246094 82.394531 223.472656 80.011719 229.046875 C 77.714844 235.296875 76.601562 241.886719 75.101562 248.347656 C 80.3125 256.730469 88.394531 266.492188 90.523438 267.929688 C 91.058594 262.578125 84.152344 256.40625 83.964844 250.71875 C 84.09375 245.394531 85.558594 240.191406 85.875 234.878906 C 86.101562 233.1875 85.210938 231.675781 85.027344 230.039062 C 87.246094 231.066406 86.988281 234.0625 88.179688 235.914062 C 95.929688 247.46875 93.953125 256.734375 92.820312 268.789062 C 92.832031 269.453125 92.429688 270.316406 93.074219 270.820312 C 95.035156 272.769531 108.023438 285.171875 110.625 285.101562 C 110.691406 280.542969 104.234375 275.050781 101.449219 271.128906 C 98.671875 265.90625 99.984375 259.808594 99.15625 254.191406 C 99.039062 252.367188 97.492188 251.035156 97.414062 249.207031 C 99.527344 250.738281 100.140625 253.460938 102.007812 255.21875 C 105.550781 258.730469 108.007812 263.164062 109.980469 267.707031 C 111.214844 271.664062 111.363281 275.839844 112.011719 279.910156 C 112.570312 288.773438 113.042969 287.199219 115.554688 289.136719 C 120.824219 292.421875 126.199219 295.621094 131.898438 298.101562 C 131.742188 297.480469 131.859375 296.726562 131.40625 296.230469 C 128.722656 293.058594 124.746094 291.441406 121.714844 288.6875 C 118.0625 283.675781 116.238281 272.0625 114.726562 268.429688 C 114.042969 267.199219 112.980469 266.238281 112.292969 265.007812 C 114.0625 265.15625 114.953125 266.828125 116.058594 267.988281 C 117.351562 269.542969 123.949219 273.472656 127.644531 280.289062 C 131.039062 287.867188 133.566406 299.136719 136.484375 300.289062 C 143.40625 303.230469 150.5625 305.652344 157.867188 307.453125 C 157.9375 307.160156 158.082031 306.578125 158.160156 306.289062 C 156.316406 303.359375 150.542969 301.570312 145.25 298.582031 C 139.441406 295.328125 139.824219 289.632812 135.613281 283.4375 C 134.433594 281.515625 131.789062 280.898438 131.066406 278.632812 C 133.675781 278.996094 135.554688 281.015625 137.792969 282.21875 C 140.300781 283.765625 143.160156 284.675781 145.566406 286.398438 C 153.144531 292.574219 156.253906 302.625 163.921875 308.703125 C 167.023438 309.492188 179.457031 311.421875 181.691406 311.019531 C 181.644531 307.320312 173.621094 307.410156 167.773438 303.914062 C 162.714844 300.546875 161.707031 293.398438 156.171875 290.578125 C 155.328125 290.101562 154.578125 289.472656 154.078125 288.640625 C 156.484375 288.839844 158.65625 290.078125 160.96875 290.714844 C 164.25 291.949219 167.957031 292.097656 170.933594 294.089844 C 177.515625 298.5 180.535156 306.425781 186.871094 311.121094 C 187.933594 311.628906 189.203125 311.347656 190.351562 311.441406 C 191.734375 311.324219 193.34375 311.746094 194.523438 310.804688 C 196.625 309.441406 197.894531 307.207031 199.640625 305.46875 C 211.625 289.996094 211.105469 293.917969 219.851562 290.746094 C 222.148438 289.984375 224.378906 288.890625 226.808594 288.640625 C 225.894531 290.4375 223.675781 290.832031 222.324219 292.207031 C 218.929688 295.625 217.480469 300.613281 213.578125 303.597656 C 209.796875 306.230469 205.007812 306.589844 200.953125 308.625 C 200.015625 308.992188 199.527344 309.886719 198.996094 310.671875 C 200.089844 311.546875 201.46875 310.898438 202.71875 310.890625 C 218.578125 308.972656 216.75 309.003906 218.886719 307.003906 C 224.691406 301.292969 227.957031 293.5625 233.699219 287.800781 C 236.277344 285.179688 239.902344 284.175781 242.964844 282.292969 C 245.179688 281.015625 247.148438 279.285156 249.617188 278.503906 C 249.605469 278.808594 249.574219 279.421875 249.5625 279.730469 C 247.691406 281.203125 245.625 282.613281 244.484375 284.773438 C 242.441406 288.019531 241.582031 291.855469 239.472656 295.066406 C 235.9375 300.75 223.671875 302.285156 222.550781 307.070312 C 226.679688 307.4375 241.238281 301.6875 245.289062 299.898438 C 251.347656 291.378906 249.175781 278.945312 263.539062 269.300781 C 265.425781 268.089844 266.121094 265.285156 268.554688 264.984375 C 267.886719 266.5625 266.273438 267.566406 265.851562 269.261719 C 262.648438 281.316406 261.738281 284.925781 259.34375 288.550781 C 256.402344 291.246094 252.558594 292.839844 249.851562 295.820312 C 249.332031 296.402344 249.191406 297.191406 248.992188 297.921875 C 254.785156 295.894531 266.816406 288.566406 267.984375 287.023438 C 268.675781 284.746094 269.089844 276.136719 270.296875 270.152344 C 271.101562 266.25 273.269531 262.820312 275.386719 259.5 C 276.925781 256.949219 279.484375 255.1875 280.882812 252.539062 C 281.5 251.324219 282.261719 250.164062 283.300781 249.269531 C 283.382812 249.503906 283.546875 249.96875 283.628906 250.203125 C 279.875 255.066406 282.875 257.414062 280.6875 267.820312 C 280.351562 269.710938 279.511719 271.511719 278.175781 272.90625 C 270.238281 281.585938 270.609375 282.382812 270.417969 285.171875 C 273.632812 284.167969 284.125 274.671875 288.328125 270.359375 C 287.679688 267.488281 287.886719 264.535156 287.390625 261.644531 C 286.789062 253.023438 286.019531 250.390625 290.222656 240.347656 C 291.175781 237.886719 293.125 235.925781 293.8125 233.351562 C 294.34375 232.148438 294.363281 230.261719 295.976562 230.011719 C 293 236.800781 298.707031 247.652344 296.359375 253.824219 C 294.441406 258.464844 290.628906 262.453125 290.296875 267.652344 C 292.847656 266.792969 302.234375 254.042969 305.582031 248.746094 C 305.722656 245.644531 302.648438 234.976562 302.375 233.628906 C 300.988281 227.132812 299.140625 229.359375 301.121094 219.570312 C 302.019531 215.121094 302.984375 216.46875 304.238281 207.445312 C 304.484375 207.359375 304.960938 207.191406 305.203125 207.109375 C 305.207031 208.691406 304.761719 210.292969 305.140625 211.859375 C 306.757812 217.074219 309.230469 222.035156 310.285156 227.421875 C 311.058594 232.105469 308.613281 236.398438 307.097656 240.652344 C 307.003906 242.242188 306.632812 244.097656 307.640625 245.46875 C 311.433594 239.328125 314.59375 232.808594 317.253906 226.097656 C 317.84375 225.050781 317.113281 223.941406 316.828125 222.925781 C 314.507812 216.90625 312.320312 210.804688 309.300781 205.09375 C 305.546875 199.226562 308.941406 193.890625 308.421875 185.324219 C 308.664062 185.292969 309.148438 185.214844 309.386719 185.175781 C 309.417969 186.242188 309.375 187.3125 309.53125 188.367188 C 311.964844 194.628906 317.472656 199.453125 318.660156 206.222656 C 318.289062 209.628906 315.921875 222.226562 319.246094 220.800781 C 320.074219 218.285156 325.535156 200.800781 323.917969 198.703125 C 310.570312 177.90625 310.046875 181.945312 308.675781 174.214844 C 308.171875 172.035156 308.574219 169.757812 308.03125 167.585938 C 307.722656 165.859375 306.746094 164.011719 307.660156 162.316406 C 308.335938 164.074219 308.558594 166.105469 309.921875 167.519531 C 312.65625 170.527344 315.734375 173.207031 318.460938 176.226562 C 325.585938 184.957031 320.441406 189.304688 323.992188 195.109375 C 324.203125 195.636719 324.566406 195.773438 325.089844 195.519531 C 325.796875 192.1875 326.496094 179.921875 325.9375 173.667969 C 310.710938 158.035156 307.40625 161.144531 303.996094 145.746094 C 303.488281 143.582031 301.933594 141.765625 301.867188 139.480469 C 303.328125 140.421875 303.460938 142.367188 304.832031 143.394531 C 309.25 147.308594 315.03125 149.640625 318.691406 154.417969 C 322.324219 159.996094 322.59375 167.78125 325.578125 168.160156 C 325.589844 162.242188 322.703125 149.660156 322.65625 149.199219 C 315.929688 144.234375 308.597656 140.175781 301.65625 135.539062 C 298.382812 132.183594 297.035156 127.484375 294.332031 123.714844 C 292.699219 121.875 290.59375 120.488281 289.117188 118.5 C 289.386719 118.230469 289.660156 117.960938 289.929688 117.6875 C 300.894531 126.773438 308.632812 125.707031 312.839844 133.4375 C 314.457031 135.714844 318.046875 144.824219 321.152344 144.160156 C 319.160156 136.425781 316.167969 128.925781 312.488281 121.839844 C 306.058594 118.867188 299.210938 116.875 292.582031 114.382812 C 290.949219 113.726562 289.066406 113.386719 287.828125 112.035156 C 285.121094 109.28125 282.886719 106.117188 280.238281 103.3125 C 278.609375 101.613281 276.234375 100.996094 274.40625 99.566406 C 273.855469 99.226562 273.992188 98.488281 273.851562 97.957031 C 276.664062 98.765625 279.023438 100.691406 281.898438 101.335938 C 286.613281 102.867188 291.710938 103.324219 296.109375 105.738281 C 302.0625 108.988281 304.550781 117.558594 310.28125 117.832031 C 307.082031 111.050781 302.558594 104.953125 298.042969 98.988281 C 296.84375 96.851562 287.882812 96.746094 272.457031 94.222656 C 269.542969 93.734375 264.59375 88.992188 261.523438 86.582031 C 259.542969 85.03125 256.957031 84.796875 254.746094 83.730469 C 254.078125 83.492188 253.851562 82.769531 253.589844 82.195312 C 256.484375 82.347656 259.152344 83.761719 262.058594 83.816406 C 266.167969 84.363281 270.335938 84.351562 274.449219 84.839844 C 283.085938 86.011719 285.382812 94.753906 293.675781 94.738281 C 293.6875 93.5625 292.800781 92.761719 292.097656 91.941406 C 287.171875 86.886719 282.265625 81.734375 276.582031 77.535156 C 267.089844 77.382812 250.753906 79.175781 248.367188 78.222656 C 244.976562 77.011719 241.910156 75.085938 238.726562 73.441406 C 236.070312 71.71875 232.742188 72.320312 229.839844 71.304688 C 229.8125 71.015625 229.75 70.421875 229.714844 70.125 C 245.585938 70.75 246.910156 68.039062 253.402344 68.972656 C 261.417969 70.84375 265.074219 77.164062 272.324219 74.511719 C 269.621094 71.53125 259.484375 65.601562 255.949219 63.675781 C 253.65625 63.28125 244.644531 65.996094 237.339844 62.832031 C 231.660156 60.160156 228.222656 54.425781 222.660156 51.597656 C 219.628906 49.953125 216.070312 51.007812 212.863281 50.039062 C 214.46875 47.621094 217.796875 48.175781 220.265625 47.457031 C 251.058594 45.179688 253.65625 60.460938 258.675781 63.121094 C 262.398438 65.265625 266.09375 67.464844 269.605469 69.945312 C 270.300781 70.453125 271.054688 70.867188 271.867188 71.164062 C 270.941406 64.683594 261.183594 63.335938 256.28125 51.210938 C 254.570312 46.839844 251.8125 46.679688 251.644531 44.285156 C 253.46875 44.152344 254.648438 45.679688 256.027344 46.597656 C 258.367188 48.5 261.453125 49.03125 263.914062 50.738281 C 271.378906 55.269531 273.039062 67.78125 275.042969 73.625 C 276.589844 75.574219 278.980469 76.636719 280.691406 78.441406 C 283.824219 81.042969 286.691406 83.933594 289.648438 86.730469 C 290.925781 88.066406 292.070312 89.558594 293.597656 90.632812 C 293.816406 82.832031 282.898438 78.03125 281.640625 69.09375 C 281.242188 65.867188 280.703125 62.210938 277.929688 60.105469 C 276.378906 58.496094 273.792969 57.683594 273.140625 55.375 C 275.34375 54.847656 276.671875 56.777344 278.042969 58.105469 C 281.269531 61.460938 285.441406 63.722656 288.703125 67.046875 C 297.039062 75.96875 295.148438 87.824219 296.144531 93.675781 C 300.132812 98.652344 304.097656 103.667969 307.472656 109.097656 C 308.214844 110.179688 308.699219 111.554688 309.96875 112.15625 C 310.328125 105.683594 303.15625 100.773438 303.15625 90.734375 C 303.164062 87.609375 303.164062 84.425781 302.101562 81.449219 C 300.875 78.117188 296.519531 75.433594 296.277344 73.195312 C 296.820312 73.167969 297.363281 73.140625 297.910156 73.125 C 299.257812 74.527344 300.457031 76.0625 301.558594 77.660156 C 305.164062 82.242188 310.476562 85.8125 312.128906 91.671875 C 313.660156 98.636719 311.585938 105.710938 311.855469 112.734375 C 311.371094 118.011719 314.742188 119.390625 321.261719 137.6875 C 321.511719 137.75 322.003906 137.871094 322.253906 137.933594 C 322.640625 130.78125 317.425781 125.191406 319.914062 115.683594 C 320.378906 112.832031 321.121094 109.949219 320.710938 107.046875 C 319.75 103.109375 316.753906 100.105469 315.488281 96.292969 C 316.058594 96.289062 316.894531 95.824219 317.320312 96.425781 C 319.925781 99.578125 321.46875 103.417969 323.628906 106.855469 C 325.855469 110.90625 328.292969 115.160156 328.339844 119.917969 C 328.050781 127.546875 325.257812 134.734375 323.519531 142.089844 C 322.660156 145.625 325.542969 149.191406 326.847656 162.558594 C 327.128906 162.628906 327.695312 162.769531 327.980469 162.839844 C 328.445312 157.925781 326.769531 152.992188 327.847656 148.097656 C 328.738281 143.53125 331.855469 139.785156 332.804688 135.234375 C 333.441406 130.910156 330.625 127.132812 330.265625 122.921875 C 330.597656 122.925781 331.269531 122.929688 331.597656 122.933594 C 332.792969 124.628906 338.550781 139.835938 337.039062 148.453125 C 334.539062 156.894531 328.578125 164.90625 327.632812 168.761719 C 328.484375 176.820312 328.054688 184.941406 327.375 192.996094 C 331.1875 192.636719 328.535156 180.449219 334.664062 172.222656 C 342.96875 160.601562 338.644531 160.21875 339.472656 151.589844 C 339.785156 151.617188 340.40625 151.675781 340.714844 151.703125 C 341.898438 155.304688 341.777344 159.15625 342.066406 162.898438 C 342.6875 166.105469 342.511719 169.386719 342.53125 172.640625 C 342.765625 178.492188 337.035156 184.976562 332.703125 190.433594 C 327.625 196.992188 326.707031 195.5625 326.136719 201.34375 C 325.304688 206.757812 323.699219 212.015625 322.507812 217.351562 C 324.984375 216.875 325.523438 208.945312 329.089844 204.015625 C 331.449219 199.863281 337.84375 197.734375 339.503906 191.882812 C 340.164062 189.449219 340.355469 186.898438 341.171875 184.503906 C 341.550781 183.796875 342.695312 184.421875 342.511719 185.160156 C 342.082031 189.433594 340.746094 193.578125 340.402344 197.871094 C 337.941406 207.761719 338.507812 206.847656 332.523438 212.214844 C 329.246094 215.226562 325.640625 217.84375 322.109375 220.546875 C 320.640625 221.546875 320.300781 223.40625 319.6875 224.957031 C 317.921875 230.125 315.230469 234.910156 313.152344 239.933594 C 317.371094 239.679688 317.972656 227.007812 327.207031 224.335938 C 337.917969 220.851562 335.070312 215.011719 338.433594 213.265625 C 338.6875 214.347656 338.554688 215.464844 338.121094 216.488281 C 329.3125 238.21875 327.0625 234.335938 311.378906 242.886719 C 310.75 243.6875 305.304688 253.894531 297.039062 263.460938 C 296.910156 263.785156 296.65625 264.421875 296.53125 264.738281 C 302.847656 262.808594 303.476562 254.933594 311.308594 251.519531 C 314.335938 250.339844 317.707031 249.972656 320.457031 248.140625 C 325.417969 244.792969 323.382812 245.574219 327.917969 239.296875 C 328.230469 239.304688 328.847656 239.324219 329.160156 239.335938 C 329.378906 242.371094 327.039062 244.65625 325.710938 247.171875 C 316.582031 261.503906 318.128906 258.816406 296.011719 267.179688 C 294.667969 267.714844 293.140625 267.992188 292.105469 269.097656 C 279.804688 282.105469 276.707031 281.894531 276.253906 284.433594 C 283.445312 282.957031 286.6875 274.867188 293.789062 273.257812 C 297.488281 272.339844 301.527344 273.8125 305.082031 272.089844 C 307.019531 270.90625 308.496094 269.113281 310.304688 267.757812 C 311.230469 267.175781 311.675781 268.703125 311.148438 269.296875 C 309.460938 272.035156 299.839844 281.371094 294.722656 283.609375 C 289.421875 286.117188 273.589844 285.566406 271.664062 286.976562 C 266.507812 290.703125 261.097656 294.109375 255.414062 296.976562 C 254.523438 297.441406 253.558594 297.859375 253.03125 298.769531 C 254.4375 298.816406 255.890625 298.9375 257.261719 298.53125 C 261.8125 297.367188 264.691406 292.792969 269.441406 292.132812 C 273.324219 291.867188 277.261719 292.589844 281.097656 291.765625 C 287.273438 290.582031 284.148438 291.792969 291.371094 287.230469 C 291.605469 287.378906 292.070312 287.675781 292.304688 287.828125 C 291.480469 290.347656 288.957031 291.660156 286.9375 293.117188 C 281.648438 296.78125 276.140625 301.140625 269.417969 301.375 C 248.902344 300.230469 249.34375 299.832031 247.371094 300.953125 C 242.664062 303.109375 237.804688 304.929688 232.882812 306.519531 C 231.386719 307.015625 229.84375 307.386719 228.441406 308.101562 C 232.605469 311.039062 239.027344 306.601562 243.035156 305.289062 C 245.496094 304.527344 247.898438 305.8125 250.253906 306.371094 C 253.605469 307.328125 257.136719 307.039062 260.582031 306.96875 C 263.753906 307.074219 266.230469 304.78125 269.195312 304.054688 C 269.363281 304.246094 269.691406 304.628906 269.855469 304.824219 C 267.972656 306.953125 265.226562 308.003906 262.644531 309.027344 C 256.503906 311.40625 250.253906 314.183594 243.535156 314.101562 C 230.644531 312.511719 227.210938 309.804688 224.398438 309.007812 C 206.625 313.601562 204.3125 311.324219 202.363281 313.445312 C 204.296875 314.054688 206.328125 314.925781 208.390625 314.351562 C 211.53125 313.90625 214.796875 312.589844 217.9375 313.71875 C 219.640625 314.273438 221.023438 315.476562 222.664062 316.183594 C 226.160156 317.871094 232.84375 319.042969 240.929688 317.433594 C 241.070312 317.65625 241.363281 318.105469 241.507812 318.332031 C 239.308594 320.1875 236.261719 320.179688 233.566406 320.628906 C 215.0625 323.984375 214.644531 322.269531 208.300781 319.367188 C 204.832031 317.675781 201.5 315.695312 198.46875 313.304688 C 197.203125 313.105469 195.917969 313.246094 194.65625 313.308594 C 195.699219 314.769531 197.496094 315.382812 198.859375 316.496094 C 213.230469 327.332031 212.882812 334.253906 226.011719 334.335938 C 219.9375 336.4375 213.421875 337.503906 206.996094 337.148438 C 203.4375 320.4375 193.472656 313.296875 189.9375 313.730469 C 181.257812 316.339844 175.976562 328.039062 173.847656 337.230469 C 167.390625 337.378906 160.855469 336.503906 154.777344 334.292969 C 168.445312 334.078125 168.292969 326.597656 182.785156 315.964844 C 183.859375 315.105469 185.382812 314.664062 185.9375 313.296875 C 184.527344 313.359375 182.855469 312.734375 181.699219 313.832031 C 178.175781 316.546875 174.238281 318.6875 170.195312 320.523438 C 164.070312 323.851562 156.839844 322.257812 150.332031 321.203125 C 146.910156 320.1875 143.121094 320.609375 139.925781 318.84375 C 139.789062 318.382812 139.675781 317.910156 139.601562 317.4375 C 142.316406 317.65625 144.980469 318.574219 147.722656 318.320312 C 150.632812 317.921875 153.625 317.953125 156.421875 316.953125 C 159.589844 316.058594 162.054688 313.324219 165.464844 313.203125 C 168.222656 313.335938 170.878906 314.195312 173.605469 314.523438 C 175.199219 314.730469 176.699219 314.070312 178.1875 313.621094 C 178.214844 313.414062 178.261719 312.996094 178.285156 312.789062 C 170.925781 311.960938 163.578125 310.832031 156.394531 308.972656 C 150.675781 311.742188 144.40625 313.148438 138.144531 314.046875 C 130.84375 314.40625 124.070312 311.199219 117.378906 308.738281 C 115.390625 307.832031 113.246094 307.03125 111.714844 305.410156 C 111.125 304.917969 111.335938 303.671875 112.289062 304.25 C 117.117188 305.957031 116.535156 307.683594 128.511719 306.878906 C 131.785156 306.558594 134.921875 304.292969 138.253906 305.433594 C 143.480469 306.945312 144.949219 309.976562 151.574219 308.730469 C 151.722656 308.484375 152.019531 307.996094 152.167969 307.75 C 145.746094 305.992188 139.460938 303.691406 133.414062 300.882812 C 131.667969 299.886719 129.621094 300.320312 127.714844 300.398438 C 123.367188 300.929688 118.960938 300.625 114.621094 301.214844 C 111.875 301.558594 109.066406 301.320312 106.429688 300.488281 C 101.089844 298.632812 90.785156 291.183594 89.09375 289.199219 C 88.804688 288.605469 88.738281 287.210938 89.710938 287.328125 C 92.722656 289.179688 94.949219 293.003906 109.402344 292.074219 C 116.800781 291.386719 119.910156 300.183594 127.878906 298.710938 C 127.417969 298.179688 126.878906 297.75 126.253906 297.453125 C 120.328125 294.296875 114.554688 290.84375 109.101562 286.929688 C 105.496094 285.824219 101.601562 286.15625 97.894531 285.519531 C 88.417969 284.929688 85.316406 284.667969 77.507812 277.320312 C 74.714844 274.613281 71.496094 272.253906 69.46875 268.867188 C 69.59375 268.511719 69.835938 267.808594 69.960938 267.453125 C 72.289062 268.640625 73.738281 270.988281 76.035156 272.21875 C 80.011719 273.890625 84.5 272.054688 88.5 273.664062 C 94.792969 275.878906 97.941406 283.355469 104.835938 284.285156 C 104.480469 283.613281 104.023438 283.007812 103.414062 282.550781 C 98.285156 278.457031 93.445312 274 88.976562 269.195312 C 87.136719 266.945312 68.171875 262.59375 63.269531 258.003906 C 58.941406 253.863281 56 248.570312 52.976562 243.46875 C 52.1875 242.023438 50.917969 240.164062 52.445312 238.761719 C 55.933594 242.414062 55.253906 245.269531 61.230469 248.617188 C 64.398438 250.40625 68.21875 250.535156 71.34375 252.417969 C 76.914062 255.492188 79.265625 263.957031 84.835938 264.832031 C 83.695312 262.96875 82.109375 261.441406 80.765625 259.726562 C 62.050781 234.925781 78.53125 248.519531 54.953125 235.652344 C 50.539062 233.175781 47.671875 227.125 44.597656 220.738281 C 43.597656 218.335938 41.941406 215.96875 42.597656 213.230469 C 44.972656 215.179688 44.925781 218.820312 47.324219 220.800781 C 50.035156 223.863281 54.515625 223.871094 57.628906 226.335938 C 62.929688 230.308594 63.792969 238.804688 67.859375 240.339844 C 67.714844 239.640625 67.53125 238.953125 67.179688 238.328125 C 59.820312 223.667969 60.871094 221.875 59.199219 220.871094 C 42.390625 208.292969 42.359375 206.984375 40.71875 198.816406 C 39.535156 189.910156 38.070312 187.058594 38.597656 184.246094 C 38.890625 184.238281 39.472656 184.230469 39.765625 184.21875 C 40.796875 187.910156 40.6875 192.085938 43.167969 195.214844 C 45.675781 198.78125 49.890625 200.699219 52.191406 204.433594 C 56.089844 210.722656 55.699219 216.660156 58.398438 216.976562 C 56.867188 211.035156 55.152344 205.109375 54.4375 198.996094 C 54.167969 195.667969 46.925781 190.660156 40.089844 179.230469 C 37.503906 174.277344 38.339844 168.5 38.8125 163.164062 C 39.496094 159.363281 38.636719 155.253906 40.328125 151.667969 C 40.648438 151.660156 41.285156 151.648438 41.601562 151.644531 C 41.855469 155.128906 40.886719 158.570312 41.15625 162.050781 C 42.769531 170.449219 48.941406 171.945312 50.332031 183.128906 C 50.96875 186.972656 51.109375 192.519531 53.519531 192.535156 C 53.160156 186.0625 52.347656 179.5625 52.996094 173.070312 C 52.957031 170.960938 53.78125 168.632812 52.59375 166.714844 C 44.117188 150.628906 41.203125 147.855469 45.453125 133.941406 C 46.492188 130.5625 47.152344 127.035156 48.800781 123.875 C 49.148438 123.167969 49.890625 122.816406 50.515625 122.390625 C 50.789062 126.335938 47.992188 129.832031 47.980469 133.761719 C 48.386719 139.023438 52.171875 143.183594 53.121094 148.285156 C 53.988281 158.210938 51.671875 160.246094 53.375 163.011719 C 54.785156 161.273438 53.414062 161.003906 57.273438 145.699219 C 58.027344 142.058594 56.390625 138.578125 55.480469 135.132812 C 51.191406 117.5 51.0625 117.972656 59.3125 103.332031 C 60.75 100.960938 61.8125 98.316406 63.738281 96.277344 C 64.253906 96.144531 64.773438 96.0625 65.3125 96.039062 C 64.464844 100.390625 60.464844 103.5 60.105469 108.015625 C 59.875 113.003906 62.179688 117.804688 61.5 122.808594 C 61.316406 128.019531 58.226562 132.757812 58.816406 138.050781 C 59.039062 138.019531 59.496094 137.949219 59.726562 137.917969 C 61.699219 131.167969 64.808594 124.808594 67.878906 118.503906 C 70.171875 113.898438 68.261719 103.398438 68.359375 99.320312 C 68.519531 91.734375 66.929688 90.402344 77.273438 80.125 C 79.359375 78.039062 80.695312 75.300781 82.933594 73.347656 C 83.425781 73.1875 83.933594 73.066406 84.457031 73.003906 C 84.328125 73.738281 84.414062 74.617188 83.773438 75.144531 C 77.316406 82.027344 78.417969 81.082031 77.660156 91.199219 C 77.96875 99.652344 70.8125 105.972656 70.90625 111.972656 C 72.90625 111.535156 71.09375 110.859375 84.644531 93.878906 C 85.667969 89.785156 84.308594 79.941406 88.96875 71.191406 C 91.261719 67.230469 95.050781 64.476562 98.628906 61.757812 C 101.058594 60.078125 102.921875 57.742188 105.21875 55.90625 C 105.796875 55.367188 106.617188 55.335938 107.347656 55.160156 C 107.347656 55.511719 107.351562 56.214844 107.351562 56.570312 C 105.453125 58.363281 103.074219 59.652344 101.441406 61.726562 C 98.878906 65.277344 99.9375 70.070312 97.691406 73.742188 C 94.269531 79.863281 87.585938 84.015625 87.320312 90.449219 C 88.867188 89.566406 89.921875 88.078125 91.167969 86.839844 C 93.664062 84.382812 96.117188 81.875 98.832031 79.648438 C 100.933594 77.566406 103.527344 76.050781 105.574219 73.921875 C 107.917969 69.890625 108.3125 55.171875 118.382812 49.929688 C 120.554688 48.699219 123.066406 48.089844 125.035156 46.5 Z M 125.035156 46.5 " fill-opacity="1" fill-rule="nonzero"/></g><path fill="#5271ff" d="M 187.667969 81.285156 C 189.480469 81.140625 191.292969 81.1875 193.105469 81.304688 C 193.628906 86.230469 193.085938 91.222656 193.398438 96.171875 C 196.644531 92.933594 198.667969 88.601562 201.960938 85.40625 C 201.640625 120.953125 202.453125 121.070312 201.503906 122.488281 C 198.839844 126.179688 195.925781 129.703125 193.417969 133.496094 C 193.226562 135.863281 193.191406 138.300781 193.492188 140.660156 C 203.394531 131.664062 211.773438 134.46875 229.398438 132.386719 C 236.570312 131.253906 244.179688 129.691406 249.804688 124.757812 C 251.675781 123.132812 252.515625 120.757812 253.078125 118.421875 C 255.238281 115.921875 259.496094 115.46875 261.992188 117.726562 C 263.761719 119.921875 263.644531 123.246094 262.015625 125.484375 C 260.8125 126.910156 258.976562 127.507812 257.433594 128.464844 C 257.824219 129.484375 291.976562 206.261719 294.25 208.152344 C 272.585938 230.347656 237.488281 228.757812 218.042969 208.085938 C 220.339844 207.183594 217.109375 213.007812 252.960938 134.058594 C 253.640625 132.585938 254.355469 131.117188 254.824219 129.5625 C 235.46875 134.238281 201.273438 136.492188 193.558594 154.3125 C 193.214844 155.128906 193.15625 263.195312 193.464844 266 C 195.941406 264.664062 198.425781 263.34375 200.96875 262.140625 C 198.027344 269.472656 194.402344 276.519531 191.292969 283.792969 C 190.96875 284.214844 190.945312 285.429688 190.175781 284.9375 C 186.734375 277.316406 183.21875 269.726562 179.800781 262.089844 C 182.503906 263.1875 184.914062 264.910156 187.632812 265.984375 C 187.699219 249.070312 187.710938 161.757812 187.628906 154.90625 C 180.464844 136.378906 143.234375 133.820312 126.128906 129.554688 C 126.480469 130.941406 124.398438 126.214844 160.632812 206.066406 C 160.953125 207.101562 161.753906 207.753906 162.699219 208.207031 C 142.914062 229.445312 106.753906 229.570312 86.824219 208.15625 C 88.695312 206.496094 122.335938 131.300781 123.433594 128.464844 C 121.941406 127.578125 120.277344 126.878906 119.019531 125.660156 C 114.71875 119.871094 120.664062 112.832031 127.625 118.003906 C 128.804688 120.542969 127.992188 125.453125 140.28125 129.832031 C 158.84375 136.214844 174.03125 129.753906 185.253906 138.957031 C 186.023438 139.566406 186.792969 140.179688 187.625 140.703125 C 187.683594 138.40625 187.726562 136.109375 187.660156 133.8125 C 185.105469 129.71875 181.859375 126.074219 179.183594 122.054688 C 178.988281 120.773438 179.097656 85.554688 179.097656 85.371094 C 183.300781 90.289062 185.777344 94.863281 187.617188 96.199219 C 187.777344 91.226562 187.628906 86.253906 187.667969 81.28125 M 189.210938 84.367188 C 189.421875 86.746094 188.734375 89.28125 189.664062 91.542969 C 191.898438 90.550781 191.636719 93.570312 191.597656 84.199219 C 190.800781 84.257812 190.003906 84.304688 189.210938 84.367188 M 194.011719 99.640625 C 192.851562 100.929688 193.253906 102.800781 193.101562 104.378906 C 193.34375 104.3125 193.824219 104.179688 194.066406 104.113281 C 195.769531 102.085938 197.210938 99.835938 198.871094 97.765625 C 200.183594 96.265625 199.625 94.144531 199.585938 92.335938 C 197.558594 94.636719 195.917969 97.242188 194.011719 99.640625 M 181.085938 92.691406 C 181.085938 93.945312 181.027344 95.203125 181.109375 96.457031 C 182.320312 98.550781 183.976562 100.347656 185.363281 102.320312 C 186.019531 103.1875 186.484375 104.394531 187.734375 104.496094 C 187.675781 103.128906 187.917969 101.707031 187.523438 100.382812 C 186.382812 98.640625 184.980469 97.09375 183.832031 95.359375 C 183.070312 94.332031 182.484375 92.945312 181.085938 92.691406 M 197.203125 103.832031 C 195.90625 105.730469 194.335938 107.4375 193.136719 109.398438 C 193.003906 110.515625 193.046875 111.644531 193.046875 112.773438 C 193.296875 112.660156 193.789062 112.445312 194.039062 112.339844 C 201.222656 102.507812 199.582031 105.929688 199.707031 101.070312 C 198.507812 101.605469 197.953125 102.835938 197.203125 103.832031 M 181.070312 101.179688 C 181.097656 102.28125 180.9375 103.421875 181.207031 104.507812 C 182.183594 106.222656 183.542969 107.675781 184.664062 109.289062 C 185.554688 110.519531 186.304688 111.9375 187.671875 112.714844 C 187.714844 111.601562 187.777344 110.480469 187.644531 109.375 C 186.074219 106.613281 183.949219 104.226562 182.050781 101.695312 C 181.804688 101.566406 181.316406 101.308594 181.070312 101.179688 M 181.113281 109.136719 C 181.058594 110.328125 181.007812 111.53125 181.125 112.722656 C 182.207031 114.375 183.542969 115.851562 184.605469 117.519531 C 185.429688 118.617188 186.136719 120.078125 187.644531 120.296875 C 187.621094 119.234375 187.820312 118.144531 187.597656 117.097656 C 182.621094 110.023438 182.222656 109.648438 181.113281 109.136719 M 196.371094 113.050781 C 195.410156 114.460938 194.289062 115.765625 193.339844 117.1875 C 193.242188 118.324219 193.296875 119.464844 193.324219 120.601562 C 193.863281 120.316406 194.4375 120.039062 194.746094 119.484375 C 196.335938 117.183594 198.1875 115.070312 199.730469 112.742188 C 199.84375 111.484375 199.757812 110.214844 199.652344 108.957031 C 198.207031 110.011719 197.40625 111.640625 196.371094 113.050781 M 196.40625 121.207031 C 195.324219 122.710938 194.042969 124.082031 193.152344 125.714844 C 192.96875 126.730469 193.261719 127.753906 193.355469 128.765625 C 195.652344 127.21875 196.785156 124.453125 198.640625 122.4375 C 200.082031 121.105469 199.742188 119.089844 199.664062 117.335938 C 198.21875 118.289062 197.453125 119.890625 196.40625 121.207031 M 181.054688 117.609375 C 181.078125 118.671875 180.972656 119.75 181.164062 120.808594 C 182.136719 122.40625 183.382812 123.808594 184.40625 125.371094 C 185.402344 126.648438 186.183594 128.207031 187.675781 128.984375 C 187.433594 124.011719 189.269531 127.796875 182.875 118.835938 C 182.460938 118.171875 181.800781 117.773438 181.054688 117.609375 M 91.4375 203.058594 C 90.773438 204.601562 89.875 206.070312 89.617188 207.757812 C 112.921875 207.839844 136.230469 207.8125 159.542969 207.773438 C 158.386719 204.453125 125.484375 131.957031 124.363281 130.714844 C 113.292969 154.785156 102.417969 178.945312 91.4375 203.058594 M 256.070312 130.980469 C 219.785156 210.921875 221.730469 206.214844 221.5 207.78125 C 244.808594 207.820312 268.113281 207.816406 291.425781 207.777344 C 290.882812 205.847656 271.214844 162.996094 257.246094 132.117188 C 257.007812 131.566406 256.808594 130.890625 256.070312 130.976562 Z M 256.070312 130.980469 " fill-opacity="1" fill-rule="nonzero"/><g fill="#ffffff" fill-opacity="1"><g transform="translate(363.454559, 222.207298)"><g><path d="M 52.375 -12 L 26.296875 -12 L 22.328125 0 L 0.828125 0 L 27.65625 -73.5625 L 51.234375 -73.5625 L 77.9375 0 L 56.34375 0 Z M 47.265625 -27.65625 L 39.34375 -51.4375 L 31.515625 -27.65625 Z M 47.265625 -27.65625 "/></g></g></g><g fill="#ffffff" fill-opacity="1"><g transform="translate(442.235205, 222.207298)"><g><path d="M 26.296875 -50.390625 C 27.890625 -53.109375 30.144531 -55.265625 33.0625 -56.859375 C 35.988281 -58.460938 39.4375 -59.265625 43.40625 -59.265625 C 48.0625 -59.265625 52.285156 -58.046875 56.078125 -55.609375 C 59.867188 -53.179688 62.859375 -49.707031 65.046875 -45.1875 C 67.242188 -40.664062 68.34375 -35.378906 68.34375 -29.328125 C 68.34375 -23.273438 67.242188 -17.96875 65.046875 -13.40625 C 62.859375 -8.851562 59.867188 -5.359375 56.078125 -2.921875 C 52.285156 -0.484375 48.0625 0.734375 43.40625 0.734375 C 39.4375 0.734375 36.007812 -0.0625 33.125 -1.65625 C 30.238281 -3.257812 27.960938 -5.421875 26.296875 -8.140625 L 26.296875 27.96875 L 5.84375 27.96875 L 5.84375 -58.53125 L 26.296875 -58.53125 Z M 47.578125 -29.328125 C 47.578125 -33.148438 46.550781 -36.117188 44.5 -38.234375 C 42.445312 -40.359375 39.925781 -41.421875 36.9375 -41.421875 C 33.945312 -41.421875 31.425781 -40.34375 29.375 -38.1875 C 27.320312 -36.03125 26.296875 -33.078125 26.296875 -29.328125 C 26.296875 -25.492188 27.320312 -22.5 29.375 -20.34375 C 31.425781 -18.1875 33.945312 -17.109375 36.9375 -17.109375 C 39.925781 -17.109375 42.445312 -18.203125 44.5 -20.390625 C 46.550781 -22.585938 47.578125 -25.566406 47.578125 -29.328125 Z M 47.578125 -29.328125 "/></g></g></g><g fill="#ffffff" fill-opacity="1"><g transform="translate(513.189968, 222.207298)"><g><path d="M 44.140625 -59.0625 C 50.890625 -59.0625 56.242188 -56.816406 60.203125 -52.328125 C 64.171875 -47.835938 66.15625 -41.769531 66.15625 -34.125 L 66.15625 0 L 45.703125 0 L 45.703125 -31.40625 C 45.703125 -34.75 44.832031 -37.375 43.09375 -39.28125 C 41.351562 -41.195312 39.023438 -42.15625 36.109375 -42.15625 C 33.046875 -42.15625 30.644531 -41.195312 28.90625 -39.28125 C 27.164062 -37.375 26.296875 -34.75 26.296875 -31.40625 L 26.296875 0 L 5.84375 0 L 5.84375 -58.53125 L 26.296875 -58.53125 L 26.296875 -50.1875 C 28.097656 -52.832031 30.53125 -54.972656 33.59375 -56.609375 C 36.65625 -58.242188 40.171875 -59.0625 44.140625 -59.0625 Z M 44.140625 -59.0625 "/></g></g></g><g fill="#ffffff" fill-opacity="1"><g transform="translate(584.770809, 222.207298)"><g><path d="M 2.5 -29.328125 C 2.5 -35.378906 3.59375 -40.664062 5.78125 -45.1875 C 7.976562 -49.707031 10.972656 -53.179688 14.765625 -55.609375 C 18.554688 -58.046875 22.78125 -59.265625 27.4375 -59.265625 C 31.476562 -59.265625 34.957031 -58.460938 37.875 -56.859375 C 40.800781 -55.265625 43.0625 -53.109375 44.65625 -50.390625 L 44.65625 -58.53125 L 65.109375 -58.53125 L 65.109375 0 L 44.65625 0 L 44.65625 -8.140625 C 43.0625 -5.421875 40.785156 -3.257812 37.828125 -1.65625 C 34.867188 -0.0625 31.40625 0.734375 27.4375 0.734375 C 22.78125 0.734375 18.554688 -0.484375 14.765625 -2.921875 C 10.972656 -5.359375 7.976562 -8.851562 5.78125 -13.40625 C 3.59375 -17.96875 2.5 -23.273438 2.5 -29.328125 Z M 44.65625 -29.328125 C 44.65625 -33.078125 43.628906 -36.03125 41.578125 -38.1875 C 39.523438 -40.34375 37.003906 -41.421875 34.015625 -41.421875 C 30.953125 -41.421875 28.410156 -40.359375 26.390625 -38.234375 C 24.378906 -36.117188 23.375 -33.148438 23.375 -29.328125 C 23.375 -25.566406 24.378906 -22.585938 26.390625 -20.390625 C 28.410156 -18.203125 30.953125 -17.109375 34.015625 -17.109375 C 37.003906 -17.109375 39.523438 -18.1875 41.578125 -20.34375 C 43.628906 -22.5 44.65625 -25.492188 44.65625 -29.328125 Z M 44.65625 -29.328125 "/></g></g></g><g fill="#ffffff" fill-opacity="1"><g transform="translate(655.725572, 222.207298)"><g/></g></g><g fill="#ffffff" fill-opacity="1"><g transform="translate(675.655522, 222.207298)"><g><path d="M 109.453125 -73.5625 L 91.40625 0 L 66.265625 0 L 56.140625 -45.078125 L 45.8125 0 L 20.65625 0 L 2.8125 -73.5625 L 24.9375 -73.5625 L 33.5 -23.265625 L 45.078125 -73.5625 L 67.515625 -73.5625 L 78.78125 -23.6875 L 87.328125 -73.5625 Z M 109.453125 -73.5625 "/></g></g></g><g fill="#ffffff" fill-opacity="1"><g transform="translate(787.930976, 222.207298)"><g><path d="M 2.5 -29.328125 C 2.5 -35.378906 3.59375 -40.664062 5.78125 -45.1875 C 7.976562 -49.707031 10.972656 -53.179688 14.765625 -55.609375 C 18.554688 -58.046875 22.78125 -59.265625 27.4375 -59.265625 C 31.476562 -59.265625 34.957031 -58.460938 37.875 -56.859375 C 40.800781 -55.265625 43.0625 -53.109375 44.65625 -50.390625 L 44.65625 -58.53125 L 65.109375 -58.53125 L 65.109375 0 L 44.65625 0 L 44.65625 -8.140625 C 43.0625 -5.421875 40.785156 -3.257812 37.828125 -1.65625 C 34.867188 -0.0625 31.40625 0.734375 27.4375 0.734375 C 22.78125 0.734375 18.554688 -0.484375 14.765625 -2.921875 C 10.972656 -5.359375 7.976562 -8.851562 5.78125 -13.40625 C 3.59375 -17.96875 2.5 -23.273438 2.5 -29.328125 Z M 44.65625 -29.328125 C 44.65625 -33.078125 43.628906 -36.03125 41.578125 -38.1875 C 39.523438 -40.34375 37.003906 -41.421875 34.015625 -41.421875 C 30.953125 -41.421875 28.410156 -40.359375 26.390625 -38.234375 C 24.378906 -36.117188 23.375 -33.148438 23.375 -29.328125 C 23.375 -25.566406 24.378906 -22.585938 26.390625 -20.390625 C 28.410156 -18.203125 30.953125 -17.109375 34.015625 -17.109375 C 37.003906 -17.109375 39.523438 -18.1875 41.578125 -20.34375 C 43.628906 -22.5 44.65625 -25.492188 44.65625 -29.328125 Z M 44.65625 -29.328125 "/></g></g></g><g fill="#ffffff" fill-opacity="1"><g transform="translate(858.885738, 222.207298)"><g><path d="M 2.5 -29 C 2.5 -34.78125 3.695312 -39.945312 6.09375 -44.5 C 8.5 -49.0625 11.703125 -52.628906 15.703125 -55.203125 C 19.703125 -57.773438 24.066406 -59.0625 28.796875 -59.0625 C 35.617188 -59.0625 40.90625 -56.90625 44.65625 -52.59375 L 44.65625 -58.53125 L 65.109375 -58.53125 L 65.109375 27.96875 L 44.65625 27.96875 L 44.65625 -6.890625 C 40.34375 -1.804688 35.019531 0.734375 28.6875 0.734375 C 23.957031 0.734375 19.59375 -0.515625 15.59375 -3.015625 C 11.59375 -5.523438 8.410156 -9.039062 6.046875 -13.5625 C 3.679688 -18.082031 2.5 -23.226562 2.5 -29 Z M 44.65625 -29.328125 C 44.65625 -33.210938 43.554688 -36.179688 41.359375 -38.234375 C 39.171875 -40.285156 36.722656 -41.3125 34.015625 -41.3125 C 31.304688 -41.3125 28.851562 -40.25 26.65625 -38.125 C 24.46875 -36.007812 23.375 -32.96875 23.375 -29 C 23.375 -25.039062 24.453125 -22.066406 26.609375 -20.078125 C 28.765625 -18.097656 31.234375 -17.109375 34.015625 -17.109375 C 36.722656 -17.109375 39.171875 -18.148438 41.359375 -20.234375 C 43.554688 -22.328125 44.65625 -25.359375 44.65625 -29.328125 Z M 44.65625 -29.328125 "/></g></g></g><g fill="#ffffff" fill-opacity="1"><g transform="translate(929.840501, 222.207298)"><g><path d="M 61.765625 -29.953125 C 61.765625 -28.347656 61.660156 -26.742188 61.453125 -25.140625 L 22.75 -25.140625 C 22.957031 -21.941406 23.84375 -19.5625 25.40625 -18 C 26.96875 -16.4375 28.96875 -15.65625 31.40625 -15.65625 C 34.8125 -15.65625 37.25 -17.1875 38.71875 -20.25 L 60.515625 -20.25 C 59.609375 -16.207031 57.851562 -12.601562 55.25 -9.4375 C 52.644531 -6.28125 49.359375 -3.796875 45.390625 -1.984375 C 41.421875 -0.171875 37.039062 0.734375 32.25 0.734375 C 26.46875 0.734375 21.332031 -0.484375 16.84375 -2.921875 C 12.363281 -5.359375 8.851562 -8.835938 6.3125 -13.359375 C 3.769531 -17.878906 2.5 -23.203125 2.5 -29.328125 C 2.5 -35.441406 3.75 -40.742188 6.25 -45.234375 C 8.757812 -49.722656 12.257812 -53.179688 16.75 -55.609375 C 21.238281 -58.046875 26.40625 -59.265625 32.25 -59.265625 C 38.019531 -59.265625 43.128906 -58.082031 47.578125 -55.71875 C 52.035156 -53.351562 55.515625 -49.960938 58.015625 -45.546875 C 60.515625 -41.128906 61.765625 -35.929688 61.765625 -29.953125 Z M 40.90625 -35.0625 C 40.90625 -37.5625 40.066406 -39.523438 38.390625 -40.953125 C 36.722656 -42.378906 34.640625 -43.09375 32.140625 -43.09375 C 29.628906 -43.09375 27.570312 -42.414062 25.96875 -41.0625 C 24.375 -39.707031 23.332031 -37.707031 22.84375 -35.0625 Z M 40.90625 -35.0625 "/></g></g></g><g fill="#ffffff" fill-opacity="1"><g transform="translate(994.117204, 222.207298)"><g><path d="M 61.765625 -29.953125 C 61.765625 -28.347656 61.660156 -26.742188 61.453125 -25.140625 L 22.75 -25.140625 C 22.957031 -21.941406 23.84375 -19.5625 25.40625 -18 C 26.96875 -16.4375 28.96875 -15.65625 31.40625 -15.65625 C 34.8125 -15.65625 37.25 -17.1875 38.71875 -20.25 L 60.515625 -20.25 C 59.609375 -16.207031 57.851562 -12.601562 55.25 -9.4375 C 52.644531 -6.28125 49.359375 -3.796875 45.390625 -1.984375 C 41.421875 -0.171875 37.039062 0.734375 32.25 0.734375 C 26.46875 0.734375 21.332031 -0.484375 16.84375 -2.921875 C 12.363281 -5.359375 8.851562 -8.835938 6.3125 -13.359375 C 3.769531 -17.878906 2.5 -23.203125 2.5 -29.328125 C 2.5 -35.441406 3.75 -40.742188 6.25 -45.234375 C 8.757812 -49.722656 12.257812 -53.179688 16.75 -55.609375 C 21.238281 -58.046875 26.40625 -59.265625 32.25 -59.265625 C 38.019531 -59.265625 43.128906 -58.082031 47.578125 -55.71875 C 52.035156 -53.351562 55.515625 -49.960938 58.015625 -45.546875 C 60.515625 -41.128906 61.765625 -35.929688 61.765625 -29.953125 Z M 40.90625 -35.0625 C 40.90625 -37.5625 40.066406 -39.523438 38.390625 -40.953125 C 36.722656 -42.378906 34.640625 -43.09375 32.140625 -43.09375 C 29.628906 -43.09375 27.570312 -42.414062 25.96875 -41.0625 C 24.375 -39.707031 23.332031 -37.707031 22.84375 -35.0625 Z M 40.90625 -35.0625 "/></g></g></g><g fill="#ffffff" fill-opacity="1"><g transform="translate(1058.393907, 222.207298)"><g><path d="M 26.296875 -77.21875 L 26.296875 0 L 5.84375 0 L 5.84375 -77.21875 Z M 26.296875 -77.21875 "/></g></g></g></svg>