<svg xmlns="http://www.w3.org/2000/svg" xmlns:xlink="http://www.w3.org/1999/xlink" viewBox="0,0,256,256" width="64px" height="64px" fill-rule="nonzero"><g fill="none" fill-rule="nonzero" stroke="none" stroke-width="1" stroke-linecap="butt" stroke-linejoin="miter" stroke-miterlimit="10" stroke-dasharray="" stroke-dashoffset="0" font-family="none" font-weight="none" font-size="none" text-anchor="none" style="mix-blend-mode: normal"><g transform="scale(2,2)"><path d="M93.1,56h-12.2c-2.4,0 -4.4,-2 -4.4,-4.4v-2c1.4,-3.5 2.5,-7 3.2,-10.6c0.3,-1.3 0.5,-2.6 0.7,-3.9l0.6,-4c0.6,-4.4 -2.5,-8.4 -6.8,-9c-4.4,-0.6 -8.4,2.5 -9,6.8l-0.6,4c-1.9,13.5 -9.4,25.5 -20.6,33.1h-10h-2h-11v40h13v0v0l9.4,3.5c4.4,1.6 9.1,2.5 13.7,2.5h29.6c4.8,0 8.9,-3.4 9.7,-8.1l6.1,-33.9l0.4,-2.3c1.1,-6.1 -3.6,-11.7 -9.8,-11.7z" fill="#000000"></path><path d="M86.6,115h-29.8c-4.8,0 -9.4,-0.8 -13.9,-2.5c-1.6,-0.6 -2.3,-2.3 -1.8,-3.9c0.6,-1.6 2.3,-2.3 3.9,-1.8c3.8,1.4 7.7,2.1 11.8,2.1h29.8c3.4,0 6.3,-2.4 6.9,-5.8l6.4,-36c0.4,-2 -0.2,-4.1 -1.5,-5.7c-1.3,-1.6 -3.3,-2.4 -5.3,-2.4h-20.1c-1.7,0 -3,-1.3 -3,-3c0,-1.7 1.3,-3 3,-3h20.1c3.9,0 7.5,1.7 10,4.7c2.5,3 3.5,6.8 2.8,10.6l-6.4,36c-1.2,6.2 -6.6,10.7 -12.9,10.7zM34,109h-10c-1.7,0 -3,-1.3 -3,-3c0,-1.7 1.3,-3 3,-3h7v-34h-7c-1.7,0 -3,-1.3 -3,-3c0,-1.7 1.3,-3 3,-3h10c1.7,0 3,1.3 3,3v40c0,1.7 -1.3,3 -3,3z" fill="#ffffff"></path><path d="M44,69c-1,0 -1.9,-0.5 -2.5,-1.3c-0.9,-1.4 -0.6,-3.2 0.8,-4.2c10.5,-7.2 17.5,-18.5 19.2,-31l0.6,-4c0.4,-2.9 1.9,-5.5 4.3,-7.3c2.3,-1.8 5.2,-2.5 8.1,-2.1c2.9,0.4 5.5,1.9 7.3,4.3c1.8,2.4 2.5,5.2 2.1,8.1l-0.6,4c-0.6,4.1 -1.5,8.1 -2.8,12c-0.5,1.6 -2.2,2.4 -3.8,1.9c-1.6,-0.5 -2.4,-2.2 -1.9,-3.8c1.2,-3.5 2,-7.2 2.5,-10.9l0.6,-4c0.2,-1.3 -0.2,-2.6 -1,-3.7c-0.8,-1.1 -2,-1.8 -3.3,-1.9c-1.3,-0.2 -2.6,0.2 -3.7,1c-1.1,0.8 -1.8,2 -1.9,3.3l-0.6,4c-2,14.2 -9.9,27 -21.8,35.2c-0.4,0.2 -1,0.4 -1.6,0.4z" fill="#ffffff"></path></g></g></svg>