<svg xmlns="http://www.w3.org/2000/svg" xmlns:xlink="http://www.w3.org/1999/xlink" viewBox="0,0,256,256" width="50px" height="50px" fill-rule="nonzero"><g fill="#ffffff" fill-rule="nonzero" stroke="none" stroke-width="1" stroke-linecap="butt" stroke-linejoin="miter" stroke-miterlimit="10" stroke-dasharray="" stroke-dashoffset="0" font-family="none" font-weight="none" font-size="none" text-anchor="none" style="mix-blend-mode: normal"><g transform="scale(5.12,5.12)"><path d="M25,0c-2.45312,0 -4.52344,1.36719 -7.59375,2.94531c-3.07422,1.58203 -7.1875,3.48828 -13.62109,4.89844l-0.78516,0.17578v0.80078c0,15.32422 5.35547,25.55078 10.73438,31.89844c5.38281,6.35156 10.84375,8.88281 10.84375,8.88281l0.44141,0.20313l0.43359,-0.21875c0,0 21.54688,-11.10547 21.54688,-40.76562v-0.80078l-0.78516,-0.17578c-6.43359,-1.41016 -10.54687,-3.31641 -13.62109,-4.89844c-3.07031,-1.57812 -5.14062,-2.94531 -7.59375,-2.94531zM25,2c1.64453,0 3.54297,1.10938 6.68359,2.72656c2.97656,1.53125 7.17969,3.38672 13.25391,4.82031c-0.35547,27.13281 -18.66016,37.29297 -19.95312,37.97266c-0.625,-0.30078 -4.95312,-2.46484 -9.71875,-8.09375c-5.03125,-5.93359 -10.02344,-15.46484 -10.20312,-29.87891c6.07422,-1.43359 10.27734,-3.28906 13.25391,-4.82031c3.14063,-1.61719 5.03906,-2.72656 6.68359,-2.72656zM25,16c-2.21094,0 -4,1.78906 -4,4c0,1.34766 0.68359,2.60547 1.8125,3.34375l-1.8125,8.15625h8l-1.8125,-8.15625c1.12891,-0.73437 1.8125,-1.99609 1.8125,-3.34375c0,-2.21094 -1.78906,-4 -4,-4z"></path></g></g></svg>