<svg xmlns="http://www.w3.org/2000/svg" xmlns:xlink="http://www.w3.org/1999/xlink" viewBox="0,0,256,256" width="50px" height="50px" fill-rule="nonzero"><g fill="#ffffff" fill-rule="nonzero" stroke="none" stroke-width="1" stroke-linecap="butt" stroke-linejoin="miter" stroke-miterlimit="10" stroke-dasharray="" stroke-dashoffset="0" font-family="none" font-weight="none" font-size="none" text-anchor="none" style="mix-blend-mode: normal"><g transform="scale(5.12,5.12)"><path d="M26,2c-12.69922,0 -17.60156,8.19922 -18,16v6.6875c-0.69922,0.80078 -1,1.82422 -1,3.125c0,2.30078 1.48828,4.1875 3.6875,4.6875c2.60156,6.80078 6.91406,15.5 14.3125,15.5c4,0 7.10156,-2.60156 9.5,-6h-2.59375c-2.19922,2.69922 -4.5,4 -7,4c-4.80078,0 -8.91797,-4.8125 -12.71875,-14.8125l-0.1875,-0.59375l-0.59375,-0.09375c-1.30078,0 -2.40625,-1.1875 -2.40625,-2.6875c0,-0.58594 0.10938,-1.07812 0.28125,-1.46875l3.28125,1.5625c0.3125,0.15234 0.67969,0.13281 0.97266,-0.05469c0.28906,-0.18359 0.46875,-0.50391 0.46484,-0.85156v-7.15625c0.69141,-0.04687 2.51172,-0.11719 5.53125,-0.84375c3.17578,-0.76172 6.83984,-2.125 9.375,-4.5625c2.68359,3.53516 6.15234,4.90625 7.09375,5.21875v7.34375c-0.00391,0.34766 0.17578,0.66797 0.46484,0.85156c0.29297,0.1875 0.66016,0.20703 0.97266,0.05469l1.5625,-0.78125v3.3125c-0.16016,0.03516 -0.33203,0.0625 -0.5,0.0625l-0.59375,0.09375l-0.21875,0.59375c-1,2.60156 -2,4.82031 -3,6.71875c1.19922,-0.19922 2.32422,-0.69531 3.125,-1.59375c0.60156,-1.30078 1.09375,-2.61328 1.59375,-3.8125c0.19922,-0.05078 0.39453,-0.13281 0.59375,-0.21875v0.71875c0,3.37109 -2.62891,6 -6,6h-4.1875c-0.41797,-1.15625 -1.51953,-2 -2.8125,-2h-2c-1.64453,0 -3,1.35547 -3,3c0,1.64453 1.35547,3 3,3h2c1.29297,0 2.39453,-0.84375 2.8125,-2h4.1875c4.42969,0 8,-3.57031 8,-8v-1c1.64453,0 3,-1.35547 3,-3v-4c0,-1.64453 -1.35547,-3 -3,-3v-4c-0.39844,-8.80078 -5.29297,-13.80078 -13.59375,-14l-2,-2zM25.59375,4l2,2h0.40625c10,0 11.80078,7.5 12,12v4c-0.03125,0 -0.0625,0 -0.09375,0c-0.51562,0.04688 -0.91016,0.48047 -0.90625,1v1.875l-1,0.5v-6.375c0.00391,-0.44922 -0.28906,-0.84375 -0.71875,-0.96875c0,0 -4.98437,-1.56641 -7.4375,-5.5625c-0.19922,-0.32031 -0.5625,-0.5 -0.9375,-0.46875c-0.26953,0.02734 -0.51953,0.16016 -0.6875,0.375c-1.99219,2.39063 -5.78516,3.88672 -9.125,4.6875c-3.33984,0.80078 -6.15625,0.9375 -6.15625,0.9375c-0.52734,0.03125 -0.9375,0.47266 -0.9375,1v6.40625l-2.09375,-1v-6.40625c0.60156,-10.10156 8.38672,-13.89844 15.6875,-14zM41,24h1c0.55469,0 1,0.44531 1,1v4c0,0.55469 -0.44531,1 -1,1h-0.8125c-0.0625,-0.01562 -0.125,-0.02734 -0.1875,-0.03125v-4.34375c0.01563,-0.10547 0.01563,-0.20703 0,-0.3125zM25,39h2c0.55469,0 1,0.44531 1,1c0,0.55469 -0.44531,1 -1,1h-2c-0.55469,0 -1,-0.44531 -1,-1c0,-0.55469 0.44531,-1 1,-1z"></path></g></g></svg>